<?xml version="1.0" encoding="UTF-8"?>
<svg width="100px" height="100px" viewBox="0 0 100 100" version="1.1" xmlns="http://www.w3.org/2000/svg" xmlns:xlink="http://www.w3.org/1999/xlink">
    <title>cattle2</title>
    <g id="Page-1" stroke="none" stroke-width="1" fill="none" fill-rule="evenodd">
        <g id="cattle2" fill-rule="nonzero">
            <g id="Group" transform="translate(10.100000, 19.000000)">
                <path d="M76.1,22 L74.4,21.5 L70.4,21.5 L64.8,20.2 L58.2,32.1 L28.1,32.1 C26,32.1 24.2,33.4 23.5,35.2 L17.4,35.2 L19.9,53.9 L16.9,53.9 L11.9,35.3 L9.3,39 L9.3,53.9 L6.2,53.9 L5,36.5 L6.2,29 L5,20.3 L5,11.5 C3.6,11.5 2.5,12.7 2.5,14 L2.5,35.1 L3.55271368e-15,35.1 L3.55271368e-15,14.1 C3.55271368e-15,11.3 2.2,9.1 5,9.1 L54.4,9.1 L61.4,7.9 L58.6,5.2 L61.1,5.2 C61.9,5.2 62.6,5.5 63.3,5.8 L65.4,7.1 L65.8,7 L65,5.1 C63.9,2.7 65.7,0 68.4,0 L75.4,0 L70.1,2 C69.1,2.4 68.6,3.6 69,4.6 L69.7,6.1 C70.9,5.9 71.8,6.3 72.4,7.2 L79.3,17.3 C79.9,18.2 79.9,19.3 79.3,20.2 L78.8,21 C78.1,21.8 77.1,22.3 76.1,22 Z" id="Path" fill="#E19227"></path>
                <path d="M74.6,39.4 L70.2,32.7 C69.8,32 69,31.7 68.2,31.8 L67.6,32 L66.7,31 C66.3,30.5 65.8,30.2 65.2,30.2 L64.6,30.2 L64.6,32.7 L58.1,34 L28.1,34 C26.7,34 25,35.2 25,37.1 L25,50.9 L27,50.9 L27,37.6 C27,36.7 27.7,36.1 28.5,36.1 L28.5,38.7 L29.9,46.4 L28.5,51 L30.4,61.8 L32.4,61.8 L31.7,53 L35.3,47.8 L47.4,49.5 L48.1,61.8 L50.1,61.8 L50.8,50 L52.5,50.3 L54.9,61.8 L56.9,61.8 L55.5,50.6 L64.3,42 C64.9,41.4 65.9,41.1 66.8,41.4 L68.8,42 C69.1,42.1 69.3,42.1 69.6,42.1 L72.9,42.1 C73.3,42.1 73.7,41.8 73.9,41.5 L74.4,40.5 C74.7,40.2 74.7,39.8 74.6,39.4 Z" id="Path" fill="#FCD09A"></path>
                <polygon id="Path" fill="#FCD09A" points="34.5 52.3 39 61.7 41.1 61.7 38 53 39.2 50.2 36.2 49.7"></polygon>
            </g>
        </g>
    </g>
</svg>