<?xml version="1.0" encoding="utf-8"?>
<!-- Generator: Adobe Illustrator 25.3.1, SVG Export Plug-In . SVG Version: 6.00 Build 0)  -->
<svg version="1.1" id="Layer_1" xmlns="http://www.w3.org/2000/svg" xmlns:xlink="http://www.w3.org/1999/xlink" x="0px" y="0px"
	 viewBox="0 0 100 100" style="enable-background:new 0 0 100 100;" xml:space="preserve">
<style type="text/css">
	.st0{fill:#888888;}
	.st1{fill:#E19227;}
	.st2{fill:#FCD09A;}
</style>
<circle class="st0" cx="50" cy="50" r="50"/>
<g>
	<path class="st1" d="M86.2,41l-1.7-0.5h-4l-5.6-1.3l-6.6,11.9H38.2c-2.1,0-3.9,1.3-4.6,3.1h-6.1l2.5,18.7H27l-5-18.6L19.4,58v14.9
		h-3.1l-1.2-17.4l1.2-7.5l-1.2-8.7v-8.8c-1.4,0-2.5,1.2-2.5,2.5v21.1h-2.5V33.1c0-2.8,2.2-5,5-5h49.4l7-1.2l-2.8-2.7h2.5
		c0.8,0,1.5,0.3,2.2,0.6l2.1,1.3l0.4-0.1l-0.8-1.9C74,21.7,75.8,19,78.5,19h7l-5.3,2c-1,0.4-1.5,1.6-1.1,2.6l0.7,1.5
		c1.2-0.2,2.1,0.2,2.7,1.1l6.9,10.1c0.6,0.9,0.6,2,0,2.9l-0.5,0.8C88.2,40.8,87.2,41.3,86.2,41z"/>
	<path class="st2" d="M84.7,58.4l-4.4-6.7c-0.4-0.7-1.2-1-2-0.9L77.7,51l-0.9-1c-0.4-0.5-0.9-0.8-1.5-0.8h-0.6v2.5L68.2,53h-30
		c-1.4,0-3.1,1.2-3.1,3.1v13.8h2V56.6c0-0.9,0.7-1.5,1.5-1.5v2.6l1.4,7.7l-1.4,4.6l1.9,10.8h2L41.8,72l3.6-5.2l12.1,1.7l0.7,12.3h2
		L60.9,69l1.7,0.3l2.4,11.5h2l-1.4-11.2l8.8-8.6c0.6-0.6,1.6-0.9,2.5-0.6l2,0.6c0.3,0.1,0.5,0.1,0.8,0.1H83c0.4,0,0.8-0.3,1-0.6
		l0.5-1C84.8,59.2,84.8,58.8,84.7,58.4z"/>
	<polygon class="st2" points="44.6,71.3 49.1,80.7 51.2,80.7 48.1,72 49.3,69.2 46.3,68.7 	"/>
</g>
</svg>
