<?xml version="1.0" encoding="UTF-8"?>
<svg width="748px" height="803px" viewBox="0 0 748 803" version="1.1" xmlns="http://www.w3.org/2000/svg" xmlns:xlink="http://www.w3.org/1999/xlink">
    <title>Group 2</title>
    <g id="Page-1" stroke="none" stroke-width="1" fill="none" fill-rule="evenodd">
        <g id="Group-2" transform="translate(0.000000, 1.000000)">
            <circle id="Oval" fill="#3B3F3D" cx="373.6" cy="427.6" r="373.6"></circle>
            <g id="rotate">
                <path d="M747.2,428.1 C747.2,-75.2 0,-75.2 0,428.1 L747.2,428.1 Z" id="Path" fill="#3B3F3D" fill-rule="nonzero"></path>
                <g id="Group" transform="translate(10.909555, 181.200000)" fill-rule="nonzero" stroke="#000000" stroke-width="0.5">
                    <g transform="translate(40.480445, 0.000000)">
                        <rect id="Rectangle" fill="#FCD09A" transform="translate(21.877600, 20.804900) rotate(-59.999272) translate(-21.877600, -20.804900) " x="5.377963" y="14.2050452" width="32.999274" height="13.1997096"></rect>
                        <path d="M23.91,1.2 L20.41,0.9 L3.61,30.1 L5.61,33 C5.61,33 7.11,35.5 7.71,36.5 C7.91,35.9 8.01,35.3 7.81,34.6 C7.71,34.3 7.81,34 8.01,33.8 C8.21,33.6 8.51,33.5 8.81,33.6 C9.31,33.8 9.51,33.7 9.51,33.7 C9.51,33.7 9.81,33.4 9.61,31.9 C9.51,31.5 9.81,31.2 10.21,31.1 C11.41,30.8 11.91,30.1 11.81,28.9 C11.81,28.5 12.01,28.2 12.41,28.1 C13.61,27.8 14.11,27.1 14.11,25.7 C14.11,25.4 14.21,25.1 14.51,25 C15.91,24.3 15.91,23.4 15.81,22.8 C15.81,22.5 15.91,22.2 16.21,22 C16.81,21.7 16.71,21.1 16.81,20.8 C16.91,20.6 17.11,20.4 17.31,20.4 C18.01,20.2 18.11,19.9 18.01,19.4 C18.01,19.4 18.01,19.4 18.01,19.4 C18.01,19.4 18.01,19.3 18.01,19.3 C18.01,19.3 18.01,19.3 18.01,19.3 C18.01,19.3 18.01,19.2 18.01,19.2 C18.01,19.2 18.01,19.2 18.01,19.2 C18.01,19.2 18.01,19.1 18.01,19.1 C18.01,19.1 18.01,19.1 18.01,19.1 C18.01,19.1 18.01,19 18.01,19 C18.01,19 18.01,19 18.01,19 C18.01,19 18.01,19 18.11,18.9 C18.11,18.9 18.11,18.9 18.21,18.9 C18.21,18.9 18.21,18.9 18.31,18.9 C18.31,18.9 18.41,18.9 18.41,18.9 C18.41,18.9 18.41,18.9 18.41,18.9 C18.91,18.7 19.11,18.5 18.91,17.8 C18.81,17.6 18.91,17.3 19.01,17.1 C19.11,16.9 19.41,16.8 19.61,16.8 C19.61,16.8 19.81,16.6 19.71,16 C19.71,15.7 19.91,15.4 20.21,15.3 C20.81,15.1 21.51,14.6 21.41,13 C21.41,12.7 21.51,12.4 21.81,12.3 C23.01,11.7 23.41,10.9 23.01,9.7 C22.91,9.3 23.11,9 23.41,8.8 C24.51,8.3 24.81,7.5 24.51,6.3 C24.41,5.9 24.61,5.5 24.91,5.4 C26.31,4.8 26.41,4.4 26.41,4.4 C26.41,4.3 26.31,4.1 26.01,3.9 C25.81,3.7 25.71,3.4 25.71,3.1 C25.81,2.8 26.01,2.6 26.31,2.5 C27.01,2.4 27.51,2 27.91,1.5 C26.81,1.2 24.11,1.3 23.91,1.2 Z" id="Path" fill="#E19227"></path>
                        <path d="M0.81,8.9 C-0.99,17.5 0.21,25.4 4.41,32.4 C4.61,31.9 4.61,31.4 4.41,30.8 C4.31,30.5 4.41,30.2 4.61,30 C4.81,29.8 5.11,29.7 5.41,29.8 C5.81,29.9 5.91,29.9 6.01,29.9 C6.01,29.9 6.31,29.6 6.11,28.3 C6.01,27.9 6.31,27.6 6.71,27.5 C7.81,27.2 8.21,26.6 8.11,25.6 C8.11,25.2 8.31,24.9 8.71,24.8 C9.81,24.6 10.21,23.9 10.21,22.7 C10.21,22.4 10.31,22.1 10.61,22 C11.81,21.3 11.91,20.6 11.81,20 C11.81,19.7 11.91,19.4 12.21,19.2 C12.51,19 12.71,18.9 12.71,18.8 C12.61,18.6 12.61,18.4 12.71,18.2 C12.81,18 13.01,17.8 13.21,17.7 C13.81,17.5 13.91,17.3 13.81,16.8 C13.81,16.8 13.81,16.8 13.81,16.8 C13.81,16.6 13.81,16.5 13.91,16.4 C13.91,16.4 13.91,16.4 13.91,16.4 C13.91,16.4 13.91,16.3 14.01,16.3 C14.01,16.3 14.01,16.3 14.01,16.3 C14.01,16.3 14.01,16.2 14.11,16.2 C14.21,16.1 14.31,16.1 14.41,16 C14.41,16 14.41,16 14.41,16 C14.81,15.8 15.01,15.6 14.81,15 C14.71,14.8 14.81,14.5 14.91,14.3 C15.01,14.1 15.31,14 15.51,14 C15.51,14 15.61,13.8 15.51,13.4 C15.51,13.1 15.71,12.8 16.01,12.6 C16.51,12.4 17.11,11.9 17.11,10.5 C17.11,10.2 17.21,9.9 17.51,9.8 C18.61,9.2 18.91,8.5 18.61,7.5 C18.51,7.1 18.71,6.7 19.01,6.6 C20.01,6.2 20.21,5.5 19.91,4.4 C19.81,4 20.01,3.6 20.31,3.5 C21.61,3 21.71,2.6 21.71,2.6 C21.71,2.6 21.71,2.4 21.31,2.2 C21.11,2 21.01,1.7 21.01,1.4 C21.11,1.1 21.31,0.9 21.61,0.8 C22.11,0.7 22.61,0.4 22.91,2.84217094e-14 C14.81,0.1 7.41,3 0.81,8.9 Z" id="Path" fill="#FCD09A"></path>
                    </g>
                    <g transform="translate(0.351314, 76.496738)">
                        <rect id="Rectangle" fill="#FCD09A" transform="translate(16.508830, 15.444662) rotate(-59.999272) translate(-16.508830, -15.444662) " x="4.15910214" y="10.4947708" width="24.6994566" height="9.8997822"></rect>
                        <path d="M18.0391304,0.703261898 L15.4391304,0.503261898 L2.83913043,22.3032619 L4.33913043,24.5032619 C4.33913043,24.5032619 5.43913043,26.3032619 5.93913043,27.1032619 C6.13913043,26.6032619 6.13913043,26.2032619 5.93913043,25.7032619 C5.83913043,25.5032619 5.93913043,25.3032619 6.13913043,25.1032619 C6.33913043,24.9032619 6.53913043,24.9032619 6.73913043,25.0032619 C7.03913043,25.1032619 7.23913043,25.1032619 7.23913043,25.1032619 C7.23913043,25.1032619 7.43913043,24.9032619 7.33913043,23.7032619 C7.33913043,23.4032619 7.43913043,23.1032619 7.73913043,23.1032619 C8.63913043,22.8032619 9.03913043,22.3032619 8.93913043,21.5032619 C8.93913043,21.2032619 9.13913043,21.0032619 9.33913043,20.9032619 C10.2391304,20.7032619 10.6391304,20.1032619 10.6391304,19.1032619 C10.6391304,18.9032619 10.7391304,18.7032619 10.9391304,18.6032619 C11.9391304,18.1032619 12.0391304,17.4032619 11.9391304,17.0032619 C11.9391304,16.8032619 12.0391304,16.5032619 12.2391304,16.4032619 C12.6391304,16.2032619 12.6391304,15.7032619 12.6391304,15.5032619 C12.7391304,15.3032619 12.8391304,15.2032619 13.0391304,15.2032619 C13.5391304,15.1032619 13.6391304,14.8032619 13.5391304,14.5032619 C13.5391304,14.5032619 13.5391304,14.5032619 13.5391304,14.5032619 C13.5391304,14.5032619 13.5391304,14.5032619 13.5391304,14.4032619 C13.5391304,14.4032619 13.5391304,14.4032619 13.5391304,14.4032619 C13.5391304,14.4032619 13.5391304,14.4032619 13.5391304,14.3032619 C13.5391304,14.3032619 13.5391304,14.3032619 13.5391304,14.3032619 C13.5391304,14.3032619 13.5391304,14.3032619 13.5391304,14.2032619 C13.5391304,14.2032619 13.5391304,14.2032619 13.5391304,14.2032619 C13.5391304,14.2032619 13.5391304,14.2032619 13.5391304,14.1032619 C13.5391304,14.1032619 13.5391304,14.1032619 13.5391304,14.1032619 C13.5391304,14.1032619 13.5391304,14.1032619 13.5391304,14.0032619 C13.5391304,14.0032619 13.5391304,14.0032619 13.5391304,14.0032619 C13.5391304,14.0032619 13.5391304,14.0032619 13.5391304,14.0032619 C13.5391304,14.0032619 13.5391304,14.0032619 13.6391304,14.0032619 C13.6391304,14.0032619 13.6391304,14.0032619 13.6391304,14.0032619 C14.0391304,13.8032619 14.1391304,13.7032619 14.0391304,13.1032619 C14.0391304,12.9032619 14.0391304,12.7032619 14.1391304,12.6032619 C14.2391304,12.5032619 14.4391304,12.4032619 14.5391304,12.4032619 C14.5391304,12.4032619 14.6391304,12.3032619 14.6391304,11.8032619 C14.6391304,11.6032619 14.7391304,11.3032619 14.9391304,11.2032619 C15.3391304,11.0032619 15.9391304,10.7032619 15.8391304,9.5032619 C15.8391304,9.3032619 15.9391304,9.1032619 16.1391304,9.0032619 C17.0391304,8.5032619 17.3391304,7.9032619 17.0391304,7.1032619 C16.9391304,6.8032619 17.0391304,6.5032619 17.3391304,6.4032619 C18.1391304,6.0032619 18.3391304,5.4032619 18.1391304,4.5032619 C18.0391304,4.2032619 18.2391304,3.9032619 18.4391304,3.8032619 C19.5391304,3.3032619 19.5391304,3.0032619 19.5391304,3.0032619 C19.5391304,2.9032619 19.4391304,2.8032619 19.2391304,2.6032619 C19.0391304,2.5032619 19.0391304,2.2032619 19.0391304,2.0032619 C19.0391304,1.8032619 19.2391304,1.6032619 19.4391304,1.6032619 C19.9391304,1.5032619 20.3391304,1.2032619 20.6391304,0.903261898 C20.1391304,0.803261898 18.1391304,0.803261898 18.0391304,0.703261898 Z" id="Path" fill="#E19227"></path>
                        <path d="M0.639130435,6.5032619 C-0.760869565,13.0032619 0.139130435,18.9032619 3.33913043,24.1032619 C3.43913043,23.7032619 3.43913043,23.3032619 3.33913043,22.9032619 C3.23913043,22.7032619 3.33913043,22.5032619 3.53913043,22.3032619 C3.73913043,22.1032619 3.93913043,22.1032619 4.13913043,22.2032619 C4.43913043,22.3032619 4.53913043,22.3032619 4.53913043,22.3032619 C4.53913043,22.3032619 4.73913043,22.1032619 4.63913043,21.1032619 C4.63913043,20.8032619 4.73913043,20.5032619 5.03913043,20.5032619 C5.83913043,20.3032619 6.13913043,19.9032619 6.13913043,19.1032619 C6.13913043,18.8032619 6.33913043,18.6032619 6.53913043,18.5032619 C7.33913043,18.3032619 7.63913043,17.8032619 7.63913043,16.9032619 C7.63913043,16.7032619 7.73913043,16.5032619 7.93913043,16.4032619 C8.83913043,15.9032619 8.93913043,15.4032619 8.83913043,14.9032619 C8.83913043,14.7032619 8.93913043,14.4032619 9.13913043,14.3032619 C9.43913043,14.2032619 9.53913043,14.1032619 9.53913043,14.0032619 C9.43913043,13.9032619 9.43913043,13.7032619 9.53913043,13.5032619 C9.63913043,13.3032619 9.73913043,13.2032619 9.93913043,13.2032619 C10.4391304,13.1032619 10.4391304,12.9032619 10.4391304,12.6032619 C10.4391304,12.6032619 10.4391304,12.6032619 10.4391304,12.6032619 C10.4391304,12.5032619 10.4391304,12.4032619 10.4391304,12.3032619 C10.4391304,12.3032619 10.4391304,12.3032619 10.4391304,12.3032619 C10.4391304,12.3032619 10.4391304,12.2032619 10.4391304,12.2032619 C10.4391304,12.2032619 10.4391304,12.2032619 10.4391304,12.2032619 C10.4391304,12.2032619 10.4391304,12.2032619 10.5391304,12.1032619 C10.6391304,12.0032619 10.6391304,12.0032619 10.7391304,12.0032619 C10.7391304,12.0032619 10.7391304,12.0032619 10.7391304,12.0032619 C11.0391304,11.9032619 11.2391304,11.7032619 11.0391304,11.3032619 C11.0391304,11.1032619 11.0391304,10.9032619 11.1391304,10.8032619 C11.2391304,10.7032619 11.4391304,10.6032619 11.5391304,10.6032619 C11.5391304,10.6032619 11.6391304,10.4032619 11.5391304,10.1032619 C11.5391304,9.9032619 11.6391304,9.6032619 11.8391304,9.5032619 C12.2391304,9.3032619 12.7391304,9.0032619 12.6391304,8.0032619 C12.6391304,7.8032619 12.7391304,7.6032619 12.9391304,7.5032619 C13.7391304,7.1032619 14.0391304,6.5032619 13.7391304,5.7032619 C13.6391304,5.4032619 13.7391304,5.1032619 14.0391304,5.0032619 C14.7391304,4.7032619 14.9391304,4.2032619 14.7391304,3.3032619 C14.6391304,3.0032619 14.8391304,2.7032619 15.0391304,2.6032619 C16.0391304,2.2032619 16.0391304,1.9032619 16.0391304,1.9032619 C16.0391304,1.9032619 16.0391304,1.8032619 15.7391304,1.6032619 C15.5391304,1.5032619 15.5391304,1.2032619 15.5391304,1.0032619 C15.6391304,0.803261898 15.7391304,0.603261898 15.9391304,0.603261898 C16.3391304,0.503261898 16.6391304,0.303261898 16.9391304,0.00326189766 C11.2391304,-0.0967381023 5.63913043,2.1032619 0.639130435,6.5032619 Z" id="Path" fill="#FCD09A"></path>
                    </g>
                    <g transform="translate(0.000000, 21.087725)">
                        <rect id="Rectangle" fill="#FCD09A" transform="translate(39.409645, 36.969075) rotate(-59.999272) translate(-39.409645, -36.969075) " x="9.76029698" y="25.1193355" width="59.2986954" height="23.6994786"></rect>
                        <path d="M43.0904447,1.71227476 L36.7904447,1.21227476 L6.59044467,53.5122748 L10.0904447,58.7122748 C10.0904447,58.7122748 12.7904447,63.1122748 13.8904447,65.0122748 C14.2904447,63.9122748 14.3904447,62.8122748 13.9904447,61.6122748 C13.7904447,61.1122748 13.9904447,60.5122748 14.3904447,60.2122748 C14.7904447,59.8122748 15.2904447,59.7122748 15.7904447,59.9122748 C16.5904447,60.2122748 16.9904447,60.1122748 16.9904447,60.1122748 C16.9904447,60.1122748 17.5904447,59.6122748 17.1904447,56.8122748 C17.0904447,56.1122748 17.4904447,55.5122748 18.1904447,55.3122748 C20.3904447,54.7122748 21.2904447,53.5122748 21.0904447,51.4122748 C20.9904447,50.7122748 21.4904447,50.1122748 22.0904447,50.0122748 C24.2904447,49.5122748 25.1904447,48.2122748 25.0904447,45.8122748 C25.0904447,45.3122748 25.3904447,44.8122748 25.7904447,44.5122748 C28.1904447,43.2122748 28.2904447,41.6122748 28.1904447,40.5122748 C28.0904447,39.9122748 28.3904447,39.4122748 28.9904447,39.1122748 C29.9904447,38.6122748 29.8904447,37.4122748 30.0904447,37.0122748 C30.2904447,36.6122748 30.5904447,36.3122748 30.9904447,36.2122748 C32.2904447,35.9122748 32.3904447,35.3122748 32.2904447,34.4122748 C32.2904447,34.4122748 32.2904447,34.3122748 32.2904447,34.3122748 C32.2904447,34.2122748 32.2904447,34.2122748 32.2904447,34.1122748 C32.2904447,34.1122748 32.2904447,34.0122748 32.2904447,34.0122748 C32.2904447,33.9122748 32.2904447,33.9122748 32.2904447,33.8122748 C32.2904447,33.8122748 32.2904447,33.7122748 32.2904447,33.7122748 C32.2904447,33.6122748 32.2904447,33.6122748 32.3904447,33.5122748 C32.3904447,33.5122748 32.3904447,33.4122748 32.3904447,33.4122748 C32.3904447,33.3122748 32.4904447,33.3122748 32.4904447,33.3122748 C32.4904447,33.3122748 32.4904447,33.3122748 32.5904447,33.2122748 C32.5904447,33.2122748 32.6904447,33.1122748 32.6904447,33.1122748 C32.6904447,33.1122748 32.7904447,33.0122748 32.7904447,33.0122748 C32.7904447,33.0122748 32.8904447,32.9122748 32.8904447,32.9122748 C32.8904447,32.9122748 32.9904447,32.8122748 33.0904447,32.8122748 C33.0904447,32.8122748 33.0904447,32.8122748 33.1904447,32.8122748 C34.0904447,32.4122748 34.4904447,32.0122748 34.0904447,30.7122748 C33.9904447,30.3122748 34.0904447,29.9122748 34.2904447,29.5122748 C34.4904447,29.2122748 34.8904447,29.0122748 35.3904447,28.9122748 C35.4904447,28.9122748 35.6904447,28.6122748 35.5904447,27.5122748 C35.5904447,26.9122748 35.8904447,26.4122748 36.3904447,26.2122748 C37.3904447,25.8122748 38.6904447,24.9122748 38.5904447,22.1122748 C38.5904447,21.6122748 38.8904447,21.1122748 39.2904447,20.8122748 C41.3904447,19.7122748 42.0904447,18.2122748 41.4904447,16.1122748 C41.2904447,15.5122748 41.5904447,14.8122748 42.1904447,14.5122748 C44.0904447,13.6122748 44.6904447,12.2122748 44.0904447,10.1122748 C43.8904447,9.41227476 44.2904447,8.71227476 44.8904447,8.51227476 C47.4904447,7.41227476 47.5904447,6.71227476 47.5904447,6.61227476 C47.5904447,6.51227476 47.3904447,6.11227476 46.7904447,5.61227476 C46.3904447,5.31227476 46.1904447,4.71227476 46.2904447,4.21227476 C46.3904447,3.71227476 46.7904447,3.31227476 47.2904447,3.21227476 C48.4904447,2.91227476 49.3904447,2.41227476 50.1904447,1.41227476 C48.2904447,1.81227476 43.3904447,2.01227476 43.0904447,1.71227476 Z" id="Path" fill="#E19227"></path>
                        <path d="M1.49044467,15.5122748 C-1.80955533,31.0122748 0.39044467,45.2122748 7.89044467,57.8122748 C8.19044467,56.9122748 8.19044467,55.9122748 7.89044467,55.0122748 C7.69044467,54.5122748 7.89044467,53.9122748 8.29044467,53.6122748 C8.69044467,53.2122748 9.19044467,53.1122748 9.69044467,53.3122748 C10.3904447,53.6122748 10.6904447,53.5122748 10.6904447,53.5122748 C10.6904447,53.5122748 11.1904447,53.0122748 10.8904447,50.6122748 C10.7904447,49.9122748 11.1904447,49.3122748 11.8904447,49.1122748 C13.8904447,48.6122748 14.6904447,47.5122748 14.4904447,45.7122748 C14.3904447,45.0122748 14.8904447,44.4122748 15.5904447,44.2122748 C17.4904447,43.8122748 18.2904447,42.6122748 18.2904447,40.4122748 C18.2904447,39.9122748 18.5904447,39.4122748 18.9904447,39.1122748 C21.1904447,37.9122748 21.2904447,36.6122748 21.1904447,35.6122748 C21.0904447,35.0122748 21.3904447,34.5122748 21.8904447,34.2122748 C22.4904447,33.9122748 22.7904447,33.7122748 22.8904447,33.5122748 C22.6904447,33.1122748 22.6904447,32.7122748 22.7904447,32.4122748 C22.9904447,32.0122748 23.2904447,31.7122748 23.6904447,31.6122748 C24.7904447,31.3122748 24.9904447,30.9122748 24.8904447,30.1122748 C24.8904447,30.1122748 24.8904447,30.1122748 24.8904447,30.1122748 C24.8904447,29.8122748 24.8904447,29.6122748 24.9904447,29.3122748 C24.9904447,29.3122748 24.9904447,29.3122748 24.9904447,29.3122748 C24.9904447,29.2122748 25.0904447,29.2122748 25.0904447,29.1122748 C25.0904447,29.1122748 25.0904447,29.1122748 25.0904447,29.0122748 C25.0904447,28.9122748 25.1904447,28.9122748 25.1904447,28.9122748 C25.2904447,28.8122748 25.4904447,28.7122748 25.6904447,28.6122748 C25.6904447,28.6122748 25.6904447,28.6122748 25.6904447,28.6122748 C26.3904447,28.3122748 26.7904447,28.0122748 26.4904447,26.9122748 C26.3904447,26.5122748 26.4904447,26.1122748 26.6904447,25.7122748 C26.9904447,25.4122748 27.2904447,25.2122748 27.7904447,25.1122748 C27.7904447,25.0122748 27.8904447,24.7122748 27.8904447,23.9122748 C27.8904447,23.3122748 28.1904447,22.8122748 28.6904447,22.5122748 C29.6904447,22.1122748 30.7904447,21.3122748 30.6904447,18.8122748 C30.6904447,18.3122748 30.9904447,17.8122748 31.3904447,17.6122748 C33.3904447,16.6122748 33.8904447,15.3122748 33.3904447,13.4122748 C33.1904447,12.7122748 33.4904447,12.0122748 34.0904447,11.8122748 C35.7904447,11.0122748 36.2904447,9.81227476 35.7904447,7.81227476 C35.5904447,7.11227476 35.9904447,6.41227476 36.5904447,6.21227476 C38.8904447,5.31227476 39.0904447,4.61227476 39.0904447,4.61227476 C39.0904447,4.61227476 38.9904447,4.31227476 38.3904447,3.81227476 C37.9904447,3.51227476 37.7904447,2.91227476 37.8904447,2.41227476 C37.9904447,1.91227476 38.3904447,1.51227476 38.8904447,1.41227476 C39.8904447,1.21227476 40.6904447,0.712274757 41.2904447,0.0122747566 C26.6904447,-0.287725243 13.2904447,4.91227476 1.49044467,15.5122748 Z" id="Path" fill="#FCD09A"></path>
                        <path d="M36.5904447,34.5122748 L35.2904447,36.8122748 C33.9904447,39.1122748 34.7904447,42.2122748 37.0904447,43.5122748 L46.2904447,48.8122748 L52.4904447,38.1122748 L43.2904447,32.8122748 C40.9904447,31.4122748 37.8904447,32.2122748 36.5904447,34.5122748 Z" id="Path" fill="#2B2A28"></path>
                    </g>
                </g>
                <g id="Group" transform="translate(117.700000, 63.900000)" stroke-width="0.5">
                    <polygon id="Path" stroke="#000000" fill="#E19227" points="21.1 37.6 25.8 35.2 31.2 29 45.3 25.8 54.5 35.3 51.8 22.1 54.1 11.4 68.5 10.6 72.4 5.9 87.1 5.2 96.5 21.4 26.6 61.7 17.2 45.5"></polygon>
                    <path d="M86.9,47.9 L92.8,44.9 L94.1,43 L93.4,42.4 C92.4,42.5 91.4,42.5 90.4,42.7 L87.4,43.8 L87.7,44.3 C87.8,44.4 87.8,44.6 87.7,44.8 L86.6,47.4 L86.9,47.9 L86.9,47.9 Z" id="Path" stroke="#010101" fill="#FCD09A" fill-rule="nonzero"></path>
                    <path d="M87.7,49.2 L89.3,49.1 C89.5,49.1 89.7,49.1 89.8,49.2 L92.1,50.8 C93.4,50 94.7,49.3 96.1,48.5 L97.8,46 L96.9,44.5 L93.6,45.9 L93.6,45.9 L87.6,49 L87.7,49.2 L87.7,49.2 Z" id="Path" stroke="#010101" fill="#FCD09A" fill-rule="nonzero"></path>
                    <polygon id="Path" stroke="#010101" fill="#FCD09A" fill-rule="nonzero" points="104.1 45.7 99.6 48.3 100.2 49.9 106.8 46.1"></polygon>
                    <path d="M98,42.5 C97.3,42.4 96.6,42.4 95.8,42.4 C95.8,42.6 95.8,42.7 95.7,42.9 L95,43.9 L97,43 L98,42.5 L98,42.5 Z" id="Path" stroke="#010101" fill="#FCD09A" fill-rule="nonzero"></path>
                    <path d="M96.8,49.3 L95.2,50.2 L95.2,50.2 L96.3,52.1 L99.1,50.5 L98.4,48.5 C98.3,48.2 98.5,47.8 98.9,47.6 L103.4,45 L103.1,43.5 C102.1,43.2 101.1,42.9 99.9,42.7 L98.3,43.6 L99.3,45.3 C99.4,45.5 99.3,45.7 99.2,45.9 L97.2,48.8 C97.1,49.1 96.9,49.2 96.8,49.3 Z" id="Path" stroke="#010101" fill="#FCD09A" fill-rule="nonzero"></path>
                    <path d="M93.7,51.1 C91.9,52.1 90.1,53.2 88.2,54.3 L87.2,57.4 L94.7,53 L93.7,51.1 Z" id="Path" stroke="#010101" fill="#FCD09A" fill-rule="nonzero"></path>
                    <path d="M79.9,59.2 L78.1,60.2 C78.1,60.5 78.1,60.8 78.1,61.1 L78.8,62.2 L84.1,59.2 L79.9,59.2 Z" id="Path" stroke="#010101" fill="#FCD09A" fill-rule="nonzero"></path>
                    <path d="M80.7,54.4 L77.8,55.3 C77.6,55.4 77.5,55.4 77.3,55.3 L77.3,55.3 L73.3,54.5 L71.7,55.6 C75.7,55.6 77.3,57.1 77.8,58.9 L79.3,58 L82.7,53.8 L83.1,52.1 L81.2,53.9 C81.1,54.2 80.9,54.4 80.7,54.4 Z" id="Path" stroke="#010101" fill="#FCD09A" fill-rule="nonzero"></path>
                    <path d="M86.4,50.3 L86.1,49.8 L85.1,50.5 L84.5,53.3 L87.6,53.3 L90.5,51.6 L88.7,50.4 L86.9,50.5 C86.6,50.6 86.5,50.5 86.4,50.3 Z" id="Path" stroke="#010101" fill="#FCD09A" fill-rule="nonzero"></path>
                    <path d="M83.1,48.2 L81,48.4 L79.9,50.6 L81.1,52.7 L83.9,50.1 C83.9,50.1 84,50 84,50 L85.5,48.9 L85.1,48.2 C85,48.1 85,47.9 85.1,47.7 L85.5,46.8 L83.8,48.1 C83.5,48.1 83.3,48.2 83.1,48.2 Z" id="Path" stroke="#010101" fill="#FCD09A" fill-rule="nonzero"></path>
                    <polygon id="Path" stroke="#010101" fill="#FCD09A" fill-rule="nonzero" points="81.2 57.9 85.6 58 86.6 54.7 83.8 54.7"></polygon>
                    <path d="M60.6,54.4 C60.8,54.7 61.1,55 61.5,55.2 L62.9,54.4 L60.6,54.4 Z" id="Path" stroke="#010101" fill="#FCD09A" fill-rule="nonzero"></path>
                    <path d="M65.4,49.8 L62.6,49.8 L60.5,52.4 C60.4,52.6 60.4,52.8 60.4,53 L64.4,53.1 L65.4,49.8 Z" id="Path" stroke="#010101" fill="#FCD09A" fill-rule="nonzero"></path>
                    <path d="M76.5,41.2 L75.6,39.7 L72.3,41.1 L66.3,44.2 L66.5,44.6 L68.1,44.5 C68.3,44.5 68.5,44.5 68.6,44.6 L70.9,46.2 C72.2,45.4 73.5,44.7 74.9,43.9 L76.5,41.2 Z" id="Path" stroke="#010101" fill="#FCD09A" fill-rule="nonzero"></path>
                    <path d="M67.5,42 C67.5,42.1 67.4,42.1 67.4,42.2 L71.6,40 L72.9,38.1 L71.6,36.9 L68.4,38.1 C69,38.8 68.8,40 67.5,42 Z" id="Path" stroke="#010101" fill="#FCD09A" fill-rule="nonzero"></path>
                    <path d="M74.6,38 L73.9,39 L75.9,38.1 L80.8,35.3 L80.3,33.9 C78,34.6 75.8,35.4 73.5,36.2 L74.6,37.2 C74.8,37.5 74.8,37.8 74.6,38 Z" id="Path" stroke="#010101" fill="#FCD09A" fill-rule="nonzero"></path>
                    <path d="M66.1,52.6 L73.6,48.2 L72.5,46.3 C70.7,47.3 68.9,48.4 67,49.5 L66.1,52.6 Z" id="Path" stroke="#010101" fill="#FCD09A" fill-rule="nonzero"></path>
                    <path d="M63.2,48.6 L66.3,48.6 L69.2,46.9 L67.4,45.7 L65.6,45.8 C65.3,45.8 65.1,45.7 65.1,45.6 L65,45.5 C64.5,46.2 63.9,46.9 63.4,47.6 L63.2,48.6 Z" id="Path" stroke="#010101" fill="#FCD09A" fill-rule="nonzero"></path>
                    <path d="M79.1,43.9 L79.4,44.9 L80.7,44.1 C80.1,44.1 79.5,44 79.1,43.9 Z" id="Path" stroke="#010101" fill="#FCD09A" fill-rule="nonzero"></path>
                    <path d="M73.5,49.6 L68.9,52.3 L68.9,52.3 L62.8,55.8 C64.3,56.1 66.5,56.2 69.7,55.8 C69.8,55.8 70,55.8 70.1,55.8 C70.1,55.6 70.2,55.4 70.5,55.2 L72.5,53.7 L73.3,49.9 C73.5,49.7 73.5,49.7 73.5,49.6 Z" id="Path" stroke="#010101" fill="#FCD09A" fill-rule="nonzero"></path>
                    <path d="M76.5,47.9 L74.5,49.1 C74.9,49.1 75.2,49.2 75.1,49.6 L74.3,53.3 L78,54 L79.6,53.5 L78.3,51.2 C78.2,51.1 78.2,50.9 78.3,50.7 L79.4,48.5 L76.9,48.7 C76.3,48.8 76.2,48.3 76.5,47.9 Z" id="Path" stroke="#010101" fill="#FCD09A" fill-rule="nonzero"></path>
                    <path d="M77.3,47.4 L77.3,47.4 C79.3,47.2 81.2,47.1 83.2,46.9 L86.1,44.7 L85.4,43.6 C84.6,43.7 83.9,43.8 83.3,43.9 L77.3,47.4 Z" id="Path" stroke="#010101" fill="#FCD09A" fill-rule="nonzero"></path>
                    <path d="M80.5,36.9 L77.2,38.8 L78.2,40.5 C78.2,40.5 78.2,40.5 78.2,40.6 C78.7,39.5 79.6,38.3 80.3,37.2 C80.3,37.1 80.4,37 80.5,36.9 Z" id="Path" stroke="#010101" fill="#FCD09A" fill-rule="nonzero"></path>
                    <path d="M77.3,43.8 C77.2,43.5 77.7,42 77.9,41.5 L76.1,44.1 C76,44.2 75.9,44.4 75.7,44.4 L74.1,45.3 L74.1,45.3 L75.2,47.2 L78,45.6 L77.3,43.8 Z" id="Path" stroke="#010101" fill="#FCD09A" fill-rule="nonzero"></path>
                    <g transform="translate(51.700000, 32.200000)" fill="#FCD09A" fill-rule="nonzero" id="Path" stroke="#010101">
                        <path d="M15.5,1.2 C14.6,1.4 13.6,1.7 12.6,2 C12.1,2.1 11.7,2.3 11.3,2.4 L10.7,3.4 L15.3,2.8 L15.5,1.2 Z"></path>
                        <path d="M21.5,0.1 L19.9,1.3 L19.9,1.3 L14.4,5.5 C14.6,5.5 14.8,5.5 15,5.5 C18.8,4.1 22.1,2.9 25.9,1.5 L26.3,0.4 C25.1,0 23.5,-0.1 21.5,0.1 Z"></path>
                        <path d="M9.7,4.8 L7.8,6.2 C9.3,6 10.8,5.8 12.2,5.6 L12.4,5.5 C12.5,5.4 12.6,5.3 12.8,5.2 L14.1,4.3 L9.7,4.8 Z"></path>
                        <path d="M8.9,3.9 L9.5,2.9 C4.6,4.3 1.3,5.3 1.3,5.3 L0,7.1 L6,6.1 L8.9,3.9 Z"></path>
                        <path d="M17.1,0.8 L17,2 L19.1,0.4 C18.5,0.5 17.8,0.6 17.1,0.8 Z"></path>
                    </g>
                    <path d="M113.5,19.6 L113.5,14.2 L112,14.6 L112.3,18.9 L108,24 L104.5,19.2 L109.6,12.8 L111.3,7.1 L110,7.9 L108.7,12.2 L103.5,17.7 L102.2,13.1 L101.5,9.1 L106.2,0.9 L105.3,0 L100.6,7.9 L100.2,12 L97.6,9.2 L93.7,6.4 L93,6.9 L96.8,9.7 L99,12.7 L93.9,12 L86,7.7 L85.3,8.6 L93.4,13 L100.6,14.4 L103.3,22.3 L107.1,28 L103.2,26 L95,20.3 L93.7,21.4 L101.8,27.5 L107.3,30.7 L109,33.7 C109,33.7 111.2,38.1 112.3,40.4 L116,38.2 L112.5,32.5 L114.6,26.6 L113.5,25.4 L111.2,30 L108.9,25.5 L113.5,19.6 Z" id="Path" stroke="#010101" fill="#9E8F83" fill-rule="nonzero"></path>
                    <path d="M28.7,50.6 L33.4,49.6 L35,52.7 L33.2,52.9 L31,51.6 L30.4,52.3 L33.2,53.7 L35.7,53.7 L37.5,56.1 L39.7,60.4 L42.3,58.9 C41.3,57.6 40,55.8 40,55.8 L38.9,54.1 L38.6,50.4 L36.8,46.6 L35.9,47 L37.5,50.8 L37.5,53.4 L35.5,49.9 L32,46.5 L33.1,42.4 L32.5,42.4 L31.5,45.3 L30.5,43.4 L28.8,41.2 L28.4,41.4 L30,43.7 L30.8,45.8 L28.5,44.9 L23.1,45.3 L23.3,46 L28.8,45.7 L30.7,47.1 L32.8,49 L28.6,50.3 L26,49.9 L25.2,50.3 L28.7,50.6 Z" id="Path" stroke="#010101" fill="#9E8F83" fill-rule="nonzero"></path>
                    <polygon id="Path" stroke="#010101" fill="#9E8F83" fill-rule="nonzero" points="19.1 62 21.5 68.8 21.2 73.3 18.1 67.1 12.4 60.7 14.9 53.6 13.8 53.5 11.8 58.4 10.2 55 7.5 51 6.7 51.4 9.3 55.5 10.5 59.2 6.7 57.5 0 52.7 0.3 53.9 7.3 58.9 10.4 61.6 13.8 65.1 6.5 63.9 2.1 62.8 0.7 63.5 6.6 64.9 14.6 66.7 17 72.2 14.6 71.3 10.6 69.2 9.8 69.9 14.6 72.6 18.1 73.9 19.9 76.5 24.4 84.4 28.1 82.3 23.2 76.7 23.5 70.5 23.5 68.3 20.8 61.4"></polygon>
                </g>
                <g id="Group" transform="translate(516.254133, 63.300000)" fill-rule="nonzero" stroke="#000000" stroke-width="0.5">
                    <path d="M10.145867,23.6 C9.54586699,23.8 9.04586699,24 8.64586699,24.4 L12.945867,16.9 C13.945867,17.6 16.345867,18.9 18.345867,18.4 C20.445867,17.8 21.845867,15.4 22.345867,14.3 C21.345867,13.6 18.945867,12.2 16.845867,12.7 C15.845867,13 15.045867,13.6 14.445867,14.4 L17.945867,8.3 C19.245867,7.9 21.045867,7.2 21.945867,5.7 C23.045867,3.8 22.245867,1.1 21.845867,7.10542736e-15 C20.645867,0.2 17.945867,0.9 16.845867,2.8 C15.945867,4.3 16.245867,6.2 16.645867,7.6 L11.645867,16.3 C11.745867,15.7 11.745867,15.1 11.645867,14.5 C11.045867,12.4 8.74586699,11.1 7.64586699,10.6 C6.94586699,11.6 5.54586699,13.9 6.14586699,16 C6.64586699,17.8 8.64586699,19.1 9.74586699,19.7 L5.74586699,26.7 C5.74586699,26.2 5.74586699,25.8 5.64586699,25.3 C5.04586699,23.2 2.74586699,21.9 1.64586699,21.4 C0.945866988,22.4 -0.454133012,24.7 0.145866988,26.8 C0.645866988,28.6 2.44586699,29.8 3.64586699,30.4 L1.34586699,34.4 C1.24586699,34.6 1.44586699,34.9 1.84586699,35.1 C2.24586699,35.3 2.64586699,35.3 2.74586699,35.1 L6.84586699,28 C8.04586699,28.7 10.145867,29.8 11.945867,29.3 C14.045867,28.7 15.445867,26.3 15.945867,25.2 C14.645867,24.5 12.245867,23 10.145867,23.6 Z" id="Path" fill="#E19227"></path>
                    <path d="M27.245867,33.5 C26.645867,33.7 26.145867,33.9 25.745867,34.3 L30.045867,26.8 C31.045867,27.5 33.445867,28.8 35.445867,28.3 C37.545867,27.7 38.945867,25.3 39.445867,24.2 C38.445867,23.5 36.045867,22.1 33.945867,22.6 C32.945867,22.9 32.145867,23.5 31.545867,24.3 L35.045867,18.2 C36.345867,17.8 38.145867,17.1 39.045867,15.6 C40.145867,13.7 39.345867,11 38.945867,9.9 C37.745867,10.1 35.045867,10.8 33.945867,12.7 C33.045867,14.2 33.345867,16.1 33.745867,17.5 L28.745867,26.2 C28.845867,25.6 28.845867,25 28.745867,24.4 C28.145867,22.3 25.845867,21 24.745867,20.5 C24.045867,21.5 22.645867,23.8 23.245867,25.9 C23.745867,27.7 25.745867,29 26.845867,29.6 L22.845867,36.6 C22.845867,36.1 22.845867,35.7 22.745867,35.2 C22.145867,33.1 19.845867,31.8 18.745867,31.3 C18.045867,32.3 16.645867,34.6 17.245867,36.7 C17.745867,38.5 19.545867,39.7 20.745867,40.3 L18.445867,44.3 C18.345867,44.5 18.545867,44.8 18.945867,45 C19.345867,45.2 19.745867,45.2 19.845867,45 L23.945867,37.9 C25.145867,38.6 27.245867,39.7 29.045867,39.2 C31.145867,38.6 32.545867,36.2 33.045867,35.1 C31.745867,34.3 29.345867,32.9 27.245867,33.5 Z" id="Path" fill="#FCD09A"></path>
                    <path d="M44.345867,43.3 C43.745867,43.5 43.245867,43.7 42.845867,44.1 L47.145867,36.6 C48.145867,37.3 50.545867,38.6 52.545867,38.1 C54.645867,37.5 56.045867,35.1 56.545867,34 C55.545867,33.3 53.145867,31.9 51.045867,32.4 C50.045867,32.7 49.245867,33.3 48.645867,34.1 L52.145867,28 C53.445867,27.6 55.245867,26.9 56.145867,25.4 C57.245867,23.5 56.445867,20.8 56.045867,19.7 C54.845867,19.9 52.145867,20.6 51.045867,22.5 C50.145867,24 50.445867,25.9 50.845867,27.3 L45.845867,36 C45.945867,35.4 45.945867,34.8 45.845867,34.2 C45.245867,32.1 42.945867,30.8 41.845867,30.3 C41.145867,31.3 39.745867,33.6 40.345867,35.7 C40.845867,37.5 42.845867,38.8 43.945867,39.4 L39.945867,46.4 C39.945867,45.9 39.945867,45.5 39.845867,45 C39.245867,42.9 36.945867,41.6 35.845867,41.1 C35.145867,42.1 33.745867,44.4 34.345867,46.5 C34.845867,48.3 36.645867,49.5 37.845867,50.1 L35.545867,54.1 C35.445867,54.3 35.645867,54.6 36.045867,54.8 C36.445867,55 36.845867,55 36.945867,54.8 L41.045867,47.7 C42.245867,48.4 44.345867,49.5 46.145867,49 C48.245867,48.4 49.645867,46 50.145867,44.9 C48.845867,44.2 46.445867,42.8 44.345867,43.3 Z" id="Path" fill="#E19227"></path>
                    <path d="M61.445867,53.2 C60.845867,53.4 60.345867,53.6 59.945867,54 L64.245867,46.5 C65.245867,47.2 67.645867,48.5 69.645867,48 C71.745867,47.4 73.145867,45 73.645867,43.9 C72.645867,43.2 70.245867,41.8 68.145867,42.3 C67.145867,42.6 66.345867,43.2 65.745867,44 L69.245867,37.9 C70.545867,37.5 72.345867,36.8 73.245867,35.3 C74.345867,33.4 73.545867,30.7 73.145867,29.6 C71.945867,29.8 69.245867,30.5 68.145867,32.4 C67.245867,33.9 67.545867,35.8 67.945867,37.2 L62.945867,45.9 C63.045867,45.3 63.045867,44.7 62.945867,44.1 C62.345867,42 60.045867,40.7 58.945867,40.2 C58.245867,41.2 56.845867,43.5 57.445867,45.6 C57.945867,47.4 59.945867,48.7 61.045867,49.3 L57.045867,56.3 C57.045867,55.8 57.045867,55.4 56.945867,54.9 C56.345867,52.8 54.045867,51.5 52.945867,51 C52.245867,52 50.845867,54.3 51.445867,56.4 C51.945867,58.2 53.745867,59.4 54.945867,60 L52.645867,64 C52.545867,64.2 52.745867,64.5 53.145867,64.7 C53.545867,64.9 53.945867,64.9 54.045867,64.7 L58.145867,57.6 C59.345867,58.3 61.445867,59.4 63.245867,58.9 C65.345867,58.3 66.745867,55.9 67.245867,54.8 C65.945867,54.1 63.545867,52.6 61.445867,53.2 Z" id="Path" fill="#FCD09A"></path>
                    <path d="M78.545867,63.1 C77.945867,63.3 77.445867,63.5 77.045867,63.9 L81.345867,56.4 C82.345867,57.1 84.745867,58.4 86.745867,57.9 C88.845867,57.3 90.245867,54.9 90.745867,53.8 C89.745867,53.1 87.345867,51.7 85.245867,52.2 C84.245867,52.5 83.445867,53.1 82.845867,53.9 L86.345867,47.8 C87.645867,47.4 89.445867,46.7 90.345867,45.2 C91.445867,43.3 90.645867,40.6 90.245867,39.5 C89.045867,39.7 86.345867,40.4 85.245867,42.3 C84.345867,43.8 84.645867,45.7 85.045867,47.1 L80.045867,55.8 C80.145867,55.2 80.145867,54.6 80.045867,54 C79.445867,51.9 77.145867,50.6 76.045867,50.1 C75.345867,51.1 73.945867,53.4 74.545867,55.5 C75.045867,57.3 77.045867,58.6 78.145867,59.2 L74.145867,66.2 C74.145867,65.7 74.145867,65.3 74.045867,64.8 C73.445867,62.7 71.145867,61.4 70.045867,60.9 C69.345867,61.9 67.945867,64.2 68.545867,66.3 C69.045867,68.1 70.845867,69.3 72.045867,69.9 L69.745867,73.9 C69.645867,74.1 69.845867,74.4 70.245867,74.6 C70.645867,74.8 71.045867,74.8 71.145867,74.6 L75.245867,67.5 C76.445867,68.2 78.545867,69.3 80.345867,68.8 C82.445867,68.2 83.845867,65.8 84.345867,64.7 C83.045867,63.9 80.645867,62.5 78.545867,63.1 Z" id="Path" fill="#E19227"></path>
                </g>
                <g id="Group" transform="translate(302.800000, 0.000000)" fill-rule="nonzero" stroke-width="0.5">
                    <path d="M132.1,39.8 L136.6,32.1 L134,31.5 L130.9,38 L120.5,41.7 L119.5,32 L132.1,27.1 L139.2,20.3 L136.7,20.5 L131.3,25.6 L119.3,29 L121.2,21.3 L123.5,15 L137,7 L136.4,5 L123,12.5 L119.1,18.1 L117.7,11.9 L114.4,4.5 L113,4.6 L116.1,11.8 L116.7,17.9 L109.9,12.7 L102.1,0 L100.4,0.7 L108.3,13.8 L117.5,21.7 L114.8,35.3 L115.5,46.6 L111.5,40.5 L104.5,25.5 L101.7,26 L108.2,41.4 L113.5,50.7 L113.5,56.5 C113.5,56.5 113,64.6 112.7,68.9 L119.9,68.9 L119.6,57.8 L127.5,51.1 L127,48.4 L119.8,53.1 L120.3,44.7 L132.1,39.8 Z" id="Path" stroke="#010101" fill="#9E8F83"></path>
                    <g transform="translate(35.600000, 29.900000)" id="Path" stroke="#000000">
                        <path d="M62.3,17.9 L60.9,17.5 L57.6,17.5 L53,16.5 L47.6,26.2 L23,26.2 C21.3,26.2 19.8,27.3 19.2,28.7 L14.2,28.7 L16.2,44 L13.7,44 L9.6,28.8 L7.5,31.8 L7.5,44 L5,44 L4,29.7 L5,23.6 L4,16.5 L4,9.3 C2.8,9.3 2,10.2 2,11.3 L2,28.6 L5.68434189e-14,28.6 L5.68434189e-14,11.3 C5.68434189e-14,9.1 1.8,7.2 4.1,7.2 L44.6,7.2 L50.3,6.3 L48.1,4.1 L50.1,4.1 C50.8,4.1 51.3,4.3 51.9,4.6 L53.6,5.7 L54,5.6 L53.3,4.1 C52.4,2.1 53.9,0 56.1,0 L61.8,0 L57.5,1.7 C56.7,2 56.3,3 56.6,3.8 L57.2,5 C58.2,4.9 58.9,5.1 59.4,5.9 L65.1,14.2 C65.6,14.9 65.6,15.9 65.1,16.6 L64.7,17 C64.1,17.7 63.2,18.1 62.3,17.9 Z" fill="#E19227"></path>
                        <path d="M59.6,30.3 L56,24.9 C55.6,24.3 55,24.1 54.3,24.2 L53.9,24.3 L53.2,23.5 C52.9,23.1 52.5,22.8 52,22.8 L51.5,22.8 L51.5,24.8 L46.2,25.9 L21.6,25.9 C20.4,25.9 19.1,26.8 19.1,28.4 L19.1,39.7 L20.7,39.7 L20.7,28.9 C20.7,28.2 21.3,27.7 21.9,27.7 L21.9,29.8 L23.1,36.1 L21.9,39.9 L23.4,48.7 L25.1,48.7 L24.5,41.6 L27.4,37.3 L37.3,38.7 L37.9,48.7 L39.6,48.7 L40.2,39.1 L41.6,39.3 L43.6,48.7 L45.3,48.7 L44.1,39.6 L51.3,32.6 C51.8,32.1 52.6,31.9 53.3,32.1 L55,32.6 C55.2,32.7 55.4,32.7 55.7,32.7 L58.5,32.7 C58.9,32.7 59.2,32.5 59.3,32.2 L59.7,31.4 C59.8,31 59.8,30.6 59.6,30.3 Z" fill="#FCD09A"></path>
                        <polygon fill="#FCD09A" points="25.9 39.8 29.6 48.6 31.3 48.6 28.8 40.5 29.8 37.8 27.3 37.4"></polygon>
                    </g>
                    <path d="M157.8,35.4 L156.3,35.4 L152.8,38.3 L145.3,40 L146.7,35.4 L148.3,31.6 L156.9,27.3 L156.6,26 L148.1,30 L145.5,33.3 L144.9,29.4 L145.4,24.6 L144.5,24.6 L143.8,29.3 L143.9,33.1 L139.9,29.6 L138.9,30.2 L144.2,35.4 L142,43.6 L142,50.5 L139.8,46.6 L138.8,39.5 L137.1,39.7 L137.7,47 L140.5,52.9 L140.2,56.4 C140.2,56.4 139.7,60.4 139.3,63.1 L144.6,63.1 L144.2,54.7 L144.8,49.6 L148.6,47.5 L151.7,43 L150.2,42.5 L148.1,46.3 L145.2,47.6 L145,41.6 L152.9,39.1 L157.8,35.4 Z" id="Path" stroke="#010101" fill="#9E8F83"></path>
                    <polygon id="Path" stroke="#010101" fill="#9E8F83" points="22.8 38.9 20.9 48.6 17.6 53.7 18.2 44.2 15.8 32.8 23.5 26.1 22.3 25.2 16.5 29.6 17 24.5 16.5 17.9 15.3 17.9 15.7 24.5 14.5 29.8 11.2 25 6.5 14.8 6 16.5 10.9 27.1 12.8 32.4 14.4 38.9 6.6 32.5 2.1 28.2 5.68434189e-14 28.1 6 33.8 14.2 41.3 13.4 49.5 11.1 46.7 7.8 41.6 6.3 41.8 10.2 48.3 13.5 52.3 13.8 56.6 13.8 69 19.6 69 17.6 59.1 22.2 51.9 23.7 49.4 25.2 39.4"></polygon>
                </g>
                <g id="Group" transform="translate(660.400000, 167.300000)" fill-rule="nonzero" stroke-width="0.5">
                    <path d="M66.7,116.3 L71.1,116.3 L70.7,115.1 L67.2,115.4 L63.1,111.9 L67,109.1 L72.2,113.2 L76.8,114.6 L76.1,113.6 L72.6,112.6 L68.1,108.4 L71.8,107.3 L75,106.7 L81.7,110.5 L82.4,109.8 L76,106 L72.7,105.7 L75,103.6 L77.3,100.4 L76.9,99.8 L74.6,102.7 L72.2,104.4 L72.8,100.2 L76.3,93.8 L75.6,93.3 L72,99.8 L70.9,105.6 L64.5,107.8 L59.9,110.9 L61.5,107.7 L66.1,101.1 L65.2,100 L60.3,106.5 L57.7,111 L55.2,112.4 C55.2,112.4 51.6,114.2 49.8,115.1 L51.6,118.1 L56.2,115.3 L61,117 L62,116.1 L58.2,114.2 L61.9,112.3 L66.7,116.3 Z" id="Path" stroke="#010101" fill="#9E8F83"></path>
                    <g transform="translate(11.000000, 38.400000)" stroke="#000000">
                        <path d="M61.3,40.4 L39.6,1.8 C39.3,1.2 39.7,0.5 40.3,0.5 L48.5,0 C48.8,0 49.2,0.2 49.3,0.4 L67.4,32.6 C67.6,32.9 67.5,33.3 67.4,33.5 L62.7,40.3 C62.4,41 61.6,40.9 61.3,40.4 Z" id="Path" fill="#E19227"></path>
                        <polygon id="Path" fill="#FCD09A" points="57.6 37.4 55.2 33 51 35.4 53.4 39.8"></polygon>
                        <polygon id="Path" fill="#FCD09A" points="48.7 42.4 46.3 38 36.2 43.7 38.6 48.1"></polygon>
                        <polygon id="Path" fill="#FCD09A" points="42.7 10.9 40.2 6.5 36 8.9 38.5 13.3"></polygon>
                        <polygon id="Path" fill="#FCD09A" points="33.8 15.9 31.3 11.5 21.2 17.2 23.7 21.6"></polygon>
                        <path d="M33.3,42.1 L38,50.5 L33.5,53 C31.9,50.1 30.4,47.5 28.8,44.6 L33.3,42.1 Z M27.1,31.2 L32.4,40.6 L27.9,43.1 C26.1,39.9 24.5,37 22.6,33.7 L27.1,31.2 Z M20.7,19.9 L26.2,29.7 L21.7,32.2 C20.9,30.8 17,23.8 16.2,22.4 L20.7,19.9 Z M16.7,12.7 L19.9,18.3 L15.4,20.8 L11.8,14.4 L15.5,12.3 C15.9,12.1 16.5,12.3 16.7,12.7 Z M2.9,27.1 L0.1,22.1 C-0.1,21.7 -3.99680289e-15,21.1 0.4,20.9 L4.1,18.8 L7.4,24.6 L2.9,27.1 Z M5.7,17.9 L10.2,15.4 C12.4,19.4 14.4,22.9 16.6,26.8 L12.1,29.3 C9.8,25.3 7.7,21.4 5.7,17.9 Z M10.1,39.9 L3.8,28.7 L8.3,26.2 C9.2,27.8 13.7,35.8 14.6,37.4 L10.1,39.9 Z M13,30.9 L17.5,28.4 C19.7,32.4 21.7,35.8 23.9,39.8 L19.4,42.3 C17,38 15.3,35 13,30.9 Z M16.1,50.5 L10.9,41.3 L15.4,38.8 C17.3,42.1 18.7,44.6 20.6,48 L16.1,50.5 Z M20.3,43.9 L24.8,41.4 C26.5,44.4 27.6,46.4 29.6,49.9 L25.1,52.4 C23.4,49.3 22,46.8 20.3,43.9 Z M21.2,59.7 L16.9,52.1 L21.4,49.6 C21.7,50.2 25.8,57.5 25.7,57.2 L21.2,59.7 Z M23.5,63.7 L22.1,61.3 L26.6,58.8 L28.4,62 L24.7,64.1 C24.2,64.2 23.7,64.1 23.5,63.7 Z M30,61 C29.8,60.7 25.8,53.5 26,53.9 L30.5,51.4 C30.6,51.5 34.6,58.7 34.5,58.5 L30,61 Z M36,57.6 L34.3,54.6 L38.8,52.1 L40,54.3 C40.2,54.7 40.1,55.3 39.7,55.5 L36,57.6 Z" id="Shape" fill="#FFFFFF"></path>
                        <path d="M51.8,54 L49.6,50.1 L54.6,47.3 C55,47.1 55.2,46.5 54.9,46.1 L46.9,31.8 L47.9,31.3 C48.8,30.8 49.1,29.7 48.6,28.9 L42.2,17.6 C41.7,16.7 40.6,16.4 39.8,16.9 L38.8,17.4 L32.4,6 C32.2,5.6 31.6,5.4 31.2,5.7 C30.8,6 30.6,6.5 30.9,6.9 L37.3,18.3 L36.3,18.8 C35.4,19.3 35.1,20.4 35.6,21.2 L39.7,28.6 L45.1,25.6 L46,27.1 L40.6,30.1 L41.9,32.5 C42.4,33.4 43.5,33.7 44.3,33.2 L45.3,32.7 L52.9,46.2 L47.9,49 C47.5,49.2 47.3,49.8 47.6,50.2 L50.2,54.9 C50.4,55.3 51,55.5 51.4,55.2 C51.9,55 52,54.4 51.8,54 Z M39,24.5 L38.1,23 L42.2,20.7 L43.1,22.2 L39,24.5 Z" id="Shape" fill="#FFFFFF"></path>
                        <polygon id="Path" fill="#FFFFFF" points="40.6 30.2 39.7 28.7 30.6 33.8 31.5 35.3"></polygon>
                    </g>
                    <polygon id="Path" stroke="#010101" fill="#9E8F83" points="30.5 26.2 21.2 29.4 15.1 29.1 23.6 24.8 32.3 17.1 42 20.4 42.1 18.9 35.4 16.1 40.1 14 45.5 10.3 45 9.2 39.4 12.8 34.3 14.5 36.7 9.2 43.3 0 41.6 0.4 34.7 10 31.1 14.3 26.3 18.9 28 9 29.4 2.9 28.5 1 26.5 9.1 24.2 20 16.6 23.3 17.9 20 20.6 14.6 19.8 13.4 16.1 20 14.3 24.9 10.7 27.2 -1.13686838e-13 33.4 2.9 38.4 10.4 31.8 19 32.2 21.9 32.2 31.3 28.5"></polygon>
                </g>
            </g>
        </g>
    </g>
</svg>