<?xml version="1.0" encoding="UTF-8"?>
<svg width="100px" height="100px" viewBox="0 0 100 100" version="1.1" xmlns="http://www.w3.org/2000/svg" xmlns:xlink="http://www.w3.org/1999/xlink">
    <title>disaster2</title>
    <g id="Page-1" stroke="none" stroke-width="1" fill="none" fill-rule="evenodd">
        <g id="disaster2" fill-rule="nonzero">
            <path d="M75.7,42.6 L81.7,43 L82.9,43.6 C82.9,43.4 82.3,38.8 82.3,39 L75.2,40 L71.2,40.6 L71.4,40.8 L73.3,42.9 L75.7,42.6 Z" id="Path" fill="#CCCCCC"></path>
            <path d="M70.5,39.5 L70.7,39.9 L74,39.5 L84.3,38 L89.3,38 L89.7,37.6 L84.7,34.1 L77,31.1 L74.3,30.1 C74.1,30.5 72.2,32.6 72.2,32.8 C72.2,33 72.6,35.1 72.6,35.1 C72.4,35.3 70.3,39.7 70.5,39.5 Z" id="Path" fill="#CCCCCC"></path>
            <path d="M35.2,44.3 C35.2,44.1 36,41.8 36.4,40.8 L33.5,40.8 L26.6,39.1 L24.3,38.3 L21.8,38.5 L18.5,38.9 L23.3,42 L21.6,46 L20.6,48.3 C20.8,48.3 31.4,50.4 30.8,50.2 L33.9,49 C33.9,48.9 35.2,44.5 35.2,44.3 Z" id="Path" fill="#CCCCCC"></path>
            <path d="M53.7,42.8 C53.9,43 57.4,44.7 57.4,44.7 L62,48.9 L62.8,50.6 L67.6,48.5 L70.5,47.5 L72.4,44.8 C70.1,41.3 71.2,42.7 69.5,40.6 L53.1,41.4 C53.3,42 53.5,42.8 53.7,42.8 Z" id="Path" fill="#CCCCCC"></path>
            <path d="M23.3,37.2 L22.1,31.8 L17.5,28.5 L14.8,30 L13.1,33.3 L15.6,36.4 L18.1,38.1 C18.3,38 23.5,37.2 23.3,37.2 Z" id="Path" fill="#CCCCCC"></path>
            <path d="M87.2,49.5 C86.6,49.1 84.9,48.5 84.5,48.5 C83.9,48.3 82.2,47.3 82.2,47.3 L81.8,45 C81.8,45 82.2,44.6 82.4,44.4 L80.3,43.6 L74.5,43.6 L73.9,44.4 L73.9,47.7 L73.5,48.5 L67,49.9 L64.8,50.7 L85.8,50.7 L87.2,49.5 Z" id="Path" fill="#CCCCCC"></path>
            <path d="M95.5,33 L96.3,31.5 C95.6,29.7 94.7,27.9 93.8,26.1 L72.6,26.1 L72,27.8 C72,28 77,30.1 77.2,30.3 C77.4,30.5 84.9,33.2 84.9,33.2 C84.9,33.2 86.1,33.8 87,34.2 L95.5,33 Z" id="Path" fill="#CCCCCC"></path>
            <path d="M56.8,45.9 L56,45.3 L50.6,47.2 C50.6,47.2 49.5,49.7 49.2,50.7 L61.6,50.7 C60.6,49.8 56.4,45.7 56.8,45.9 Z" id="Path" fill="#CCCCCC"></path>
            <path d="M19.3,48 L21.6,44.3 L21.8,41.8 L16.8,39.1 L10.6,42.4 L11,44.7 L7.7,47.4 C9.8,47.6 14.8,48 14.4,48 C14.4,48 19.3,48 19.3,48 Z" id="Path" fill="#CCCCCC"></path>
            <polygon id="Path" fill="#CCCCCC" points="99.7 47.4 94.9 48 91.3 48.9 87.8 50.7 99.7 50.7"></polygon>
            <polygon id="Path" fill="#CCCCCC" points="25.8 50.3 19.8 49.3 14.4 49.3 14.6 50.7 27.6 50.7"></polygon>
            <path d="M97.8,35.8 L94.2,36.6 L90.9,37.9 L91.3,38.3 L94.8,39.6 C94.8,39.6 95,42.1 95.4,43.4 C95.8,44.2 96.9,46.1 97.3,46.9 L99.7,46.7 C99.5,42.8 98.8,39.2 97.8,35.8 Z" id="Path" fill="#CCCCCC"></path>
            <path d="M96.5,35.3 L95.9,33.6 L89.9,34.2 L88,34.7 C88,34.9 89.9,36.4 90.7,37 L92.6,36 L96.5,35.3 Z" id="Path" fill="#CCCCCC"></path>
            <path d="M83.8,47.2 L86.3,48 L88.8,49 L91.1,47.8 L95.3,46.8 L95.7,46.8 L94.2,43.3 L93.4,39.8 L92.2,39.2 L90.7,38.8 L83.2,39.2 L83.6,41.1 L83.8,43.4 C83.6,43.6 82.3,45.3 82.6,45.1 L83.8,47.2 Z" id="Path" fill="#CCCCCC"></path>
            <path d="M4.8,49.3 L3.6,50.8 L11.7,50.8 L10.5,49.3 C9.8,49.3 4.6,49.3 4.8,49.3 Z" id="Path" fill="#CCCCCC"></path>
            <path d="M5.9,26.4 C4.8,28.5 3.8,30.7 3,33 C4.3,32.4 5.6,31.8 5.6,31.8 L12,32 L14.7,28.3 L16.6,27.7 L18.5,27.1 C19.1,27.1 24.1,30.2 24.1,30.2 L25,37 L27.1,36.6 L34.2,35.3 L36.1,32.6 L31.7,28.8 L38.1,26.3 L5.9,26.3 L5.9,26.4 Z" id="Path" fill="#CCCCCC"></path>
            <path d="M0.9,50.7 L4,47.8 L5.5,47.6 L8.4,44.1 L9.2,41.4 L15,38.5 L15.4,38.5 C15,37.9 12.7,36.2 11.4,33.7 C11.4,33.5 8.9,32.7 8.9,32.7 L5,32.7 L2.5,34.6 C0.9,39.4 0,44.6 0,50 C0,50.2 0,50.5 0,50.7 L0.9,50.7 Z" id="Path" fill="#CCCCCC"></path>
            <polygon id="Path" fill="#CCCCCC" points="40.4 26.8 33.3 28.6 36.2 32.4 40.4 30.9"></polygon>
            <path d="M46.9,27.1 L47.5,26.5 C47.6,26.4 47.7,26.4 47.8,26.3 L47,26.3 L46.9,27.1 L46.9,27.1 Z" id="Path" fill="#CCCCCC"></path>
            <path d="M38.5,45.6 C39.4,43.8 40.1,41.9 40.6,39.9 C41.2,37.5 41.5,35.1 41.5,32.7 L41.5,24.6 C41.5,24.4 41.4,24.3 41.3,24.1 L37.7,19.8 L35.2,16.8 L35.6,15.1 L40.4,19.3 C40.7,19.6 41.1,19.5 41.4,19.2 C41.5,19.1 41.6,18.9 41.6,18.7 L41.6,8.4 C41.6,8.1 41.8,7.8 42.1,7.7 L44.9,6.6 C45.3,6.5 45.7,6.6 45.8,7 C45.8,7.1 45.8,7.2 45.8,7.2 L45.8,28.2 C45.8,28.6 46.1,28.9 46.5,28.9 C46.7,28.9 46.9,28.8 47,28.7 L48.3,27.4 C48.6,27.1 49,27.1 49.3,27.4 C49.4,27.5 49.5,27.7 49.5,27.9 C49.5,28.1 49.4,28.3 49.3,28.4 L46,31.9 C45.9,32 45.8,32.2 45.8,32.4 L45.8,32.7 C45.8,37.2 46.9,41.6 48.9,45.6 C48.9,45.6 38.5,45.6 38.5,45.6 Z" id="Path" fill="#D9F1F0"></path>
            <g id="Group" transform="translate(52.900000, 28.500000)" fill="#CCCCCC">
                <path d="M17.7,5.1 L4.5,5.1 L5.4,3.5 L-7.10542736e-15,5.3 L2.1,9.3 C1.9,9.5 0.2,11.4 0.4,11.2 C0.6,11.2 17,10.8 16,10.8 L16.8,8.7 C17.2,7 17.5,5.9 17.7,5.1 Z" id="Path"></path>
                <path d="M16.3,0.9 C16.7,1.7 17.2,2.5 17.7,3.3 L18.1,3.8 C18.4,2.9 18.8,2.6 20.1,1 L17.6,-7.10542736e-15 L16.3,0.9 Z" id="Path"></path>
            </g>
            <path d="M62.4,23.7 L62.4,23.5 C62.4,23.4 62.3,23.2 62.2,23.2 L58.9,20.9 C58.8,20.8 58.7,20.7 58.7,20.6 C58.7,20.5 58.8,20.3 58.9,20.3 C59.2,20.1 59.6,20.1 59.9,20.3 L61.2,21.2 C61.3,21.3 61.5,21.3 61.7,21.3 C62.1,21.3 62.4,21.1 62.4,20.8 L62.4,6.2 C62.4,6.1 62.4,6.1 62.4,6 C62.5,5.7 62.9,5.6 63.3,5.7 L66.1,6.4 C66.4,6.5 66.6,6.7 66.6,6.9 L66.6,14 C66.6,14.1 66.7,14.2 66.8,14.3 C67.1,14.5 67.5,14.5 67.8,14.3 L72.6,11.4 L73,12.6 L70.5,14.7 L66.9,17.7 C66.8,17.8 66.7,17.9 66.7,18 L66.7,23.6 C66.7,25.3 67,27 67.6,28.6 C68.1,30 68.8,31.3 69.7,32.5 L59.3,32.5 C59.3,32.5 62.4,26.8 62.4,23.7 Z" id="Path" fill="#D9F1F0"></path>
            <g id="Group" transform="translate(38.100000, 30.600000)" fill="#CCCCCC">
                <path d="M2.1,1.4 L7.10542736e-15,2.2 L2.3,2.7 C2.3,2.5 2.3,2.3 2.3,2.1 L2.3,1.3 L2.1,1.4 Z" id="Path"></path>
                <path d="M15.6,1.4 L10.7,0 L8.9,1.9 L8.9,2 C8.9,2.6 8.9,3.1 9,3.7 L13.8,2.4 L15.9,1.6 L15.6,1.4 Z" id="Path"></path>
            </g>
            <g id="Group" transform="translate(26.600000, 33.400000)" fill="#CCCCCC">
                <path d="M25,0.9 L20.6,2.1 L20.5,2.1 C20.7,3.6 21,5.1 21.4,6.6 L25.7,6.3 L26.7,4.2 L25,0.9 Z" id="Path"></path>
                <path d="M12.9,6.2 C13.3,4.4 13.6,2.7 13.7,0.9 L10.4,7.10542736e-15 L9.2,2.9 L4.6,3.6 L0,4.2 L8.3,6.1 L12.7,6.8 C12.8,6.6 12.8,6.4 12.9,6.2 Z" id="Path"></path>
            </g>
            <g id="Group" transform="translate(31.300000, 40.800000)" fill="#CCCCCC">
                <path d="M18.6,4.3 L18.9,4.9 L22.2,3.1 L20.9,2.2 L20.7,0.6 L17,0.4 C17.4,1.7 18,3 18.6,4.3 Z" id="Path"></path>
                <path d="M5.4,5.9 L6.2,4.3 C6.9,2.9 7.4,1.5 7.9,0 L7.2,0 L6.4,2.2 L5.4,5.5 L3.5,8.8 L7.10542736e-15,9.2 L2.7,9.8 L15.5,9.8 L17.1,5.8 L17.2,5.7 L5.4,5.7 L5.4,5.9 Z" id="Path"></path>
            </g>
            <g id="Group" transform="translate(49.500000, 26.300000)" fill="#CCCCCC">
                <path d="M19.1,1.7 L21,1 L22,3.55271368e-15 L18.6,3.55271368e-15 C18.8,0.6 18.9,1.2 19.1,1.7 Z" id="Path"></path>
                <path d="M9.7,4 C10.2,2.8 10.9,1.4 11.3,0.1 L0.3,0.1 C0.4,0.2 0.5,0.2 0.6,0.3 C0.9,0.6 1.1,1.1 1.1,1.6 C1.1,2.1 0.9,2.6 0.6,2.9 L0,3.6 L3.2,4.7 L5.1,5.7 L9.7,4 L9.7,4 Z" id="Path"></path>
            </g>
            <path d="M67.8,92.4 L66,91.2 C63.9,89.8 60.2,89.8 58.1,91.2 L56.4,92.4 C54.8,93.5 52.7,94.1 50.4,94.1 C48.1,94.1 46,93.5 44.4,92.4 L42.7,91.2 C40.6,89.8 36.9,89.8 34.8,91.2 L33,92.4 C31.4,93.5 29.3,94.1 27,94.1 C26.7,94.1 26.5,94.1 26.2,94.1 C27.9,95 29.7,95.8 31.5,96.6 L32.6,95.9 C34.2,94.8 36.3,94.2 38.6,94.2 C40.9,94.2 43,94.8 44.6,95.9 L46.3,97.1 C48.4,98.5 52.1,98.5 54.2,97.1 L55.9,95.9 C57.5,94.8 59.6,94.2 61.9,94.2 C64.2,94.2 66.3,94.8 67.9,95.9 L68.6,96.4 C70.2,95.7 71.8,95 73.3,94.2 C71.4,94 69.3,93.4 67.8,92.4 Z" id="Path" fill="#CCCCCC"></path>
            <path d="M81.5,85.2 L79.8,86.4 C78.2,87.5 76.1,88.1 73.8,88.1 C71.5,88.1 69.4,87.5 67.8,86.4 L66,85.2 C63.9,83.8 60.2,83.8 58.1,85.2 L56.4,86.4 C54.8,87.5 52.7,88.1 50.4,88.1 C48.1,88.1 46,87.5 44.4,86.4 L42.7,85.2 C40.6,83.8 36.9,83.8 34.8,85.2 L33,86.4 C31.4,87.5 29.3,88.1 27,88.1 C24.7,88.1 22.6,87.5 21,86.4 L19.3,85.2 C17.8,84.2 15.6,83.9 13.6,84.3 C14.9,85.7 16.4,87.1 17.9,88.3 C19.2,88.6 20.4,89.1 21.4,89.7 L23.1,90.9 C25.2,92.3 28.9,92.3 31,90.9 L32.7,89.7 C34.3,88.6 36.4,88 38.7,88 C41,88 43.1,88.6 44.7,89.7 L46.4,90.9 C48.5,92.3 52.2,92.3 54.3,90.9 L56,89.7 C57.6,88.6 59.7,88 62,88 C64.3,88 66.4,88.6 68,89.7 L69.7,90.9 C71.8,92.3 75.5,92.3 77.6,90.9 L79.3,89.7 C79.9,89.3 80.6,88.9 81.4,88.7 C83.1,87.3 84.7,85.8 86.3,84.1 C84.6,84 82.8,84.3 81.5,85.2 Z" id="Path" fill="#CCCCCC"></path>
            <path d="M89.4,79.6 C87.3,78.2 83.6,78.2 81.5,79.6 L79.8,80.8 C78.2,81.9 76.1,82.5 73.8,82.5 C71.5,82.5 69.4,81.9 67.8,80.8 L66,79.6 C63.9,78.2 60.2,78.2 58.1,79.6 L56.4,80.8 C54.8,81.9 52.7,82.5 50.4,82.5 C48.1,82.5 46,81.9 44.4,80.8 L42.7,79.6 C40.6,78.2 36.9,78.2 34.8,79.6 L33,80.7 C31.4,81.8 29.3,82.4 27,82.4 C24.7,82.4 22.6,81.8 21,80.7 L19.3,79.5 C17.2,78.1 13.5,78.1 11.4,79.5 L10.3,80.3 C11,81.2 11.6,82 12.3,82.8 C13.3,82.5 14.3,82.4 15.4,82.4 C17.7,82.4 19.8,83 21.4,84.1 L23.1,85.3 C25.2,86.7 28.9,86.7 31,85.3 L32.7,84.1 C34.3,83 36.4,82.4 38.7,82.4 C41,82.4 43.1,83 44.7,84.1 L46.4,85.3 C48.5,86.7 52.2,86.7 54.3,85.3 L56,84.1 C57.6,83 59.7,82.4 62,82.4 C64.3,82.4 66.4,83 68,84.1 L69.7,85.3 C71.8,86.7 75.5,86.7 77.6,85.3 L79.3,84.1 C80.9,83 83,82.4 85.3,82.4 C86.1,82.4 86.8,82.5 87.6,82.6 C88.4,81.7 89.1,80.8 89.8,79.9 L89.4,79.6 Z" id="Path" fill="#CCCCCC"></path>
            <path d="M40,65.5 L41.8,65.5 L41.8,71.9 C42.3,72.1 42.9,72.3 43.3,72.6 L45,73.8 C46,74.5 47.2,74.9 48.6,75.1 L48.6,69.7 C48.6,69.4 48.8,69.2 49.1,69.2 L52.8,69.2 C53.1,69.2 53.3,69.4 53.3,69.7 L53.3,74.9 C54.3,74.6 55.1,74.3 55.9,73.8 L57.6,72.6 C58.3,72.1 59.2,71.8 60.1,71.6 L60.1,65.5 L61.9,65.5 C62.9,65.5 63.4,64.3 62.7,63.6 L51.7,52.7 C51.2,52.3 50.5,52.3 50.1,52.7 L39.2,63.6 C38.6,64.3 39.1,65.5 40,65.5 Z" id="Path" fill="#D9F1F0"></path>
            <path d="M89.4,73.6 C87.3,72.2 83.6,72.2 81.5,73.6 L79.8,74.8 C78.2,75.9 76.1,76.5 73.8,76.5 C71.5,76.5 69.4,75.9 67.8,74.8 L66,73.6 C63.9,72.2 60.2,72.2 58.1,73.6 L56.4,74.8 C54.8,75.9 52.7,76.5 50.4,76.5 C48.1,76.5 46,75.9 44.4,74.8 L42.7,73.6 C40.6,72.2 36.9,72.2 34.8,73.6 L33,74.7 C31.4,75.8 29.3,76.4 27,76.4 C24.7,76.4 22.6,75.8 21,74.7 L19.3,73.5 C17.2,72.1 13.5,72.1 11.4,73.5 L7.5,76.2 C8,76.9 8.4,77.7 8.9,78.4 L9.3,78.1 C10.9,77 13,76.4 15.3,76.4 C17.6,76.4 19.7,77 21.3,78.1 L23,79.3 C25.1,80.7 28.8,80.7 30.9,79.3 L32.6,78.1 C34.2,77 36.3,76.4 38.6,76.4 C40.9,76.4 43,77 44.6,78.1 L46.3,79.3 C48.4,80.7 52.1,80.7 54.2,79.3 L55.9,78.1 C57.5,77 59.6,76.4 61.9,76.4 C64.2,76.4 66.3,77 67.9,78.1 L69.6,79.3 C71.7,80.7 75.4,80.7 77.5,79.3 L79.2,78.1 C80.8,77 82.9,76.4 85.2,76.4 C87.4,76.4 89.4,77 91,78 C91.5,77.3 92,76.5 92.4,75.8 L89.4,73.6 Z" id="Path" fill="#CCCCCC"></path>
        </g>
    </g>
</svg>