<?xml version="1.0" encoding="utf-8"?>
<!-- Generator: Adobe Illustrator 25.3.1, SVG Export Plug-In . SVG Version: 6.00 Build 0)  -->
<svg version="1.1" id="Layer_1" xmlns="http://www.w3.org/2000/svg" xmlns:xlink="http://www.w3.org/1999/xlink" x="0px" y="0px"
	 viewBox="0 0 100 100" style="enable-background:new 0 0 100 100;" xml:space="preserve">
<style type="text/css">
	.st0{fill:#888888;}
	.st1{fill:#E19227;}
	.st2{fill:#FCD09A;}
	.st3{fill:#FFFFFF;}
</style>
<g>
	<circle class="st0" cx="50" cy="50" r="50"/>
	<path class="st1" d="M79.1,47.2c2-2,5.5-1.9,7.1-1.8c0.1,1.5,0.2,5.1-1.8,7.1s-5.5,1.9-7.1,1.8C77.2,52.7,77.1,49.2,79.1,47.2z"/>
	<path class="st1" d="M74.8,59.4c-1.5,0.1-5.1,0.2-7.1-1.8s-1.9-5.5-1.8-7.1c1.5-0.1,5.1-0.2,7.1,1.8C75,54.3,74.9,57.9,74.8,59.4z"
		/>
	<path class="st1" d="M78.9,31.1c2-2,5.5-1.9,7.1-1.8c0.1,1.5,0.2,5.1-1.8,7.1s-5.5,1.9-7.1,1.8c0-0.4-0.1-0.9,0-1.4v-0.1
		C77,35,77.4,32.6,78.9,31.1z"/>
	<path class="st1" d="M72.3,20.3c0-2.8,2.6-5.3,3.7-6.3c1.2,1,3.7,3.5,3.7,6.3s-2.6,5.3-3.7,6.3C74.9,25.5,72.3,23.1,72.3,20.3z"/>
	<path class="st1" d="M74.6,43.2c-1.5,0.1-5.1,0.2-7.1-1.8s-1.9-5.5-1.8-7.1c1.5-0.1,5.1-0.2,7.1,1.8C74.8,38.1,74.7,41.7,74.6,43.2
		z"/>
	<path class="st2" d="M53.2,47.2c2-2,5.5-1.9,7.1-1.8c0.1,1.5,0.2,5.1-1.8,7.1s-5.5,1.9-7.1,1.8C51.3,52.7,51.2,49.2,53.2,47.2z"/>
	<path class="st2" d="M48.9,59.4c-1.5,0.1-5.1,0.2-7.1-1.8s-1.9-5.5-1.8-7.1c1.5-0.1,5.1-0.2,7.1,1.8S49,57.9,48.9,59.4z"/>
	<path class="st2" d="M52.9,31.1c2-2,5.5-1.9,7.1-1.8c0.1,1.5,0.2,5.1-1.8,7.1s-5.5,1.9-7.1,1.8c0-0.4-0.1-0.9,0-1.4v-0.1
		C51.1,35,51.5,32.6,52.9,31.1z"/>
	<path class="st2" d="M46.4,20.3c0-2.8,2.6-5.3,3.7-6.3c1.2,1,3.7,3.5,3.7,6.3s-2.6,5.3-3.7,6.3C49,25.5,46.4,23.1,46.4,20.3z"/>
	<path class="st2" d="M48.7,43.2c-1.5,0.1-5.1,0.2-7.1-1.8s-1.9-5.5-1.8-7.1c1.5-0.1,5.1-0.2,7.1,1.8C48.8,38.1,48.8,41.7,48.7,43.2
		z"/>
	<path class="st1" d="M27.3,47.2c2-2,5.5-1.9,7.1-1.8c0.1,1.5,0.2,5.1-1.8,7.1s-5.5,1.9-7.1,1.8C25.3,52.7,25.3,49.2,27.3,47.2z"/>
	<path class="st1" d="M23,59.4c-1.5,0.1-5.1,0.2-7.1-1.8s-1.9-5.5-1.8-7.1c1.5-0.1,5.1-0.2,7.1,1.8S23.1,57.9,23,59.4z"/>
	<path class="st1" d="M27,31.1c2-2,5.5-1.9,7.1-1.8c0.1,1.5,0.2,5.1-1.8,7.1s-5.5,1.9-7.1,1.8c0-0.3,0-0.7,0-1.2v-0.4
		C25.2,34.9,25.6,32.6,27,31.1z"/>
	<path class="st1" d="M20.5,20.3c0-2.8,2.6-5.3,3.7-6.3c1.2,1,3.7,3.5,3.7,6.3s-2.6,5.3-3.7,6.3C23.1,25.5,20.5,23.1,20.5,20.3z"/>
	<path class="st1" d="M22.8,43.2c-1.5,0.1-5.1,0.2-7.1-1.8s-1.9-5.5-1.8-7.1c1.5-0.1,5.1-0.2,7.1,1.8C22.9,38.1,22.9,41.7,22.8,43.2
		z"/>
	<path class="st1" d="M25.2,64.6V25.4c0-0.3-0.4-0.5-1-0.5c-0.5,0-1,0.2-1,0.5v39.2c0,0.3,0.4,0.5,1,0.5
		C24.8,65.1,25.2,64.9,25.2,64.6z"/>
	<path class="st2" d="M51,64.6V25.4c0-0.3-0.4-0.5-1-0.5c-0.5,0-1,0.2-1,0.5v39.2c0,0.3,0.4,0.5,1,0.5S51,64.9,51,64.6z"/>
	<path class="st1" d="M77,64.6V25.4c0-0.3-0.4-0.5-1-0.5c-0.5,0-1,0.2-1,0.5v39.2c0,0.3,0.4,0.5,1,0.5S77,64.9,77,64.6z"/>
	<path class="st3" d="M4.9,71.5h90.3c1-2.1,1.9-4.3,2.6-6.5H2.3C3,67.2,3.9,69.4,4.9,71.5z"/>
	<path class="st2" d="M9.8,79.6h80.6c1.5-2.1,2.9-4.3,4.1-6.5H5.7C6.9,75.4,8.2,77.6,9.8,79.6z"/>
	<path class="st2" d="M29.9,95.8h40.2c3.9-1.7,7.6-4,10.9-6.6H19.1C22.4,91.8,26,94.1,29.9,95.8z"/>
	<path class="st3" d="M11,81.3c1.9,2.4,4,4.6,6.3,6.5h65.5c2.3-2,4.4-4.2,6.3-6.5H11z"/>
</g>
</svg>
