<?xml version="1.0" encoding="UTF-8"?>
<svg width="101px" height="101px" viewBox="0 0 101 101" version="1.1" xmlns="http://www.w3.org/2000/svg" xmlns:xlink="http://www.w3.org/1999/xlink">
    <title>poverty</title>
    <g id="Page-1" stroke="none" stroke-width="1" fill="none" fill-rule="evenodd">
        <g id="poverty" fill-rule="nonzero">
            <g id="Group" transform="translate(33.500000, 39.900020)" fill="#EEEEEE">
                <path d="M26.5,9.8 C26.5,4.4 22.1,0 16.7,0 C11.3,0 6.9,4.4 6.9,9.8 L6.9,9.8 C6.9,15.2 11.3,19.6 16.7,19.6 C22.1,19.6 26.5,15.2 26.5,9.8 Z" id="Path"></path>
                <path d="M19.6,25.7 C18.1,26 16.9,26.9 16,28.2 C15.8,28.6 15.5,29 15.3,29.3 C15.9,30 16.4,30.9 16.6,31.8 C17.5,28.4 21,26.5 24.4,27.4 C26.3,27.9 27.9,29.4 28.6,31.2 C30.9,31.5 33,29.8 33.3,27.5 C33.3,25.7 33.2,23.9 33,22.1 L31.1,20.9 L32.4,18.2 C32.1,16.8 31.7,15.3 31.3,13.9 C30.7,12.2 29.5,10.7 27.8,10 C27.6,16.2 22.5,21.1 16.3,20.9 C10.4,20.7 5.6,16 5.4,10 C3.7,10.8 2.5,12.2 1.9,13.9 C1.5,15.1 1.2,16.3 1,17.5 L2.8,19.6 L1.3,20.3 L2,22.2 L0.1,23.9 C0,25.1 0,26.3 0,27.5 C0.3,29.8 2.4,31.5 4.7,31.2 C6,27.9 9.6,26.3 12.9,27.6 C13.4,27.8 13.9,28 14.3,28.4 C14.7,27.7 15.2,26.9 15.7,26.2 C12.5,25.2 9.1,24.9 5.7,25.6 C5.8,23.3 6.1,20.9 6.6,18.6 L8,18.8 C7.6,20.5 7.3,22.2 7.2,23.9 C10.4,23.6 13.6,24 16.7,25 C19.7,23.9 23,23.5 26.2,23.9 C26,22.2 25.8,20.5 25.4,18.8 L26.8,18.6 C27.3,20.9 27.6,23.2 27.7,25.6 C25,25.1 22.3,25.1 19.6,25.7 L19.6,25.7 Z" id="Path"></path>
                <path d="M26.3,42.3 L27.3,41.4 L26,39.5 L27.6,38.8 L27.6,33.6 C27.6,30.9 25.4,28.7 22.7,28.7 C20,28.7 17.8,30.9 17.8,33.6 L17.8,46.4 C17.8,49.1 20,51.3 22.7,51.3 C25.4,51.3 27.6,49.1 27.6,46.4 L27.6,45.4 L26.3,42.3 Z" id="Path"></path>
                <path d="M5.7,33.5 L5.7,38.8 L7.6,40.4 L7,41.3 L7.9,43 L5.7,45 L5.7,46.4 C5.8,49.1 8,51.3 10.7,51.2 C13.3,51.1 15.5,49 15.5,46.4 L15.5,33.6 C15.4,30.9 13.2,28.7 10.5,28.8 C7.9,28.8 5.8,30.9 5.7,33.5 Z" id="Path"></path>
            </g>
            <path d="M55.4,27.3 C55,27.6 54.9,28.2 55.2,28.6 C55.3,28.7 55.3,28.7 55.4,28.8 L57.2,30.1 C51.7,35.3 43.1,35.1 37.9,29.6 C32.7,24.1 32.9,15.5 38.4,10.3 C43.7,5.3 52,5.3 57.2,10.3 L55.4,11.6 C55,11.9 54.9,12.5 55.2,12.9 C55.3,13 55.3,13 55.4,13.1 L59.8,16.3 L55.4,19.5 C55,19.8 54.9,20.4 55.2,20.8 C55.3,20.9 55.3,20.9 55.4,21 L59.8,24.2 L55.4,27.3 Z" id="Path" fill="#D9F1F0"></path>
            <rect id="Rectangle" fill="#D9F1F0" x="60.4" y="13.6" width="1.7" height="1.7"></rect>
            <rect id="Rectangle" fill="#D9F1F0" x="63.8" y="17" width="1.7" height="1.7"></rect>
            <rect id="Rectangle" fill="#D9F1F0" x="57.9" y="9.3" width="1.7" height="1.7"></rect>
            <rect id="Rectangle" fill="#D9F1F0" x="59.6" y="19.5" width="1.7" height="1.7"></rect>
            <rect id="Rectangle" fill="#D9F1F0" x="64.7" y="21.2" width="1.7" height="1.7"></rect>
            <rect id="Rectangle" fill="#D9F1F0" x="61.3" y="24.6" width="1.7" height="1.7"></rect>
            <rect id="Rectangle" fill="#D9F1F0" x="58.8" y="28" width="1.7" height="1.7"></rect>
            <path d="M51.5,18.6 C51.6,18 51.6,17.3 51.3,16.8 C51.1,16.3 50.6,15.9 49.9,15.5 L50.1,14.9 L49.4,14.6 L49.2,15.2 C48.5,15 47.7,15 47.1,15.3 C46.5,15.6 46.1,16.1 45.7,16.8 C45.4,17.4 45.4,18.2 45.6,18.8 C45.8,19.4 46.2,20.1 47,20.6 L46,23.2 C45.8,23 45.7,22.8 45.6,22.5 C45.5,22.2 45.5,21.9 45.6,21.5 L43.9,21.1 C43.7,21.9 43.7,22.7 44,23.4 C44.3,24 44.7,24.5 45.5,24.9 L45.1,26 L46,26.3 L46.4,25.2 C47.2,25.3 48,25.3 48.7,24.9 C49.3,24.6 49.8,24 50.2,23.2 C50.5,22.5 50.5,21.9 50.3,21.3 C50.1,20.7 49.6,20.2 48.6,19.4 L49.5,17 C49.8,17.3 49.9,17.7 49.8,18.3 L51.5,18.6 Z M48.5,22.8 C48.4,23.1 48.2,23.3 47.9,23.5 C47.6,23.7 47.3,23.7 47,23.6 L47.9,21.2 C48.2,21.4 48.4,21.7 48.5,22 C48.6,22.2 48.6,22.4 48.5,22.8 Z M47.7,18.8 C47.5,18.6 47.3,18.4 47.3,18.1 C47.2,17.9 47.3,17.6 47.3,17.4 C47.4,17.2 47.5,17 47.8,16.8 C48,16.7 48.3,16.7 48.5,16.7 L47.7,18.8 Z" id="Shape" fill="#4B978F"></path>
            <path d="M27.1,46.5 C27.1,47 27.5,47.4 28,47.5 C28.1,47.5 28.2,47.5 28.3,47.5 L30.4,46.9 C31,54.4 25.4,61 17.9,61.6 C10.4,62.2 3.8,56.6 3.2,49.1 C2.6,41.8 7.8,35.4 15.1,34.5 L15,36.7 C15,37.2 15.4,37.6 15.9,37.7 C16,37.7 16.1,37.7 16.2,37.7 L21.5,36.3 L21.2,41.8 C21.2,42.3 21.6,42.7 22.1,42.8 C22.2,42.8 22.3,42.8 22.4,42.8 L27.7,41.4 L27.1,46.5 Z" id="Path" fill="#CCCCCC"></path>
            <rect id="Rectangle" fill="#CCCCCC" transform="translate(20.868480, 33.985320) rotate(-51.007309) translate(-20.868480, -33.985320) " x="20.0185087" y="33.1353487" width="1.69994261" height="1.69994261"></rect>
            <rect id="Rectangle" fill="#CCCCCC" transform="translate(25.693440, 33.453260) rotate(-51.007309) translate(-25.693440, -33.453260) " x="24.8434687" y="32.6032887" width="1.69994261" height="1.69994261"></rect>
            <rect id="Rectangle" fill="#CCCCCC" transform="translate(15.628880, 32.139500) rotate(-51.007309) translate(-15.628880, -32.139500) " x="14.7789087" y="31.2895287" width="1.69994261" height="1.69994261"></rect>
            <rect id="Rectangle" fill="#CCCCCC" transform="translate(24.947160, 38.227960) rotate(-51.007309) translate(-24.947160, -38.227960) " x="24.0971887" y="37.3779887" width="1.69994261" height="1.69994261"></rect>
            <rect id="Rectangle" fill="#CCCCCC" transform="translate(29.490400, 35.458800) rotate(-51.007309) translate(-29.490400, -35.458800) " x="28.6404287" y="34.6088287" width="1.69994261" height="1.69994261"></rect>
            <rect id="Rectangle" fill="#CCCCCC" transform="translate(29.964840, 40.137140) rotate(-51.007309) translate(-29.964840, -40.137140) " x="29.1148687" y="39.2871687" width="1.69994261" height="1.69994261"></rect>
            <rect id="Rectangle" fill="#CCCCCC" transform="translate(30.956860, 44.259060) rotate(-51.007309) translate(-30.956860, -44.259060) " x="30.1068887" y="43.4090887" width="1.69994261" height="1.69994261"></rect>
            <path d="M17.9,44.1 C17.5,43.6 17,43.2 16.4,43.1 C15.9,42.9 15.2,43.1 14.6,43.4 L14.2,42.8 L13.5,43.2 L13.9,43.8 C13.3,44.2 12.8,44.8 12.7,45.5 C12.5,46.2 12.7,46.8 13,47.5 C13.3,48.1 13.9,48.6 14.5,48.8 C15.1,49 15.9,49.1 16.7,48.9 L18.1,51.4 C17.8,51.4 17.6,51.4 17.3,51.3 C17,51.2 16.7,51 16.5,50.6 L15.1,51.6 C15.6,52.3 16.2,52.7 17,53 C17.7,53.2 18.4,53.2 19.1,52.8 L19.7,53.8 L20.5,53.3 L19.9,52.3 C20.5,51.7 21,51.1 21.1,50.3 C21.3,49.6 21.1,48.8 20.7,48.1 C20.3,47.4 19.9,47.1 19.3,46.8 C18.7,46.6 17.9,46.6 16.8,46.9 L15.5,44.7 C15.9,44.7 16.3,44.8 16.7,45.2 L17.9,44.1 Z M19.2,49.1 C19.4,49.4 19.4,49.7 19.4,50 C19.4,50.4 19.2,50.6 18.9,50.8 L17.6,48.6 C18,48.5 18.3,48.5 18.6,48.6 C18.9,48.7 19,48.8 19.2,49.1 Z M15.7,47.1 C15.4,47.1 15.1,47.2 14.9,47 C14.7,46.9 14.5,46.7 14.3,46.5 C14.2,46.3 14.1,46.1 14.1,45.7 C14.2,45.5 14.3,45.2 14.5,45.1 L15.7,47.1 Z" id="Shape" fill="#4B978F"></path>
            <path d="M87.3,49.7 C86.9,50 86.8,50.6 87.1,51 C87.2,51.1 87.2,51.2 87.3,51.2 L89,52.5 C83.4,57.6 74.8,57.2 69.7,51.7 C64.6,46.2 65,37.5 70.5,32.4 C75.9,27.5 84.1,27.6 89.3,32.7 L87.5,33.9 C87.1,34.2 87,34.8 87.3,35.2 C87.4,35.3 87.4,35.4 87.5,35.4 L91.9,38.7 L87.4,41.8 C87,42.1 86.9,42.7 87.2,43.1 C87.3,43.2 87.3,43.3 87.4,43.3 L91.8,46.6 L87.3,49.7 Z" id="Path" fill="#92D7D0"></path>
            <rect id="Rectangle" fill="#92D7D0" transform="translate(93.390897, 36.971892) rotate(-89.018460) translate(-93.390897, -36.971892) " x="92.5408575" y="36.1218521" width="1.70007946" height="1.70007946"></rect>
            <rect id="Rectangle" fill="#92D7D0" transform="translate(96.729780, 40.402881) rotate(-89.018460) translate(-96.729780, -40.402881) " x="95.8797401" y="39.5528408" width="1.70007946" height="1.70007946"></rect>
            <rect id="Rectangle" fill="#92D7D0" transform="translate(91.428515, 32.205463) rotate(-89.018460) translate(-91.428515, -32.205463) " x="90.5784754" y="31.355423" width="1.70007946" height="1.70007946"></rect>
            <rect id="Rectangle" fill="#92D7D0" transform="translate(92.511466, 42.983478) rotate(-89.018460) translate(-92.511466, -42.983478) " x="91.6614265" y="42.1334385" width="1.70007946" height="1.70007946"></rect>
            <rect id="Rectangle" fill="#92D7D0" transform="translate(97.566665, 44.646711) rotate(-89.018460) translate(-97.566665, -44.646711) " x="96.7166249" y="43.7966713" width="1.70007946" height="1.70007946"></rect>
            <rect id="Rectangle" fill="#92D7D0" transform="translate(94.135579, 47.983817) rotate(-89.018460) translate(-94.135579, -47.983817) " x="93.2855393" y="47.133777" width="1.70007946" height="1.70007946"></rect>
            <rect id="Rectangle" fill="#92D7D0" transform="translate(91.474695, 51.407079) rotate(-89.018460) translate(-91.474695, -51.407079) " x="90.6246554" y="50.5570395" width="1.70007946" height="1.70007946"></rect>
            <path d="M83.5,41 C83.6,40.4 83.6,39.7 83.3,39.2 C83.1,38.7 82.6,38.2 82,37.9 L82.2,37.3 L81.5,37 L81.3,37.6 C80.6,37.4 79.8,37.4 79.2,37.7 C78.6,38 78.1,38.5 77.8,39.1 C77.5,39.7 77.5,40.5 77.7,41.1 C77.9,41.7 78.3,42.4 79,42.9 L77.9,45.5 C77.7,45.3 77.6,45.1 77.5,44.8 C77.4,44.5 77.4,44.2 77.5,43.8 L75.9,43.2 C75.7,44 75.7,44.8 76,45.5 C76.3,46.1 76.7,46.7 77.4,47 L76.9,48.2 L77.8,48.5 L78.2,47.4 C79,47.5 79.8,47.5 80.5,47.1 C81.1,46.8 81.7,46.2 82,45.5 C82.3,44.8 82.3,44.3 82.1,43.6 C81.9,42.9 81.4,42.4 80.5,41.7 L81.5,39.3 C81.8,39.6 81.9,40 81.8,40.6 L83.5,41 Z M80.4,45.1 C80.3,45.4 80.1,45.6 79.8,45.8 C79.5,46 79.2,46 78.9,45.9 L79.9,43.5 C80.2,43.7 80.4,44 80.5,44.3 C80.6,44.6 80.6,44.8 80.4,45.1 Z M79.8,41.1 C79.6,40.9 79.4,40.7 79.4,40.4 C79.3,40.2 79.4,39.9 79.4,39.7 C79.5,39.5 79.6,39.3 79.9,39.1 C80.1,39 80.4,39 80.6,39 L79.8,41.1 Z" id="Shape" fill="#4B978F"></path>
        </g>
    </g>
</svg>