<?xml version="1.0" encoding="utf-8"?>
<!-- Generator: Adobe Illustrator 25.3.1, SVG Export Plug-In . SVG Version: 6.00 Build 0)  -->
<svg version="1.1" id="Layer_1" xmlns="http://www.w3.org/2000/svg" xmlns:xlink="http://www.w3.org/1999/xlink" x="0px" y="0px"
	 viewBox="0 0 100 100" style="enable-background:new 0 0 100 100;" xml:space="preserve">
<style type="text/css">
	.st0{fill:#FCD09A;}
	.st1{fill:#888888;}
	.st2{fill:#FFFFFF;}
</style>
<polygon class="st0" points="85.8,83.9 85.8,83.9 85.9,83.9 "/>
<g>
	<ellipse class="st1" cx="50" cy="50.1" rx="50" ry="50.1"/>
	<path class="st0" d="M57.1,76.7l12,0.9l3.8-2.7l-0.5-2.3c-1.6-1.2-3.2-2.3-5-3.4l-5.7-1.5v1.6c0,0.4-0.2,0.8-0.5,1.1L57.1,75
		C57.1,75.1,57.1,76.7,57.1,76.7z"/>
	<path class="st0" d="M57.1,80.9l2.6,1.8c0.3,0.2,0.6,0.5,0.7,0.9l2.1,6.8c2.8,0,5.5,0,8.3,0l4.9-3.5V82l-6.4-1.2l0,0l-12.2-1
		C57.1,79.8,57.1,80.9,57.1,80.9z"/>
	<path class="st0" d="M79.3,79.1c-1-1.1-2.1-2.2-3.2-3.3c-0.1,0.4-0.3,0.8-0.6,1.1l-2.1,1.5l4,0.7C77.4,79.1,79.3,79.1,79.3,79.1z"
		/>
	<path class="st0" d="M82,82.3h-3.3v5.4c0,0.6-0.3,1.1-0.8,1.3L72,93.2c-0.3,0.2-0.6,0.3-0.9,0.3h-3.4v3.4c2.3-0.9,4.5-1.9,6.7-3.1
		c0.2-0.7,0.8-1.2,1.5-1.2h0.5c3-1.9,5.8-4,8.3-6.5C83.9,84.8,83,83.5,82,82.3z"/>
	<path class="st0" d="M49.2,100.2c0.3,0,0.6,0,0.8,0c5.1,0,10.1-0.8,14.7-2.2v-4.5c-3.8,0-7.6,0-11.4,0L49.2,100.2z"/>
	<path class="st0" d="M31.2,96.5c3.5,1.4,7.1,2.4,10.9,3.1l-6.3-5.7H32c-0.3,0.8-0.6,1.5-0.9,2.2L31.2,96.5L31.2,96.5z"/>
	<path class="st0" d="M41.4,83.6L36,81.8c-0.3-0.1-0.6-0.3-0.7-0.5l0,0L29.8,74l-3.5,0.6c6.3,5.5,7.4,11.3,6.6,16.3h3.2l9.1-5.3
		l2.2-3.5l-4.6,1.6C42.2,83.7,41.7,83.7,41.4,83.6z"/>
	<path class="st0" d="M54,81.7V80l-2.2,0.4l-3.6,5.9l4.9,4.2h6.1L57.5,85l-2.9-2C54.2,82.7,54,82.2,54,81.7z"/>
	<path class="st0" d="M50.8,72.3l-3.5-2.5l-3.7,3.6V80l6.7-2.4c0.1,0,0.2-0.1,0.3-0.1l3.4-0.6v-2.3c0-0.4,0.2-0.8,0.5-1.1l1.4-1.6
		L52,72.6C51.6,72.7,51.1,72.6,50.8,72.3z"/>
	<polygon class="st0" points="39,92.6 45.8,98.7 50.4,92.3 46,88.5 	"/>
	<path class="st0" d="M10,56.2c0,1,0.2,2,0.6,3.1h2.8L10,56.2z"/>
	<path class="st0" d="M21.6,52l-4.4-3.8l-5.7,3.3c-0.3,0.4-0.5,0.8-0.7,1.3l6.3,5.7L21.6,52z"/>
	<path class="st0" d="M46.8,46.6v-4.9l-6.4-1.2l-12.2-1v1.1l2.6,1.8c0.3,0.2,0.6,0.5,0.7,0.9l2.1,6.8c2.8,0,5.5,0,8.3,0L46.8,46.6z"
		/>
	<path class="st0" d="M32.1,36.3c-0.1,0.1-0.3,0.2-0.4,0.3l8.6,0.7l3.8-2.7l-1-4.5l-6.2-1.6C37.3,30.7,36,33.2,32.1,36.3z"/>
	<path class="st0" d="M46.7,36.6l-2.1,1.5l4,0.7h10.2l0.4-4c-4.2-1.3-8.4-2.5-12.6-3.7l0.8,4C47.4,35.6,47.2,36.3,46.7,36.6z"/>
	<path class="st0" d="M20.2,59.4H36v-6.1c-3.8,0-7.6,0-11.4,0L20.2,59.4z"/>
	<path class="st0" d="M19.4,46l4.9,4.2h6.1l-1.7-5.4l-2.9-2c-0.4-0.3-0.7-0.8-0.7-1.3v-0.4c-1.5,0.9-3,1.8-4.4,2.7L19.4,46z"/>
	<path class="st0" d="M48.4,56.5L48,59.3h2.8C49.8,58.4,49,57.4,48.4,56.5z"/>
	<path class="st0" d="M34.6,62.5h-9.7l0,0H12.3c2,2.8,5.5,6,10.8,9.6c0.2,0.2,0.5,0.3,0.7,0.5c0.2-0.5,0.6-0.9,1.2-1l4.5-0.7l4.7-8
		C34.4,62.7,34.5,62.6,34.6,62.5z"/>
	<path class="st0" d="M40.7,62.5h-4.3c0.6,0.4,0.9,1.2,0.4,2l-4.6,7.7l5.2,6.8l3,1v-7.3c0-0.4,0.2-0.8,0.5-1.1l3.8-3.7l-4-2.9
		C39.6,64.3,39.9,63.1,40.7,62.5z"/>
	<path class="st0" d="M42.4,62.5C42.5,62.5,42.5,62.5,42.4,62.5c3.2,2.3,6.4,4.6,9.6,7l6.4-1.2v-3.6c-1.3-0.7-2.5-1.5-3.6-2.2
		C54.8,62.5,42.4,62.5,42.4,62.5z"/>
	<path class="st0" d="M56.9,41.9H50v5.4c0,0.1,0,0.1,0,0.2c1.8-1.9,4.3-3.6,6.4-5.2C56.5,42.2,56.7,42.1,56.9,41.9z"/>
	<path class="st0" d="M45.7,53.8c0-0.8,2.2-3.6,2.9-4.6L43.4,53c-0.3,0.2-0.6,0.3-0.9,0.3h-3.4l0,0v6.1H45L45.7,53.8z"/>
	<path class="st0" d="M39.3,15.6c-1.6-0.7-3.4-1.3-5.2-1.9c-0.9-0.3-1.7-0.6-2.4-0.8l-1.9,1.5l7.8,4.8L39.3,15.6z"/>
	<path class="st0" d="M49.6,21.1l-3.5,0.7l0,0l-12.4,2.3c0.3,0.3,0.6,0.5,0.9,0.8c7.2,1.8,13.4,3.5,20.7,5.6l1.6-2.2
		C55.4,25.8,53,23.4,49.6,21.1z"/>
	<path class="st0" d="M26.9,16.2L22.7,17c2.5,1.6,5.2,3.1,7.5,4.5l0.4-0.1c0.3-0.1,0.5-0.2,0.8-0.2l2.8-0.5L26.9,16.2z"/>
	<path class="st0" d="M21.2,14.1l5.4-1l1.8-1.6c-2.7-1-4.8-2-6.5-2.9c-1.1,0.8-2.2,1.6-3.3,2.4L21.2,14.1z"/>
	<path class="st0" d="M42.2,16.8l-1.3,2.7l4.8-0.9C44.6,18,43.4,17.4,42.2,16.8z"/>
	<path class="st2" d="M65.9,53.8c0.9-1.8,1.6-3.7,2.1-5.7c0.6-2.4,0.9-4.8,0.9-7.2v-8.1c0-0.2-0.1-0.3-0.2-0.5L65.1,28l-2.5-3
		l0.4-1.7l4.8,4.2c0.3,0.3,0.7,0.2,1-0.1c0.1-0.1,0.2-0.3,0.2-0.5V16.7c0-0.3,0.2-0.6,0.5-0.7l2.8-1.1c0.4-0.1,0.8,0,0.9,0.4
		c0,0.1,0,0.2,0,0.2v21c0,0.4,0.3,0.7,0.7,0.7c0.2,0,0.4-0.1,0.5-0.2l1.3-1.3c0.3-0.3,0.7-0.3,1,0c0.1,0.1,0.2,0.3,0.2,0.5
		s-0.1,0.4-0.2,0.5l-3.3,3.5c-0.1,0.1-0.2,0.3-0.2,0.5V41c0,4.5,1.1,8.9,3.1,12.9C76.3,53.8,65.9,53.8,65.9,53.8z"/>
	<path class="st2" d="M81.1,63.7c2-2.8,3.1-5.8,3.1-8.9v-0.2c0-0.1-0.1-0.3-0.2-0.3L80.7,52c-0.1-0.1-0.2-0.2-0.2-0.3
		s0.1-0.3,0.2-0.3c0.3-0.2,0.7-0.2,1,0l1.3,0.9c0.1,0.1,0.3,0.1,0.5,0.1c0.4,0,0.7-0.2,0.7-0.5V37.3c0-0.1,0-0.1,0-0.2
		c0.1-0.3,0.5-0.4,0.9-0.3l2.8,0.7c0.3,0.1,0.5,0.3,0.5,0.5v7.1c0,0.1,0.1,0.2,0.2,0.3c0.3,0.2,0.7,0.2,1,0l4.8-2.9l0.4,1.2
		l-2.5,2.1l-3.6,3c-0.1,0.1-0.2,0.2-0.2,0.3v5.6c0,1.7,0.3,3.4,0.9,5c0.5,1.4,1.2,2.7,2.1,3.9L81.1,63.7L81.1,63.7z"/>
</g>
</svg>
