<?xml version="1.0" encoding="UTF-8"?>
<svg width="101px" height="101px" viewBox="0 0 101 101" version="1.1" xmlns="http://www.w3.org/2000/svg" xmlns:xlink="http://www.w3.org/1999/xlink">
    <title>well</title>
    <g id="Page-1" stroke="none" stroke-width="1" fill="none" fill-rule="evenodd">
        <g id="well" transform="translate(0.200000, 0.200000)" fill-rule="nonzero">
            <g id="Group" transform="translate(18.700000, 16.600000)">
                <path d="M58.4,11.9 L3.9,11.3 C3.1,11.3 2.6,10.4 2.9,9.7 L7.4,0.6 C7.6,0.2 8,0 8.4,0 L54,0.5 C54.4,0.5 54.8,0.7 55,1.1 L59.4,10.3 C59.7,11.1 59.2,12 58.4,11.9 Z" id="Path" fill="#E19227"></path>
                <polygon id="Path" fill="#FCD09A" points="52.9 14.1 46.7 14 46.6 20 52.8 20.1"></polygon>
                <polygon id="Path" fill="#FCD09A" points="52.7 26.5 46.5 26.4 46.3 40.8 52.5 40.9"></polygon>
                <polygon id="Path" fill="#FCD09A" points="15.5 13.7 9.3 13.6 9.2 19.6 15.4 19.7"></polygon>
                <polygon id="Path" fill="#FCD09A" points="15.4 26.1 9.2 26 9 40.4 15.2 40.5"></polygon>
                <path d="M43,43 L55,43.1 L54.8,49.4 C50.6,49.4 47,49.3 42.8,49.3 L43,43 Z M27.6,42.8 L40.8,42.9 L40.7,49.4 C36.1,49.3 32,49.3 27.5,49.3 L27.6,42.8 Z M11.5,42.6 L25.3,42.8 L25.3,49.2 C23.3,49.2 13.3,49.1 11.5,49 L11.5,42.6 Z M1.3,42.5 L9.3,42.6 L9.2,49 L0.1,48.9 L0.2,43.6 C0.2,43 0.7,42.5 1.3,42.5 Z M8.2,66.2 L1.1,66.1 C0.5,66.1 0,65.6 0,65 L0.1,59.7 L8.3,59.8 L8.2,66.2 Z M0.1,57.4 L0.2,51 C5.8,51.1 10.8,51.1 16.3,51.2 L16.3,57.6 C10.6,57.6 5.1,57.5 0.1,57.4 Z M26.2,66.4 L10.4,66.2 L10.5,59.8 C12.8,59.8 24,59.9 26.3,60 L26.2,66.4 Z M18.5,57.7 L18.6,51.3 C24.3,51.4 29.1,51.4 34.7,51.5 L34.6,57.9 C28.6,57.8 24.3,57.7 18.5,57.7 Z M41.4,66.5 L28.4,66.4 L28.5,60 C33.3,60.1 36.7,60.1 41.4,60.1 L41.4,66.5 Z M36.9,57.9 L37,51.5 C41.3,51.5 44.1,51.6 49.1,51.6 L49,58 C44.5,57.9 41,57.9 36.9,57.9 Z M54.3,66.7 L43.5,66.6 L43.6,60.2 C44.4,60.2 54.8,60.3 54.4,60.3 L54.3,66.7 Z M59.9,66.7 L56.4,66.7 L56.5,60.3 L61.1,60.4 L61,65.7 C61.1,66.2 60.6,66.7 59.9,66.7 Z M61.1,58.1 C60.7,58.1 50.5,58 51,58 L51.1,51.6 C51.3,51.6 61.4,51.7 61.2,51.7 L61.1,58.1 Z M61.2,49.5 L57,49.5 L57.1,43.1 L60.2,43.1 C60.8,43.1 61.3,43.6 61.3,44.2 L61.2,49.5 Z" id="Shape" fill="#FFFFFF"></path>
                <path d="M67.2,30.5 L61.6,30.4 L61.7,23.3 C61.7,22.7 61.2,22.2 60.6,22.2 L40.4,22 L40.4,20.6 C40.4,19.4 39.4,18.4 38.2,18.4 L22.3,18.2 C21.1,18.2 20.1,19.2 20.1,20.4 L20.1,21.8 L4,21.6 C3.4,21.6 2.9,22.1 2.9,22.7 C2.9,23.3 3.4,23.8 4,23.8 L20.1,24 L20.1,25.4 C20.1,26.6 21.1,27.6 22.3,27.6 L32.8,27.7 L32.9,20.1 L35.1,20.1 L35,27.7 L38.3,27.7 C39.5,27.7 40.5,26.7 40.5,25.5 L40.5,24.1 L59.5,24.4 L59.4,31.5 C59.4,32.1 59.9,32.6 60.5,32.6 L67.1,32.7 C67.7,32.7 68.2,32.2 68.2,31.6 C68.3,31 67.8,30.5 67.2,30.5 Z M27.7,25.9 L25.5,25.9 L25.6,20 L27.8,20 L27.7,25.9 Z" id="Shape" fill="#FFFFFF"></path>
                <polygon id="Path" fill="#FFFFFF" points="34.8 27.7 32.6 27.7 32.5 40.6 34.7 40.6"></polygon>
            </g>
        </g>
    </g>
</svg>