<?xml version="1.0" encoding="utf-8"?>
<!-- Generator: Adobe Illustrator 25.3.1, SVG Export Plug-In . SVG Version: 6.00 Build 0)  -->
<svg version="1.1" id="Layer_1" xmlns="http://www.w3.org/2000/svg" xmlns:xlink="http://www.w3.org/1999/xlink" x="0px" y="0px"
	 viewBox="0 0 100 100" style="enable-background:new 0 0 100 100;" xml:space="preserve">
<style type="text/css">
	.st0{fill:#888888;}
	.st1{fill:#E19227;}
	.st2{fill:#FCD09A;}
	.st3{fill:#FFFFFF;}
</style>
<g>
	<circle class="st0" cx="50" cy="50" r="50"/>
	<g>
		<path class="st1" d="M77.1,28.5l-54.5-0.6c-0.8,0-1.3-0.9-1-1.6l4.5-9.1c0.2-0.4,0.6-0.6,1-0.6l45.6,0.5c0.4,0,0.8,0.2,1,0.6
			l4.4,9.2C78.4,27.7,77.9,28.6,77.1,28.5z"/>
		<path class="st2" d="M71.6,30.7l-6.2-0.1l-0.1,6l6.2,0.1L71.6,30.7z"/>
		<path class="st2" d="M71.4,43.1L65.2,43L65,57.4l6.2,0.1L71.4,43.1z"/>
		<path class="st2" d="M34.2,30.3L28,30.2l-0.1,6l6.2,0.1L34.2,30.3z"/>
		<path class="st2" d="M34.1,42.7l-6.2-0.1L27.7,57l6.2,0.1L34.1,42.7z"/>
		<path class="st3" d="M61.7,59.6l12,0.1L73.5,66c-4.2,0-7.8-0.1-12-0.1L61.7,59.6z M46.3,59.4l13.2,0.1L59.4,66
			c-4.6-0.1-8.7-0.1-13.2-0.1L46.3,59.4z M30.2,59.2L44,59.4v6.4c-2,0-12-0.1-13.8-0.2V59.2z M20,59.1l8,0.1l-0.1,6.4l-9.1-0.1
			l0.1-5.3C18.9,59.6,19.4,59.1,20,59.1z M26.9,82.8l-7.1-0.1c-0.6,0-1.1-0.5-1.1-1.1l0.1-5.3l8.2,0.1L26.9,82.8z M18.8,74l0.1-6.4
			c5.6,0.1,10.6,0.1,16.1,0.2v6.4C29.3,74.2,23.8,74.1,18.8,74z M44.9,83l-15.8-0.2l0.1-6.4c2.3,0,13.5,0.1,15.8,0.2L44.9,83z
			 M37.2,74.3l0.1-6.4C43,68,47.8,68,53.4,68.1l-0.1,6.4C47.3,74.4,43,74.3,37.2,74.3z M60.1,83.1l-13-0.1l0.1-6.4
			c4.8,0.1,8.2,0.1,12.9,0.1V83.1z M55.6,74.5l0.1-6.4c4.3,0,7.1,0.1,12.1,0.1l-0.1,6.4C63.2,74.5,59.7,74.5,55.6,74.5z M73,83.3
			l-10.8-0.1l0.1-6.4c0.8,0,11.2,0.1,10.8,0.1L73,83.3z M78.6,83.3h-3.5l0.1-6.4l4.6,0.1l-0.1,5.3C79.8,82.8,79.3,83.3,78.6,83.3z
			 M79.8,74.7c-0.4,0-10.6-0.1-10.1-0.1l0.1-6.4c0.2,0,10.3,0.1,10.1,0.1L79.8,74.7z M79.9,66.1h-4.2l0.1-6.4h3.1
			c0.6,0,1.1,0.5,1.1,1.1L79.9,66.1z"/>
		<path class="st3" d="M85.9,47.1L80.3,47l0.1-7.1c0-0.6-0.5-1.1-1.1-1.1l-20.2-0.2v-1.4c0-1.2-1-2.2-2.2-2.2L41,34.8
			c-1.2,0-2.2,1-2.2,2.2v1.4l-16.1-0.2c-0.6,0-1.1,0.5-1.1,1.1s0.5,1.1,1.1,1.1l16.1,0.2V42c0,1.2,1,2.2,2.2,2.2l10.5,0.1l0.1-7.6
			h2.2l-0.1,7.6H57c1.2,0,2.2-1,2.2-2.2v-1.4l19,0.3l-0.1,7.1c0,0.6,0.5,1.1,1.1,1.1l6.6,0.1c0.6,0,1.1-0.5,1.1-1.1
			C87,47.6,86.5,47.1,85.9,47.1z M46.4,42.5h-2.2l0.1-5.9h2.2L46.4,42.5z"/>
		<path class="st3" d="M53.5,44.3h-2.2l-0.1,12.9h2.2L53.5,44.3z"/>
	</g>
</g>
</svg>
