<?xml version="1.0" encoding="UTF-8"?>
<svg width="101px" height="101px" viewBox="0 0 101 101" version="1.1" xmlns="http://www.w3.org/2000/svg" xmlns:xlink="http://www.w3.org/1999/xlink">
    <title>displacement</title>
    <g id="Page-1" stroke="none" stroke-width="1" fill="none" fill-rule="evenodd">
        <g id="displacement" fill-rule="nonzero">
            <path d="M53.8,20.3 C53.8,20.2 53.7,20.1 53.8,20.1 C53.8,20 53.9,20 54,19.9 L58.9,18.4 L54,16.9 C53.9,16.9 53.9,16.8 53.8,16.7 C53.8,16.6 53.8,16.5 53.8,16.5 L56.9,12.4 L52.1,14.1 C52,14.1 51.9,14.1 51.9,14.1 C51.8,14.1 51.8,14 51.8,13.9 L51.8,8.8 L48.9,13 C48.9,13.1 48.8,13.1 48.7,13.1 C48.6,13.1 48.5,13.1 48.5,13 L45.6,8.8 L45.7,13.9 C45.7,14 45.7,14.1 45.6,14.1 C45.5,14.1 45.4,14.2 45.4,14.1 L40.6,12.4 L43.7,16.5 C43.7,16.6 43.8,16.7 43.7,16.7 C43.7,16.8 43.6,16.8 43.5,16.9 L38.6,18.4 L43.5,19.9 C43.6,19.9 43.6,20 43.7,20.1 C43.7,20.2 43.7,20.3 43.7,20.3 L40.5,24.4 L45.3,22.7 C45.4,22.7 45.5,22.7 45.5,22.7 C45.5,22.7 45.6,22.8 45.6,22.9 L45.5,28.1 L48.4,23.9 C48.4,23.8 48.5,23.8 48.6,23.8 C48.7,23.8 48.8,23.8 48.8,23.9 L51.7,28.1 L51.6,23 C51.6,22.9 51.6,22.8 51.7,22.8 C51.8,22.8 51.9,22.7 51.9,22.8 L56.7,24.5 L53.8,20.3 Z" id="Path" fill="#92D7D0"></path>
            <path d="M71.8,31.3 C71.8,31.2 71.7,31.2 71.8,31.1 C71.8,31 71.9,31 71.9,31 L75.5,29.9 L71.9,28.8 C71.8,28.8 71.8,28.7 71.8,28.7 C71.8,28.6 71.8,28.6 71.8,28.5 L74.1,25.5 L70.5,26.7 C70.4,26.7 70.4,26.7 70.3,26.7 C70.2,26.7 70.2,26.6 70.2,26.5 L70.3,22.7 L68.2,25.8 C68.2,25.9 68.1,25.9 68,25.9 C67.9,25.9 67.9,25.9 67.8,25.8 L65.7,22.7 L65.8,26.5 C65.8,26.6 65.8,26.6 65.7,26.7 C65.6,26.7 65.6,26.8 65.5,26.7 L61.9,25.4 L64.2,28.4 C64.2,28.5 64.3,28.5 64.2,28.6 C64.1,28.7 64.3,28.8 64.3,28.8 L60.7,29.9 L64.3,31 C64.4,31 64.4,31.1 64.4,31.1 C64.4,31.2 64.4,31.2 64.4,31.3 L62.1,34.3 L65.7,33 C65.8,33 65.8,33 65.9,33 C66,33 66,33.1 66,33.2 L65.9,37 L68,33.9 C68,33.8 68.1,33.8 68.2,33.8 C68.3,33.8 68.3,33.8 68.4,33.9 L70.5,37 L70.4,33.2 C70.4,33.1 70.4,33.1 70.5,33 C70.6,33 70.6,32.9 70.7,33 L74.3,34.3 L71.8,31.3 Z" id="Path" fill="#D9F1F0"></path>
            <path d="M91.6,60 L91.6,60 C92,58.9 91.4,57.7 90.3,57.3 L77.8,52.2 C80.1,51.3 81.6,48.9 81.2,46.3 C80.8,43.9 78.8,42 76.4,41.7 C73.1,41.3 70.2,43.9 70.2,47.1 C70.2,49 71.2,50.6 72.6,51.6 L71.2,51.4 C69.8,51.2 68.6,52.1 68.2,53.4 L62.6,82.2 C62.3,83.9 63.6,85.5 65.3,85.5 L65.3,85.5 C66.6,85.5 67.7,84.6 68,83.4 L71.6,69.1 L81.2,83.4 C82,84.6 83.6,84.9 84.7,84.1 L84.7,84.1 C85.8,83.4 86.1,81.9 85.5,80.8 L78.5,67.7 L79.9,58.1 L88.7,61.4 C89.9,61.8 91.2,61.2 91.6,60 Z" id="Path" fill="#EEEEEE"></path>
            <path d="M67,53.3 C67.2,52.5 67.6,51.8 68.2,51.3 C64,51.7 54.9,55.4 53.9,60.9 C53.6,62.2 52.4,69.1 60.8,69.1 C61.9,69.1 63.1,68.6 64.2,67.9 L67,53.3 Z" id="Path" fill="#92D7D0"></path>
            <rect id="Rectangle" fill="#D9F1F0" x="22.2" y="63.6" width="16.5" height="13.7"></rect>
            <path d="M30.9,49.7 L30.9,59 C30.9,59.2 30.9,59.3 31,59.5 L32,54.7 C32.4,53.2 33.5,52.2 34.8,51.8 C34.2,50.8 33.9,49.7 33.9,48.5 C33.9,44.9 36.9,41.9 40.5,41.9 C40.8,41.9 41,41.9 41.3,41.9 C42.3,42 43.3,42.4 44.1,42.9 L44.3,42.9 C45.8,42.9 46.6,41 45.6,39.9 L28.6,22.9 C27.9,22.2 26.8,22.2 26.1,22.9 L9.1,39.9 C8,41 8.8,42.9 10.3,42.9 L13,42.9 L13,59 C13,59.9 13.8,60.7 14.7,60.7 L21.9,60.7 C22.8,60.7 23.6,59.9 23.6,59 L23.6,49.7 C23.6,49.3 23.9,49 24.3,49 L30.2,49 C30.6,49 30.9,49.3 30.9,49.7 Z" id="Path" fill="#CCCCCC"></path>
            <path d="M42.5,53.6 C44.8,52.7 46.3,50.3 45.9,47.7 C45.5,45.3 43.5,43.4 41.1,43.1 C37.8,42.7 34.9,45.3 34.9,48.5 C34.9,50.4 35.9,52 37.3,53 L35.9,52.8 C34.5,52.6 33.3,53.5 32.9,54.8 L31.6,62.2 L38.6,62.2 C39.4,62.2 40,62.8 40,63.6 L40,75.8 L46,84.8 C46.8,86 48.4,86.3 49.5,85.5 L49.5,85.5 C50.6,84.8 50.9,83.3 50.3,82.2 L43.3,69.1 L44.7,59.5 L52.4,62.4 C52.4,61.8 52.5,61.2 52.6,60.6 C52.8,59.7 53.1,58.9 53.6,58.1 L42.5,53.6 Z" id="Path" fill="#EEEEEE"></path>
            <path d="M28.4,78.6 L27.4,83.5 C27.1,85.2 28.4,86.8 30.1,86.8 C31.4,86.8 32.5,85.9 32.8,84.7 L34.3,78.6 C34.3,78.6 28.4,78.6 28.4,78.6 Z" id="Path" fill="#EEEEEE"></path>
        </g>
    </g>
</svg>