<?xml version="1.0" encoding="utf-8"?>
<!-- Generator: Adobe Illustrator 25.3.1, SVG Export Plug-In . SVG Version: 6.00 Build 0)  -->
<svg version="1.1" id="Layer_1" xmlns="http://www.w3.org/2000/svg" xmlns:xlink="http://www.w3.org/1999/xlink" x="0px" y="0px"
	 viewBox="0 0 100 100" style="enable-background:new 0 0 100 100;" xml:space="preserve">
<style type="text/css">
	.st0{fill:#3B3F3D;}
	.st1{fill:#E19227;}
	.st2{fill:#FCD09A;}
	.st3{fill:#FFFFFF;}
</style>
<g>
	<circle class="st0" cx="50.9" cy="50" r="50.2"/>
	<path class="st1" d="M80.1,47.2c2-2,5.5-1.9,7.1-1.8c0.1,1.5,0.2,5.1-1.8,7.1c-2,2-5.5,1.9-7.1,1.8C78.2,52.7,78.1,49.2,80.1,47.2z
		"/>
	<path class="st1" d="M75.8,59.4c-1.5,0.1-5.1,0.2-7.1-1.8c-2-2-1.9-5.5-1.8-7.1c1.5-0.1,5.1-0.2,7.1,1.8
		C76,54.3,75.9,57.9,75.8,59.4z"/>
	<path class="st1" d="M79.9,31c2-2,5.5-1.9,7.1-1.8c0.1,1.5,0.2,5.1-1.8,7.1c-2,2-5.5,1.9-7.1,1.8c0-0.4-0.1-0.9,0-1.4v-0.1
		C78,34.9,78.4,32.5,79.9,31z"/>
	<path class="st1" d="M73.3,20.2c0-2.8,2.6-5.3,3.7-6.3c1.2,1,3.7,3.5,3.7,6.3c0,2.8-2.6,5.3-3.7,6.3C75.9,25.4,73.3,23,73.3,20.2z"
		/>
	<path class="st1" d="M75.6,43.2c-1.5,0.1-5.1,0.2-7.1-1.8c-2-2-1.9-5.5-1.8-7.1c1.5-0.1,5.1-0.2,7.1,1.8
		C75.8,38.1,75.7,41.7,75.6,43.2z"/>
	<path class="st2" d="M54.1,47.2c2-2,5.5-1.9,7.1-1.8c0.1,1.5,0.2,5.1-1.8,7.1c-2,2-5.5,1.9-7.1,1.8C52.2,52.7,52.1,49.2,54.1,47.2z
		"/>
	<path class="st2" d="M49.8,59.4c-1.5,0.1-5.1,0.2-7.1-1.8c-2-2-1.9-5.5-1.8-7.1c1.5-0.1,5.1-0.2,7.1,1.8
		C50,54.3,49.9,57.9,49.8,59.4z"/>
	<path class="st2" d="M53.8,31c2-2,5.5-1.9,7.1-1.8c0.1,1.5,0.2,5.1-1.8,7.1c-2,2-5.5,1.9-7.1,1.8c0-0.4-0.1-0.9,0-1.4v-0.1
		C52,34.9,52.4,32.5,53.8,31z"/>
	<path class="st2" d="M47.3,20.2c0-2.8,2.6-5.3,3.7-6.3c1.2,1,3.7,3.5,3.7,6.3c0,2.8-2.6,5.3-3.7,6.3C49.9,25.4,47.3,23,47.3,20.2z"
		/>
	<path class="st2" d="M49.6,43.2c-1.5,0.1-5.1,0.2-7.1-1.8c-2-2-1.9-5.5-1.8-7.1c1.5-0.1,5.1-0.2,7.1,1.8
		C49.7,38.1,49.7,41.7,49.6,43.2z"/>
	<path class="st1" d="M28.1,47.2c2-2,5.5-1.9,7.1-1.8c0.1,1.5,0.2,5.1-1.8,7.1c-2,2-5.5,1.9-7.1,1.8C26.1,52.7,26.1,49.2,28.1,47.2z
		"/>
	<path class="st1" d="M23.8,59.4c-1.5,0.1-5.1,0.2-7.1-1.8c-2-2-1.9-5.5-1.8-7.1c1.5-0.1,5.1-0.2,7.1,1.8
		C24,54.3,23.9,57.9,23.8,59.4z"/>
	<path class="st1" d="M27.8,31c2-2,5.5-1.9,7.1-1.8c0.1,1.5,0.2,5.1-1.8,7.1c-2,2-5.5,1.9-7.1,1.8c0-0.3,0-0.7,0-1.2v-0.4
		C26,34.8,26.4,32.5,27.8,31z"/>
	<path class="st1" d="M21.3,20.2c0-2.8,2.6-5.3,3.7-6.3c1.2,1,3.7,3.5,3.7,6.3c0,2.8-2.6,5.3-3.7,6.3C23.9,25.4,21.3,23,21.3,20.2z"
		/>
	<path class="st1" d="M23.6,43.2c-1.5,0.1-5.1,0.2-7.1-1.8c-2-2-1.9-5.5-1.8-7.1c1.5-0.1,5.1-0.2,7.1,1.8
		C23.7,38.1,23.7,41.7,23.6,43.2z"/>
	<path class="st1" d="M26,64.7V25.3c0-0.3-0.4-0.5-1-0.5c-0.5,0-1,0.2-1,0.5v39.4c0,0.3,0.4,0.5,1,0.5C25.6,65.2,26,65,26,64.7z"/>
	<path class="st2" d="M51.9,64.7V25.3c0-0.3-0.4-0.5-1-0.5c-0.5,0-1,0.2-1,0.5v39.4c0,0.3,0.4,0.5,1,0.5
		C51.5,65.2,51.9,65,51.9,64.7z"/>
	<path class="st1" d="M78,64.7V25.3c0-0.3-0.4-0.5-1-0.5c-0.5,0-1,0.2-1,0.5v39.4c0,0.3,0.4,0.5,1,0.5C77.6,65.2,78,65,78,64.7z"/>
	<path class="st3" d="M5.6,71.6h90.7c1-2.1,1.9-4.3,2.6-6.5H3C3.7,67.3,4.6,69.5,5.6,71.6z"/>
	<path class="st2" d="M10.5,79.7h80.9c1.5-2.1,2.9-4.3,4.1-6.5H6.4C7.6,75.5,8.9,77.7,10.5,79.7z"/>
	<path class="st2" d="M30.7,96h40.4C75,94.3,78.7,92,82,89.4H19.9C23.2,92,26.8,94.3,30.7,96z"/>
	<path class="st3" d="M11.7,81.4c1.9,2.4,4,4.6,6.3,6.5h65.8c2.3-2,4.4-4.2,6.3-6.5H11.7z"/>
</g>
</svg>
