<?xml version="1.0" encoding="UTF-8"?>
<svg width="101px" height="101px" viewBox="0 0 101 101" version="1.1" xmlns="http://www.w3.org/2000/svg" xmlns:xlink="http://www.w3.org/1999/xlink">
    <title>food</title>
    <g id="Page-1" stroke="none" stroke-width="1" fill="none" fill-rule="evenodd">
        <g id="food" transform="translate(0.000000, 0.000000)" fill-rule="nonzero">
            <path d="M30.9,48.3 C28.9,48.7 27.5,50.3 27.8,52 L28.5,55.5 L31.6,54.9 C33.6,54.5 35,52.9 34.7,51.2 L34,47.7 L30.9,48.3 Z" id="Path" fill="#CCCCCC"></path>
            <path d="M22.3,49.9 C24.3,49.5 26.1,50.5 26.4,52.1 L27.1,55.6 L24,56.2 C22,56.6 20.2,55.6 19.9,54 L19.2,50.5 L22.3,49.9 Z" id="Path" fill="#CCCCCC"></path>
            <path d="M29.5,41 C27.5,41.4 26.1,43 26.4,44.7 L27.1,48.2 L30.2,47.6 C32.2,47.2 33.6,45.6 33.3,43.9 L32.6,40.4 L29.5,41 Z" id="Path" fill="#CCCCCC"></path>
            <path d="M20.9,42.4 C22.9,42 24.7,43 25,44.6 L25.7,48.1 L22.6,48.7 C20.6,49.1 18.8,48.1 18.5,46.5 L17.8,43 L20.9,42.4 Z" id="Path" fill="#CCCCCC"></path>
            <path d="M28.1,33.7 C26.1,34.1 24.7,35.7 25,37.4 L25.7,40.9 L28.8,40.3 C30.8,39.9 32.2,38.3 31.9,36.6 L31.2,33.2 L28.1,33.7 Z" id="Path" fill="#CCCCCC"></path>
            <path d="M19.5,35.3 C21.5,34.9 23.3,35.9 23.6,37.5 L24.3,41 L21.2,41.6 C19.2,42 17.4,41 17.1,39.4 L16.4,35.9 L19.5,35.3 Z" id="Path" fill="#CCCCCC"></path>
            <path d="M26.8,26.4 C24.8,26.8 23.4,28.4 23.7,30.1 L24.4,33.6 L27.5,33 C29.5,32.6 30.9,31 30.6,29.3 L29.9,25.8 L26.8,26.4 Z" id="Path" fill="#CCCCCC"></path>
            <path d="M18.1,28 C20.1,27.6 21.9,28.6 22.2,30.2 L22.9,33.7 L19.8,34.3 C17.8,34.7 16,33.7 15.7,32.1 L15.2,28.5 L18.1,28 Z" id="Path" fill="#CCCCCC"></path>
            <polygon id="Path" fill="#EEEEEE" points="29.1 56.6 29.9 77.6 27.8 77.6 27.1 57.1"></polygon>
            <path d="M51.4,42.9 C49.4,42.3 47.5,43.2 47,44.7 L45.9,48.1 L49,48.9 C51,49.5 52.9,48.6 53.4,47.1 L54.5,43.7 L51.4,42.9 Z" id="Path" fill="#CCCCCC"></path>
            <path d="M43.1,40.1 C44.9,40.7 46.1,42.5 45.6,44 L44.5,47.4 L41.4,46.6 C39.6,46 38.4,44.2 38.9,42.7 L40,39.3 L43.1,40.1 Z" id="Path" fill="#CCCCCC"></path>
            <path d="M53.5,35.7 C51.5,35.1 49.6,36 49.1,37.5 L48,40.9 L51.1,41.7 C53.1,42.3 55,41.4 55.5,39.9 L56.6,36.5 L53.5,35.7 Z" id="Path" fill="#CCCCCC"></path>
            <path d="M45.4,33 C47.2,33.6 48.4,35.4 47.9,36.9 L46.8,40.3 L43.7,39.5 C41.9,38.9 40.7,37.1 41.2,35.6 L42.3,32.2 L45.4,33 Z" id="Path" fill="#CCCCCC"></path>
            <path d="M55.6,28.4 C53.6,27.8 51.7,28.7 51.2,30.2 L50.1,33.7 L53.2,34.5 C55.2,35.1 57.1,34.2 57.6,32.7 L58.7,29.3 L55.6,28.4 Z" id="Path" fill="#CCCCCC"></path>
            <path d="M47.6,25.9 C49.4,26.5 50.6,28.3 50.1,29.8 L49,33.2 L45.9,32.4 C44.1,31.8 42.9,30 43.4,28.5 L44.5,25.1 L47.6,25.9 Z" id="Path" fill="#CCCCCC"></path>
            <path d="M57.7,21.4 C55.7,20.8 53.8,21.7 53.3,23.2 L52.2,26.7 L55.3,27.5 C57.3,28.1 59.2,27.2 59.7,25.7 L60.8,22.3 L57.7,21.4 Z" id="Path" fill="#CCCCCC"></path>
            <path d="M49.7,18.8 C51.5,19.4 52.7,21.2 52.2,22.7 L51.1,26.1 L48,25.1 C46.2,24.5 45,22.7 45.5,21.2 L46.6,17.8 L49.7,18.8 Z" id="Path" fill="#CCCCCC"></path>
            <path d="M46.1,49.3 L44,55.8 C43,58.8 42.5,61.7 42.3,64.8 L41.7,77.4 L39.6,77.4 L40.2,64.8 C40.3,61.8 40.9,58.9 41.7,56.1 L44.1,48.8 L46.1,49.3 Z" id="Path" fill="#EEEEEE"></path>
            <path d="M66,66.2 C66.8,64.4 66.3,62.3 64.9,61.6 L61.7,60.1 L60.2,62.8 C59.4,64.6 59.9,66.7 61.3,67.4 L64.5,68.9 L66,66.2 Z" id="Path" fill="#CCCCCC"></path>
            <path d="M69.9,58.3 C68.9,60.1 66.9,61 65.5,60.3 L62.3,58.8 L63.7,56 C64.7,54.2 66.7,53.3 68.1,54 L71.3,55.5 L69.9,58.3 Z" id="Path" fill="#CCCCCC"></path>
            <path d="M72.7,69.3 C73.5,67.5 73,65.4 71.6,64.7 L68.4,63.2 L67,66 C66.2,67.8 66.7,69.9 68.1,70.6 L71.3,72.1 L72.7,69.3 Z" id="Path" fill="#CCCCCC"></path>
            <path d="M76.5,61.6 C75.5,63.4 73.5,64.3 72.1,63.6 L68.9,62.1 L70.3,59.3 C71.3,57.5 73.3,56.6 74.7,57.3 L77.9,58.8 L76.5,61.6 Z" id="Path" fill="#CCCCCC"></path>
            <path d="M79.5,72.5 C80.3,70.7 79.8,68.6 78.4,67.9 L75.2,66.4 L73.8,69.2 C73,71 73.5,73.1 74.9,73.8 L78.1,75.3 L79.5,72.5 Z" id="Path" fill="#CCCCCC"></path>
            <path d="M83.1,64.8 C82.1,66.6 80.1,67.5 78.7,66.8 L75.6,65.2 L77,62.4 C78,60.6 80,59.7 81.4,60.4 L84.6,61.9 L83.1,64.8 Z" id="Path" fill="#CCCCCC"></path>
            <path d="M86.2,75.7 C87,73.9 86.5,71.8 85.1,71.1 L81.9,69.6 L80.5,72.4 C79.7,74.2 80.2,76.3 81.6,77 L84.8,78.5 L86.2,75.7 Z" id="Path" fill="#CCCCCC"></path>
            <path d="M89.9,67.9 C88.9,69.7 86.9,70.6 85.5,69.9 L82.3,68.4 L83.7,65.6 C84.7,63.8 86.7,62.9 88.1,63.6 L91.3,65.1 L89.9,67.9 Z" id="Path" fill="#CCCCCC"></path>
            <path d="M60.1,59.6 L52.7,55.8 L52.7,77.4 L50.6,77.4 L50.6,54.2 C50.6,53.5 51.4,53.1 52,53.4 L60.6,57.8 L60.1,59.6 Z" id="Path" fill="#EEEEEE"></path>
        </g>
    </g>
</svg>