<?xml version="1.0" encoding="UTF-8"?>
<svg width="101px" height="101px" viewBox="0 0 101 101" version="1.1" xmlns="http://www.w3.org/2000/svg" xmlns:xlink="http://www.w3.org/1999/xlink">
    <title>girl_vulnerable</title>
    <g id="Page-1" stroke="none" stroke-width="1" fill="none" fill-rule="evenodd">
        <g id="girl_vulnerable" fill-rule="nonzero">
            <path d="M50.1,48.4 C55.9,48.4 60.6,43.7 60.6,37.9 C60.6,32.1 55.9,27.4 50.1,27.4 C44.3,27.4 39.6,32.1 39.6,37.9 C39.6,43.7 44.3,48.4 50.1,48.4 Z" id="Path" fill="#EEEEEE"></path>
            <path d="M57.6,63.3 C57.6,62 56.3,60.8 54.5,60.8 L50.3,60.8 L42.2,60.8 L38.8,60.8 C37.1,60.8 35.7,61.9 35.7,63.3 C35.7,64.6 37,65.8 38.8,65.8 L43,65.8 L51.2,65.8 L54.6,65.8 C56.2,65.7 57.6,64.7 57.6,63.3 Z" id="Path" fill="#EEEEEE"></path>
            <path d="M65.9,70.8 C65.9,69.5 64.6,68.3 62.8,68.3 L58.6,68.3 L50.4,68.3 L47,68.3 C45.3,68.3 43.9,69.4 43.9,70.8 C43.9,72.1 45.2,73.3 47,73.3 L51.2,73.3 L59.4,73.3 L62.8,73.3 C64.5,73.3 65.9,72.2 65.9,70.8 Z" id="Path" fill="#EEEEEE"></path>
            <path d="M35.3,66.2 C35.2,66.6 35.1,67 35,67.3 C33.8,71.6 33,76 33,79.1 C33,79.1 34.7,79.7 37.9,80.3 L37.9,67.3 C36.9,67.2 36,66.8 35.3,66.2 Z" id="Path" fill="#92D7D0"></path>
            <g id="Group" transform="translate(39.600000, 56.500000)" fill="#EEEEEE">
                <path d="M8.3,2.7 C7.7,1.1 6.2,-7.10542736e-15 4.3,-7.10542736e-15 C2.5,-7.10542736e-15 1,1.1 0.3,2.7 L8.3,2.7 Z" id="Path"></path>
                <path d="M2.7,14.3 C2.7,12.8 3.5,11.6 4.8,10.9 L0,10.9 L0,21.5 L0,26.3 C0,28.6 1.9,30.6 4.3,30.6 C6.6,30.6 8.6,28.7 8.6,26.3 L8.6,20.5 L8.6,18.5 L7.4,18.5 C4.7,18.4 2.7,16.6 2.7,14.3 Z" id="Path"></path>
            </g>
            <g id="Group" transform="translate(37.100000, 50.200000)" fill="#92D7D0">
                <path d="M12.5,9 L13.1,9 C13.8,6.5 16.1,4.7 18.8,4.7 C22.1,4.7 24.8,7.4 24.8,10.7 L24.8,16.6 L25.8,16.6 C26.6,16.6 27.4,16.8 28,17.1 C28,17 27.9,16.9 27.9,16.8 C27,13.2 24.7,1.5 21,0.7 C20.2,0.5 18.9,0.2 17.2,0.2 C16,7.10542736e-15 14.5,7.10542736e-15 13,7.10542736e-15 C11.5,7.10542736e-15 10,0.1 8.8,0.2 C7.1,0.4 5.8,0.6 5,0.7 C2.9,1.2 1.2,5.3 -7.10542736e-15,9.4 L-7.10542736e-15,9.4 C0.4,9.3 0.7,9.2 1.1,9.2 L1.1,9.2 C1.8,6.7 4.1,4.8 6.8,4.8 C9.5,4.7 11.8,6.5 12.5,9 Z" id="Path"></path>
                <path d="M25.7,24.7 L24.7,24.7 L24.7,30.2 C28.2,29.6 30.2,29 30.2,29 C30.2,27.3 29.9,25.3 29.5,23.2 C28.7,24.1 27.3,24.7 25.7,24.7 Z" id="Path"></path>
            </g>
            <g id="Group" transform="translate(51.600000, 56.500000)" fill="#EEEEEE">
                <path d="M-7.10542736e-15,18.4 L-7.10542736e-15,21.5 L-7.10542736e-15,26.3 C-7.10542736e-15,28.6 1.9,30.6 4.3,30.6 C6.6,30.6 8.6,28.7 8.6,26.3 L8.6,20.5 L8.6,18.5 L-7.10542736e-15,18.4 L-7.10542736e-15,18.4 Z" id="Path"></path>
                <path d="M7.7,6.8 C7.7,8.3 6.9,9.5 5.6,10.2 L8.6,10.2 L8.6,9.1 L8.6,4.3 C8.6,2 6.7,7.10542736e-15 4.3,7.10542736e-15 C2.5,7.10542736e-15 1,1.1 0.3,2.7 L2.9,2.7 C5.6,2.7 7.7,4.5 7.7,6.8 Z" id="Path"></path>
            </g>
            <g id="Group" transform="translate(25.200000, 8.500000)" fill="#CCCCCC">
                <path d="M0.3,2.3 C0.1,2.3 -3.55271368e-15,2.4 -3.55271368e-15,2.6 L-3.55271368e-15,2.6 L-3.55271368e-15,13.7 C-3.55271368e-15,13.9 0.1,14 0.3,14 L9.3,14 L9.3,14 C9.5,14 9.6,13.9 9.6,13.7 L9.6,13.7 L9.6,2.7 C9.6,2.6 9.6,2.5 9.5,2.4 C7.5,0.9 5.4,-1.77635684e-15 3.4,-1.77635684e-15 L3.4,-1.77635684e-15 C3,-1.77635684e-15 2.4,-1.77635684e-15 2,0.1 C1.9,0.1 1.7,0.3 1.7,0.4 C1.7,4.2 1.7,7.8 1.7,11.6 C1.7,11.8 1.8,11.9 2,11.9 L2,11.9 C3.9,11.7 5.9,12 8,13.2 L0.8,13.2 L0.8,2.6 C0.7,2.4 0.5,2.3 0.3,2.3 Z" id="Path"></path>
                <path d="M10.9,2.7 L10.9,13.7 C10.9,13.9 11,14 11.2,14 L11.2,14 L11.2,14 L20.2,14 C20.4,14 20.5,13.9 20.5,13.7 L20.5,2.6 C20.5,2.4 20.4,2.3 20.2,2.3 C20,2.3 19.9,2.4 19.9,2.6 L19.9,2.6 L19.9,13.3 L12.5,13.3 C14.6,12.1 16.6,11.8 18.5,12 C18.7,12 18.8,11.9 18.9,11.7 L18.9,11.7 C18.9,7.9 18.9,4.3 18.9,0.5 C18.9,0.3 18.8,0.2 18.6,0.2 C18.2,0.1 17.6,0.1 17.2,0.1 L17.2,0.1 C15.2,0.1 13.1,1 11.1,2.5 C10.9,2.6 10.9,2.6 10.9,2.7 Z" id="Path"></path>
            </g>
            <path d="M88.4,43.5 C88.4,43.4 88.3,43.3 88.4,43.3 C88.4,43.2 88.5,43.2 88.6,43.1 L93.5,41.6 L88.6,40.1 C88.5,40.1 88.5,40 88.4,39.9 C88.4,39.8 88.4,39.7 88.4,39.7 L91.5,35.6 L86.7,37.3 C86.6,37.3 86.5,37.3 86.5,37.3 C86.4,37.3 86.4,37.2 86.4,37.1 L86.4,32 L83.5,36.2 C83.5,36.3 83.4,36.3 83.3,36.3 C83.2,36.3 83.1,36.3 83.1,36.2 L80.2,32 L80.3,37.1 C80.3,37.2 80.3,37.3 80.2,37.3 C80.1,37.3 80,37.4 80,37.3 L75.2,35.6 L78.3,39.7 C78.3,39.8 78.4,39.9 78.3,39.9 C78.3,40 78.2,40 78.1,40.1 L73.2,41.6 L78.1,43.1 C78.2,43.1 78.2,43.2 78.3,43.3 C78.3,43.4 78.3,43.5 78.3,43.5 L75.1,47.6 L79.9,45.9 C80,45.9 80.1,45.9 80.1,45.9 C80.1,45.9 80.2,46 80.2,46.1 L80.1,51.3 L83,47.1 C83,47 83.1,47 83.2,47 C83.3,47 83.4,47 83.4,47.1 L86.3,51.3 L86.2,46.2 C86.2,46.1 86.2,46 86.3,46 C86.4,46 86.5,45.9 86.5,46 L91.3,47.7 L88.4,43.5 Z" id="Path" fill="#CCCCCC"></path>
            <g id="Group" transform="translate(3.300000, 51.900000)" fill="#D9F1F0">
                <path d="M9.5,6.6 C8.7,6.6 2.7,6.5 0.2,4.7 L0.2,4.8 C0.8,8.8 4.7,11.8 9.5,11.8 C14.2,11.8 18.2,8.8 18.8,4.8 L18.8,4.7 C16.3,6.6 10.4,6.6 9.5,6.6 Z" id="Path"></path>
                <path d="M9.5,5.8 C14.1,5.8 19,4.8 19,2.9 C19,1 14.1,0 9.5,0 C4.9,0 0,1 0,2.9 C0,4.8 4.9,5.8 9.5,5.8 Z" id="Path"></path>
            </g>
        </g>
    </g>
</svg>