<?xml version="1.0" encoding="utf-8"?>
<!-- Generator: Adobe Illustrator 25.3.1, SVG Export Plug-In . SVG Version: 6.00 Build 0)  -->
<svg version="1.1" id="Layer_1" xmlns="http://www.w3.org/2000/svg" xmlns:xlink="http://www.w3.org/1999/xlink" x="0px" y="0px"
	 viewBox="0 0 42.8 80.8" style="enable-background:new 0 0 42.8 80.8;" xml:space="preserve">
<style type="text/css">
	.st0{fill:#FFFFFF;stroke:#000000;stroke-miterlimit:10;}
</style>
<g>
	<path class="st0" d="M12.8,76.5c0,2,1.6,3.7,3.7,3.7c2,0,3.7-1.6,3.7-3.7V62.6c-2.8-0.1-5.3-0.5-7.3-0.9V76.5z"/>
	<path class="st0" d="M30,61.7c-2,0.5-4.5,0.8-7.3,0.9v13.9c0,2,1.6,3.7,3.7,3.7c2,0,3.7-1.6,3.7-3.7V61.7z"/>
	<path class="st0" d="M21.4,61.5c9.2,0,14.6-3.1,14.6-3.1c0-4.2-0.7-9.9-1.7-15.6c-0.7-4-1.5-8-2.2-11.4c1.9,3.3,3.9,8.6,5,16.8
		c0.2,1.3,1.3,2.2,2.6,2.2c0.1,0,0.2,0,0.4,0c1.4-0.2,2.4-1.5,2.2-2.9C39.5,27.1,31.6,22.2,28.3,21c-0.7-0.3-1.8-0.6-3.3-0.7
		c-1-0.2-2.3-0.3-3.6-0.3c-1.3,0-2.6,0.1-3.6,0.3c-1.5,0.2-2.6,0.5-3.3,0.7c-3.3,1.2-11.2,6.1-13.9,26.5c-0.2,1.4,0.8,2.7,2.2,2.9
		c1.4,0.2,2.7-0.8,2.9-2.2c1.1-8.3,3.1-13.5,5-16.8c-0.7,3.4-1.5,7.4-2.2,11.4c-1,5.7-1.7,11.4-1.7,15.6
		C6.8,58.4,12.2,61.5,21.4,61.5z"/>
	<path class="st0" d="M21.4,18.6c5,0,9-4,9-9c0-5-4-9-9-9c-5,0-9,4-9,9C12.4,14.6,16.4,18.6,21.4,18.6z"/>
</g>
</svg>
