<?xml version="1.0" encoding="utf-8"?>
<!-- Generator: Adobe Illustrator 25.3.1, SVG Export Plug-In . SVG Version: 6.00 Build 0)  -->
<svg version="1.1" id="Layer_1" xmlns="http://www.w3.org/2000/svg" xmlns:xlink="http://www.w3.org/1999/xlink" x="0px" y="0px"
	 viewBox="0 0 100 100" style="enable-background:new 0 0 100 100;" xml:space="preserve">
<style type="text/css">
	.st0{fill:#FCD09A;}
	.st1{fill:#888888;}
	.st2{fill:#E19227;}
	.st3{fill:#2B2A28;}
</style>
<path class="st0" d="M234.2,78.3L234.2,78.3L234.2,78.3z"/>
<g>
	<circle class="st1" cx="50" cy="50" r="50"/>
	<rect x="17.3" y="49.6" class="st0" width="66.7" height="26.7"/>
	<path class="st2" d="M87.2,46.7l-3.1-6.4H16l-3.1,6.4c0,0-2.8,5.1-3.9,7.2c1.3-0.2,2.4-0.8,3.3-1.8c0.4-0.4,1-0.6,1.6-0.4
		c0.6,0.2,1,0.7,1.1,1.2c0.2,1,0.4,1.3,0.5,1.3c0,0,0.8,0.3,3.3-1.6c0.6-0.5,1.5-0.4,2,0.1c1.8,1.8,3.5,2,5.4,0.7
		c0.6-0.4,1.5-0.3,2,0.2c1.8,1.8,3.5,2,5.8,0.5c0.5-0.3,1.1-0.3,1.6,0c2.6,1.6,4.2,0.9,5.2,0.1c0.5-0.4,1.2-0.4,1.8,0
		c1,0.7,2.1-0.1,2.6-0.1s1,0.1,1.3,0.4c1,1.1,1.6,0.9,2.4,0.3H49c0.1,0,0.1-0.1,0.2-0.1h0.1c0.1,0,0.1-0.1,0.2-0.1h0.1
		c0.1,0,0.1,0,0.2,0H50c0.1,0,0.1,0,0.2,0h0.1c0.1,0,0.1,0,0.2,0h0.1c0,0,0.1,0,0.1,0.1c0.1,0,0.1,0.1,0.2,0.1H51
		c0.9,0.7,1.5,0.8,2.5-0.3c0.3-0.3,0.8-0.5,1.3-0.5c0.5,0.1,0.9,0.3,1.1,0.7c0,0.1,0.4,0.1,1.5-0.6c0.5-0.4,1.3-0.3,1.8,0.1
		c1,0.7,2.6,1.5,5.2-0.1c0.5-0.3,1.1-0.3,1.6,0c2.3,1.4,4.1,1.3,5.8-0.5c0.5-0.6,1.4-0.6,2-0.2c2,1.3,3.6,1.1,5.4-0.6
		c0.5-0.5,1.4-0.6,2-0.1c2.5,1.9,3.3,1.6,3.3,1.6c0.1-0.1,0.4-0.4,0.5-1.3c0.1-0.6,0.5-1.1,1.1-1.2c0.6-0.2,1.2,0,1.6,0.4
		c0.9,1,2,1.6,3.3,1.8C89.9,51.8,87.1,47.1,87.2,46.7z"/>
	<path class="st0" d="M50.2,13.9C33.3,19.4,20.6,29.6,12.5,44c1.1-0.2,2-0.7,2.8-1.5c0.4-0.4,1-0.6,1.6-0.4c0.6,0.2,1,0.7,1.1,1.2
		c0.1,0.8,0.3,1.1,0.4,1.1c0,0,0.7,0.2,3-1.5c0.6-0.5,1.5-0.4,2,0.1c1.6,1.6,3.1,1.8,4.8,0.6c0.6-0.4,1.5-0.3,2,0.2
		c1.5,1.6,3.1,1.8,5.2,0.5c0.5-0.3,1.1-0.3,1.6,0c2.4,1.4,3.7,0.8,4.6,0.1c0.5-0.4,1.2-0.4,1.8-0.1c0.6,0.4,1,0.5,1.2,0.6
		c0.2-0.4,0.6-0.6,1.1-0.7c0.5-0.1,1,0.1,1.3,0.4c0.9,0.9,1.4,0.8,2.1,0.3l0,0c0.2-0.2,0.5-0.3,0.8-0.3c0,0,0,0,0.1,0s0.2,0,0.2,0
		h0.1c0.1,0,0.1,0,0.2,0c0.2,0.1,0.4,0.2,0.5,0.3l0,0c0.7,0.6,1.2,0.7,2.1-0.2c0.3-0.3,0.8-0.5,1.3-0.5c0.5,0.1,0.9,0.3,1.1,0.7
		c0.1,0,0.4-0.1,1.2-0.6c0.5-0.4,1.3-0.4,1.8,0c0.9,0.7,2.3,1.3,4.7-0.1c0.5-0.3,1.1-0.3,1.6,0c2.1,1.3,3.7,1.2,5.2-0.5
		c0.5-0.6,1.4-0.7,2-0.2c1.7,1.2,3.2,1,4.8-0.6c0.5-0.5,1.4-0.6,2-0.1c2.2,1.7,2.9,1.5,3,1.5c0,0,0.3-0.3,0.4-1.1
		c0.1-0.6,0.5-1.1,1.1-1.2c0.6-0.2,1.2,0,1.6,0.4c0.7,0.8,1.7,1.3,2.8,1.5C79.9,29.6,67.2,19.5,50.2,13.9z"/>
	<path class="st3" d="M51.5,58.8h-2.9c-3,0-5.5,2.5-5.5,5.5v12H57v-12C57,61.3,54.5,58.8,51.5,58.8z"/>
</g>
</svg>
