<?xml version="1.0" encoding="utf-8"?>
<!-- Generator: Adobe Illustrator 25.3.1, SVG Export Plug-In . SVG Version: 6.00 Build 0)  -->
<svg version="1.1" id="Layer_1" xmlns="http://www.w3.org/2000/svg" xmlns:xlink="http://www.w3.org/1999/xlink" x="0px" y="0px"
	 viewBox="0 0 100 100" style="enable-background:new 0 0 100 100;" xml:space="preserve">
<style type="text/css">
	.st0{fill:#FCD09A;}
	.st1{fill:#3B3F3D;}
	.st2{fill:#FFFFFF;}
</style>
<polygon class="st0" points="86.1,83.9 86.1,83.9 86.2,83.9 "/>
<g>
	<circle class="st1" cx="50.2" cy="50" r="50.2"/>
	<path class="st0" d="M57.3,76.7l12,0.9l3.8-2.7l-0.5-2.3c-1.6-1.2-3.2-2.3-5-3.4l-5.7-1.5l0,1.6c0,0.4-0.2,0.8-0.5,1.1l-4.1,4.6
		V76.7z"/>
	<path class="st0" d="M57.3,80.9l2.6,1.8c0.3,0.2,0.6,0.5,0.7,0.9l2.1,6.8c2.8,0,5.5,0,8.3,0l4.9-3.5V82l-6.4-1.2v0l-12.2-1V80.9z"
		/>
	<path class="st0" d="M79.6,79.1c-1-1.1-2.1-2.2-3.2-3.3c-0.1,0.4-0.3,0.8-0.6,1.1l-2.1,1.5l4,0.7H79.6z"/>
	<path class="st0" d="M82.3,82.3H79v5.4c0,0.6-0.3,1.1-0.8,1.3l-5.9,4.2c-0.3,0.2-0.6,0.3-0.9,0.3l-3.4,0v3.4
		c2.3-0.9,4.5-1.9,6.7-3.1c0.2-0.7,0.8-1.2,1.5-1.2h0.5c3-1.9,5.8-4,8.3-6.5C84.2,84.8,83.3,83.5,82.3,82.3z"/>
	<path class="st0" d="M49.4,100.2c0.3,0,0.6,0,0.8,0c5.1,0,10.1-0.8,14.8-2.2v-4.5c-3.8,0-7.6,0-11.4,0L49.4,100.2z"/>
	<path class="st0" d="M31.3,96.5c3.5,1.4,7.1,2.4,10.9,3.1l-6.3-5.7h-3.8c-0.3,0.8-0.6,1.5-0.9,2.2V96.5z"/>
	<path class="st0" d="M41.6,83.6l-5.4-1.8c-0.3-0.1-0.6-0.3-0.7-0.5l0,0l-5.5-7.3l-3.5,0.6c6.3,5.5,7.4,11.3,6.6,16.3h3.2l9.1-5.3
		l2.2-3.5l-4.6,1.6C42.4,83.7,41.9,83.7,41.6,83.6z"/>
	<path class="st0" d="M54.2,81.7l0-1.7L52,80.4l-3.6,5.9l4.9,4.2l6.1,0L57.7,85l-2.9-2C54.4,82.7,54.2,82.2,54.2,81.7z"/>
	<path class="st0" d="M51,72.2l-3.5-2.5l-3.7,3.6v6.6l6.7-2.4c0.1,0,0.2-0.1,0.3-0.1l3.4-0.6v-2.3c0-0.4,0.2-0.8,0.5-1.1l1.4-1.6
		l-3.9,0.7C51.8,72.6,51.3,72.5,51,72.2z"/>
	<polygon class="st0" points="39.2,92.6 46,98.7 50.6,92.3 46.2,88.5 	"/>
	<path class="st0" d="M10,56.1c0,1,0.2,2,0.6,3.1h2.8L10,56.1z"/>
	<path class="st0" d="M21.7,51.9l-4.4-3.8l-5.7,3.3c-0.3,0.4-0.5,0.8-0.7,1.3l6.3,5.7L21.7,51.9z"/>
	<path class="st0" d="M47,46.5v-4.9l-6.4-1.2l-12.2-1v1.1l2.6,1.8c0.3,0.2,0.6,0.5,0.7,0.9l2.1,6.8c2.8,0,5.5,0,8.3,0L47,46.5z"/>
	<path class="st0" d="M32.2,36.2c-0.1,0.1-0.3,0.2-0.4,0.3l8.6,0.7l3.8-2.7l-1-4.5l-6.2-1.6C37.4,30.6,36.1,33.1,32.2,36.2z"/>
	<path class="st0" d="M46.9,36.5L44.8,38l4,0.7H59l0.4-4c-4.2-1.3-8.4-2.5-12.7-3.7l0.8,4C47.6,35.5,47.4,36.2,46.9,36.5z"/>
	<path class="st0" d="M20.3,59.3h15.8v-6.1c-3.8,0-7.6,0-11.4,0L20.3,59.3z"/>
	<path class="st0" d="M19.5,45.9l4.9,4.2l6.1,0l-1.7-5.4l-2.9-2c-0.4-0.3-0.7-0.8-0.7-1.3l0-0.4c-1.5,0.9-3,1.8-4.4,2.7L19.5,45.9z"
		/>
	<path class="st0" d="M48.6,56.4l-0.4,2.8h2.8C50,58.3,49.2,57.3,48.6,56.4z"/>
	<path class="st0" d="M34.7,62.4H25v0H12.3c2,2.8,5.5,6,10.8,9.6c0.2,0.2,0.5,0.3,0.7,0.5c0.2-0.5,0.6-0.9,1.2-1l4.5-0.7l4.7-8
		C34.5,62.6,34.6,62.5,34.7,62.4z"/>
	<path class="st0" d="M40.9,62.4h-4.3c0.6,0.4,0.9,1.2,0.4,2l-4.6,7.7l5.2,6.8l3,1l0-7.3c0-0.4,0.2-0.8,0.5-1.1l3.8-3.7l-4-2.9
		C39.8,64.2,40.1,63,40.9,62.4z"/>
	<path class="st0" d="M42.6,62.4C42.7,62.4,42.7,62.4,42.6,62.4c3.2,2.3,6.4,4.6,9.6,7l6.4-1.2v-3.6c-1.3-0.7-2.5-1.5-3.6-2.2H42.6z
		"/>
	<path class="st0" d="M57.1,41.8h-6.9v5.4c0,0.1,0,0.1,0,0.2c1.8-1.9,4.3-3.6,6.4-5.2C56.7,42.1,56.9,42,57.1,41.8z"/>
	<path class="st0" d="M45.9,53.7c0-0.8,2.2-3.6,2.9-4.6l-5.2,3.8c-0.3,0.2-0.6,0.3-0.9,0.3l-3.4,0v0v6.1h5.9L45.9,53.7z"/>
	<path class="st0" d="M39.5,15.4c-1.6-0.7-3.4-1.3-5.2-1.9c-0.9-0.3-1.7-0.6-2.4-0.8L30,14.2l7.8,4.8L39.5,15.4z"/>
	<path class="st0" d="M49.8,20.9l-3.5,0.7v0l-12.4,2.3c0.3,0.3,0.6,0.5,0.9,0.8c7.2,1.8,13.5,3.5,20.8,5.6l1.6-2.2
		C55.6,25.7,53.2,23.2,49.8,20.9z"/>
	<path class="st0" d="M27,16l-4.2,0.8c2.5,1.6,5.2,3.1,7.5,4.5l0.4-0.1c0.3-0.1,0.5-0.2,0.8-0.2l2.8-0.5L27,16z"/>
	<path class="st0" d="M21.3,13.9l5.4-1l1.8-1.6c-2.7-1-4.8-2-6.5-2.9c-1.1,0.8-2.2,1.6-3.3,2.4L21.3,13.9z"/>
	<path class="st0" d="M42.4,16.6l-1.3,2.7l4.8-0.9C44.8,17.8,43.6,17.2,42.4,16.6z"/>
	<path class="st2" d="M66.2,53.7c0.9-1.8,1.6-3.7,2.1-5.7c0.6-2.4,0.9-4.8,0.9-7.2v-8.1c0-0.2-0.1-0.3-0.2-0.5l-3.6-4.3
		c0,0-2.5-3-2.5-3l0.4-1.7l4.8,4.2c0.3,0.3,0.7,0.2,1-0.1c0.1-0.1,0.2-0.3,0.2-0.5V16.5c0-0.3,0.2-0.6,0.5-0.7l2.8-1.1
		c0.4-0.1,0.8,0,0.9,0.4c0,0.1,0,0.2,0,0.2v21c0,0.4,0.3,0.7,0.7,0.7c0.2,0,0.4-0.1,0.5-0.2l1.3-1.3c0.3-0.3,0.7-0.3,1,0
		c0.1,0.1,0.2,0.3,0.2,0.5c0,0.2-0.1,0.4-0.2,0.5L73.7,40c-0.1,0.1-0.2,0.3-0.2,0.5v0.3c0,4.5,1.1,8.9,3.1,12.9H66.2z"/>
	<path class="st2" d="M81.4,63.6c2-2.8,3.1-5.8,3.1-8.9v-0.2c0-0.1-0.1-0.3-0.2-0.3L81,51.9c-0.1-0.1-0.2-0.2-0.2-0.3
		c0-0.1,0.1-0.3,0.2-0.3c0.3-0.2,0.7-0.2,1,0l1.3,0.9c0.1,0.1,0.3,0.1,0.5,0.1c0.4,0,0.7-0.2,0.7-0.5V37.2c0-0.1,0-0.1,0-0.2
		c0.1-0.3,0.5-0.4,0.9-0.3l2.8,0.7c0.3,0.1,0.5,0.3,0.5,0.5v7.1c0,0.1,0.1,0.2,0.2,0.3c0.3,0.2,0.7,0.2,1,0l4.8-2.9l0.4,1.2
		c0,0-2.5,2.1-2.5,2.1l-3.6,3c-0.1,0.1-0.2,0.2-0.2,0.3v5.6c0,1.7,0.3,3.4,0.9,5c0.5,1.4,1.2,2.7,2.1,3.9H81.4z"/>
</g>
</svg>
