<?xml version="1.0" encoding="utf-8"?>
<!-- Generator: Adobe Illustrator 25.3.1, SVG Export Plug-In . SVG Version: 6.00 Build 0)  -->
<svg version="1.1" id="Layer_1" xmlns="http://www.w3.org/2000/svg" xmlns:xlink="http://www.w3.org/1999/xlink" x="0px" y="0px"
	 viewBox="0 0 747.2 428.2" style="enable-background:new 0 0 747.2 428.2;" xml:space="preserve">
<style type="text/css">
	.st0{fill:#3B3F3D;}
	.st1{fill:#FCD09A;stroke:#000000;stroke-width:0.5;stroke-miterlimit:10;}
	.st2{fill:#E19227;stroke:#000000;stroke-width:0.5;stroke-miterlimit:10;}
	.st3{fill:#2B2A28;stroke:#000000;stroke-width:0.5;stroke-miterlimit:10;}
	.st4{fill-rule:evenodd;clip-rule:evenodd;fill:#E19227;stroke:#000000;stroke-width:0.5;stroke-miterlimit:10;}
	.st5{fill:#FCD09A;stroke:#010101;stroke-width:0.5;stroke-miterlimit:10;}
	.st6{fill:#9E8F83;stroke:#010101;stroke-width:0.5;stroke-miterlimit:10;}
	.st7{fill:#FFFFFF;stroke:#000000;stroke-width:0.5;stroke-miterlimit:10;}
</style>
<path class="st0" d="M747.2,428.1C747.2-75.2,0-75.2,0,428.1H747.2z"/>
<g>
	<g>
		<rect x="56.8" y="195.4" transform="matrix(0.5 -0.866 0.866 0.5 -138.3144 164.4827)" class="st1" width="33" height="13.2"/>
		<path class="st2" d="M75.3,182.4l-3.5-0.3L55,211.3l2,2.9c0,0,1.5,2.5,2.1,3.5c0.2-0.6,0.3-1.2,0.1-1.9c-0.1-0.3,0-0.6,0.2-0.8
			c0.2-0.2,0.5-0.3,0.8-0.2c0.5,0.2,0.7,0.1,0.7,0.1c0,0,0.3-0.3,0.1-1.8c-0.1-0.4,0.2-0.7,0.6-0.8c1.2-0.3,1.7-1,1.6-2.2
			c0-0.4,0.2-0.7,0.6-0.8c1.2-0.3,1.7-1,1.7-2.4c0-0.3,0.1-0.6,0.4-0.7c1.4-0.7,1.4-1.6,1.3-2.2c0-0.3,0.1-0.6,0.4-0.8
			c0.6-0.3,0.5-0.9,0.6-1.2c0.1-0.2,0.3-0.4,0.5-0.4c0.7-0.2,0.8-0.5,0.7-1c0,0,0,0,0,0c0,0,0-0.1,0-0.1c0,0,0,0,0,0
			c0,0,0-0.1,0-0.1c0,0,0,0,0,0c0,0,0-0.1,0-0.1c0,0,0,0,0,0c0,0,0-0.1,0-0.1c0,0,0,0,0,0c0,0,0,0,0.1-0.1c0,0,0,0,0.1,0
			c0,0,0,0,0.1,0c0,0,0.1,0,0.1,0c0,0,0,0,0,0c0.5-0.2,0.7-0.4,0.5-1.1c-0.1-0.2,0-0.5,0.1-0.7c0.1-0.2,0.4-0.3,0.6-0.3
			c0,0,0.2-0.2,0.1-0.8c0-0.3,0.2-0.6,0.5-0.7c0.6-0.2,1.3-0.7,1.2-2.3c0-0.3,0.1-0.6,0.4-0.7c1.2-0.6,1.6-1.4,1.2-2.6
			c-0.1-0.4,0.1-0.7,0.4-0.9c1.1-0.5,1.4-1.3,1.1-2.5c-0.1-0.4,0.1-0.8,0.4-0.9c1.4-0.6,1.5-1,1.5-1c0-0.1-0.1-0.3-0.4-0.5
			c-0.2-0.2-0.3-0.5-0.3-0.8c0.1-0.3,0.3-0.5,0.6-0.6c0.7-0.1,1.2-0.5,1.6-1C78.2,182.4,75.5,182.5,75.3,182.4z"/>
		<path class="st1" d="M52.2,190.1c-1.8,8.6-0.6,16.5,3.6,23.5c0.2-0.5,0.2-1,0-1.6c-0.1-0.3,0-0.6,0.2-0.8c0.2-0.2,0.5-0.3,0.8-0.2
			c0.4,0.1,0.5,0.1,0.6,0.1c0,0,0.3-0.3,0.1-1.6c-0.1-0.4,0.2-0.7,0.6-0.8c1.1-0.3,1.5-0.9,1.4-1.9c0-0.4,0.2-0.7,0.6-0.8
			c1.1-0.2,1.5-0.9,1.5-2.1c0-0.3,0.1-0.6,0.4-0.7c1.2-0.7,1.3-1.4,1.2-2c0-0.3,0.1-0.6,0.4-0.8c0.3-0.2,0.5-0.3,0.5-0.4
			c-0.1-0.2-0.1-0.4,0-0.6c0.1-0.2,0.3-0.4,0.5-0.5c0.6-0.2,0.7-0.4,0.6-0.9c0,0,0,0,0,0c0-0.2,0-0.3,0.1-0.4c0,0,0,0,0,0
			c0,0,0-0.1,0.1-0.1c0,0,0,0,0,0c0,0,0-0.1,0.1-0.1c0.1-0.1,0.2-0.1,0.3-0.2c0,0,0,0,0,0c0.4-0.2,0.6-0.4,0.4-1
			c-0.1-0.2,0-0.5,0.1-0.7c0.1-0.2,0.4-0.3,0.6-0.3c0,0,0.1-0.2,0-0.6c0-0.3,0.2-0.6,0.5-0.8c0.5-0.2,1.1-0.7,1.1-2.1
			c0-0.3,0.1-0.6,0.4-0.7c1.1-0.6,1.4-1.3,1.1-2.3c-0.1-0.4,0.1-0.8,0.4-0.9c1-0.4,1.2-1.1,0.9-2.2c-0.1-0.4,0.1-0.8,0.4-0.9
			c1.3-0.5,1.4-0.9,1.4-0.9c0,0,0-0.2-0.4-0.4c-0.2-0.2-0.3-0.5-0.3-0.8c0.1-0.3,0.3-0.5,0.6-0.6c0.5-0.1,1-0.4,1.3-0.8
			C66.2,181.3,58.8,184.2,52.2,190.1z"/>
	</g>
	<g>
		<rect x="15.4" y="268.2" transform="matrix(0.5 -0.866 0.866 0.5 -222.6532 160.5979)" class="st1" width="24.7" height="9.9"/>
		<path class="st2" d="M29.3,258.4l-2.6-0.2L14.1,280l1.5,2.2c0,0,1.1,1.8,1.6,2.6c0.2-0.5,0.2-0.9,0-1.4c-0.1-0.2,0-0.4,0.2-0.6
			c0.2-0.2,0.4-0.2,0.6-0.1c0.3,0.1,0.5,0.1,0.5,0.1c0,0,0.2-0.2,0.1-1.4c0-0.3,0.1-0.6,0.4-0.6c0.9-0.3,1.3-0.8,1.2-1.6
			c0-0.3,0.2-0.5,0.4-0.6c0.9-0.2,1.3-0.8,1.3-1.8c0-0.2,0.1-0.4,0.3-0.5c1-0.5,1.1-1.2,1-1.6c0-0.2,0.1-0.5,0.3-0.6
			c0.4-0.2,0.4-0.7,0.4-0.9c0.1-0.2,0.2-0.3,0.4-0.3c0.5-0.1,0.6-0.4,0.5-0.7c0,0,0,0,0,0c0,0,0,0,0-0.1c0,0,0,0,0,0c0,0,0,0,0-0.1
			c0,0,0,0,0,0c0,0,0,0,0-0.1c0,0,0,0,0,0c0,0,0,0,0-0.1c0,0,0,0,0,0c0,0,0,0,0-0.1c0,0,0,0,0,0c0,0,0,0,0,0c0,0,0,0,0.1,0
			c0,0,0,0,0,0c0.4-0.2,0.5-0.3,0.4-0.9c0-0.2,0-0.4,0.1-0.5c0.1-0.1,0.3-0.2,0.4-0.2c0,0,0.1-0.1,0.1-0.6c0-0.2,0.1-0.5,0.3-0.6
			c0.4-0.2,1-0.5,0.9-1.7c0-0.2,0.1-0.4,0.3-0.5c0.9-0.5,1.2-1.1,0.9-1.9c-0.1-0.3,0-0.6,0.3-0.7c0.8-0.4,1-1,0.8-1.9
			c-0.1-0.3,0.1-0.6,0.3-0.7c1.1-0.5,1.1-0.8,1.1-0.8c0-0.1-0.1-0.2-0.3-0.4c-0.2-0.1-0.2-0.4-0.2-0.6c0-0.2,0.2-0.4,0.4-0.4
			c0.5-0.1,0.9-0.4,1.2-0.7C31.4,258.5,29.4,258.5,29.3,258.4z"/>
		<path class="st1" d="M11.9,264.2c-1.4,6.5-0.5,12.4,2.7,17.6c0.1-0.4,0.1-0.8,0-1.2c-0.1-0.2,0-0.4,0.2-0.6
			c0.2-0.2,0.4-0.2,0.6-0.1c0.3,0.1,0.4,0.1,0.4,0.1c0,0,0.2-0.2,0.1-1.2c0-0.3,0.1-0.6,0.4-0.6c0.8-0.2,1.1-0.6,1.1-1.4
			c0-0.3,0.2-0.5,0.4-0.6c0.8-0.2,1.1-0.7,1.1-1.6c0-0.2,0.1-0.4,0.3-0.5c0.9-0.5,1-1,0.9-1.5c0-0.2,0.1-0.5,0.3-0.6
			c0.3-0.1,0.4-0.2,0.4-0.3c-0.1-0.1-0.1-0.3,0-0.5c0.1-0.2,0.2-0.3,0.4-0.3c0.5-0.1,0.5-0.3,0.5-0.6c0,0,0,0,0,0c0-0.1,0-0.2,0-0.3
			c0,0,0,0,0,0c0,0,0-0.1,0-0.1c0,0,0,0,0,0c0,0,0,0,0.1-0.1c0.1-0.1,0.1-0.1,0.2-0.1c0,0,0,0,0,0c0.3-0.1,0.5-0.3,0.3-0.7
			c0-0.2,0-0.4,0.1-0.5c0.1-0.1,0.3-0.2,0.4-0.2c0,0,0.1-0.2,0-0.5c0-0.2,0.1-0.5,0.3-0.6c0.4-0.2,0.9-0.5,0.8-1.5
			c0-0.2,0.1-0.4,0.3-0.5c0.8-0.4,1.1-1,0.8-1.8c-0.1-0.3,0-0.6,0.3-0.7c0.7-0.3,0.9-0.8,0.7-1.7c-0.1-0.3,0.1-0.6,0.3-0.7
			c1-0.4,1-0.7,1-0.7c0,0,0-0.1-0.3-0.3c-0.2-0.1-0.2-0.4-0.2-0.6c0.1-0.2,0.2-0.4,0.4-0.4c0.4-0.1,0.7-0.3,1-0.6
			C22.5,257.6,16.9,259.8,11.9,264.2z"/>
	</g>
	<g>
		<rect x="20.7" y="227.4" transform="matrix(0.5 -0.866 0.866 0.5 -182.0463 163.2349)" class="st1" width="59.3" height="23.7"/>
		<path class="st2" d="M54,204l-6.3-0.5l-30.2,52.3l3.5,5.2c0,0,2.7,4.4,3.8,6.3c0.4-1.1,0.5-2.2,0.1-3.4c-0.2-0.5,0-1.1,0.4-1.4
			c0.4-0.4,0.9-0.5,1.4-0.3c0.8,0.3,1.2,0.2,1.2,0.2c0,0,0.6-0.5,0.2-3.3c-0.1-0.7,0.3-1.3,1-1.5c2.2-0.6,3.1-1.8,2.9-3.9
			c-0.1-0.7,0.4-1.3,1-1.4c2.2-0.5,3.1-1.8,3-4.2c0-0.5,0.3-1,0.7-1.3c2.4-1.3,2.5-2.9,2.4-4c-0.1-0.6,0.2-1.1,0.8-1.4
			c1-0.5,0.9-1.7,1.1-2.1c0.2-0.4,0.5-0.7,0.9-0.8c1.3-0.3,1.4-0.9,1.3-1.8c0,0,0-0.1,0-0.1c0-0.1,0-0.1,0-0.2c0,0,0-0.1,0-0.1
			c0-0.1,0-0.1,0-0.2c0,0,0-0.1,0-0.1c0-0.1,0-0.1,0.1-0.2c0,0,0-0.1,0-0.1c0-0.1,0.1-0.1,0.1-0.1c0,0,0,0,0.1-0.1
			c0,0,0.1-0.1,0.1-0.1c0,0,0.1-0.1,0.1-0.1c0,0,0.1-0.1,0.1-0.1c0,0,0.1-0.1,0.2-0.1c0,0,0,0,0.1,0c0.9-0.4,1.3-0.8,0.9-2.1
			c-0.1-0.4,0-0.8,0.2-1.2c0.2-0.3,0.6-0.5,1.1-0.6c0.1,0,0.3-0.3,0.2-1.4c0-0.6,0.3-1.1,0.8-1.3c1-0.4,2.3-1.3,2.2-4.1
			c0-0.5,0.3-1,0.7-1.3c2.1-1.1,2.8-2.6,2.2-4.7c-0.2-0.6,0.1-1.3,0.7-1.6c1.9-0.9,2.5-2.3,1.9-4.4c-0.2-0.7,0.2-1.4,0.8-1.6
			c2.6-1.1,2.7-1.8,2.7-1.9c0-0.1-0.2-0.5-0.8-1c-0.4-0.3-0.6-0.9-0.5-1.4c0.1-0.5,0.5-0.9,1-1c1.2-0.3,2.1-0.8,2.9-1.8
			C59.2,204.1,54.3,204.3,54,204z"/>
		<path class="st1" d="M12.4,217.8c-3.3,15.5-1.1,29.7,6.4,42.3c0.3-0.9,0.3-1.9,0-2.8c-0.2-0.5,0-1.1,0.4-1.4
			c0.4-0.4,0.9-0.5,1.4-0.3c0.7,0.3,1,0.2,1,0.2c0,0,0.5-0.5,0.2-2.9c-0.1-0.7,0.3-1.3,1-1.5c2-0.5,2.8-1.6,2.6-3.4
			c-0.1-0.7,0.4-1.3,1.1-1.5c1.9-0.4,2.7-1.6,2.7-3.8c0-0.5,0.3-1,0.7-1.3c2.2-1.2,2.3-2.5,2.2-3.5c-0.1-0.6,0.2-1.1,0.7-1.4
			c0.6-0.3,0.9-0.5,1-0.7c-0.2-0.4-0.2-0.8-0.1-1.1c0.2-0.4,0.5-0.7,0.9-0.8c1.1-0.3,1.3-0.7,1.2-1.5c0,0,0,0,0,0
			c0-0.3,0-0.5,0.1-0.8c0,0,0,0,0,0c0-0.1,0.1-0.1,0.1-0.2c0,0,0,0,0-0.1c0-0.1,0.1-0.1,0.1-0.1c0.1-0.1,0.3-0.2,0.5-0.3
			c0,0,0,0,0,0c0.7-0.3,1.1-0.6,0.8-1.7c-0.1-0.4,0-0.8,0.2-1.2c0.3-0.3,0.6-0.5,1.1-0.6c0-0.1,0.1-0.4,0.1-1.2
			c0-0.6,0.3-1.1,0.8-1.4c1-0.4,2.1-1.2,2-3.7c0-0.5,0.3-1,0.7-1.2c2-1,2.5-2.3,2-4.2c-0.2-0.7,0.1-1.4,0.7-1.6c1.7-0.8,2.2-2,1.7-4
			c-0.2-0.7,0.2-1.4,0.8-1.6c2.3-0.9,2.5-1.6,2.5-1.6c0,0-0.1-0.3-0.7-0.8c-0.4-0.3-0.6-0.9-0.5-1.4c0.1-0.5,0.5-0.9,1-1
			c1-0.2,1.8-0.7,2.4-1.4C37.6,202,24.2,207.2,12.4,217.8z"/>
		<path class="st3" d="M47.5,236.8l-1.3,2.3c-1.3,2.3-0.5,5.4,1.8,6.7l9.2,5.3l6.2-10.7l-9.2-5.3C51.9,233.7,48.8,234.5,47.5,236.8z
			"/>
	</g>
</g>
<g>
	<path class="st4" d="M138.8,101.5l4.7-2.4l5.4-6.2l14.1-3.2l9.2,9.5L169.5,86l2.3-10.7l14.4-0.8l3.9-4.7l14.7-0.7l9.4,16.2
		l-69.9,40.3l-9.4-16.2L138.8,101.5L138.8,101.5z"/>
	<path class="st5" d="M204.6,111.8l5.9-3l1.3-1.9l-0.7-0.6c-1,0.1-2,0.1-3,0.3l-3,1.1l0.3,0.5c0.1,0.1,0.1,0.3,0,0.5l-1.1,2.6
		L204.6,111.8L204.6,111.8z"/>
	<path class="st5" d="M205.4,113.1l1.6-0.1c0.2,0,0.4,0,0.5,0.1l2.3,1.6c1.3-0.8,2.6-1.5,4-2.3l1.7-2.5l-0.9-1.5l-3.3,1.4l0,0
		l-6,3.1L205.4,113.1L205.4,113.1z"/>
	<polygon class="st5" points="221.8,109.6 217.3,112.2 217.9,113.8 224.5,110 	"/>
	<path class="st5" d="M215.7,106.4c-0.7-0.1-1.4-0.1-2.2-0.1c0,0.2,0,0.3-0.1,0.5l-0.7,1l2-0.9L215.7,106.4L215.7,106.4z"/>
	<path class="st5" d="M214.5,113.2l-1.6,0.9l0,0l1.1,1.9l2.8-1.6l-0.7-2c-0.1-0.3,0.1-0.7,0.5-0.9l4.5-2.6l-0.3-1.5
		c-1-0.3-2-0.6-3.2-0.8l-1.6,0.9l1,1.7c0.1,0.2,0,0.4-0.1,0.6l-2,2.9C214.8,113,214.6,113.1,214.5,113.2z"/>
	<path class="st5" d="M211.4,115c-1.8,1-3.6,2.1-5.5,3.2l-1,3.1l7.5-4.4L211.4,115z"/>
	<path class="st5" d="M197.6,123.1l-1.8,1c0,0.3,0,0.6,0,0.9l0.7,1.1l5.3-3L197.6,123.1z"/>
	<path class="st5" d="M198.4,118.3l-2.9,0.9c-0.2,0.1-0.3,0.1-0.5,0l0,0l-4-0.8l-1.6,1.1c4,0,5.6,1.5,6.1,3.3l1.5-0.9l3.4-4.2
		l0.4-1.7l-1.9,1.8C198.8,118.1,198.6,118.3,198.4,118.3z"/>
	<path class="st5" d="M204.1,114.2l-0.3-0.5l-1,0.7l-0.6,2.8l3.1,0l2.9-1.7l-1.8-1.2l-1.8,0.1C204.3,114.5,204.2,114.4,204.1,114.2z
		"/>
	<path class="st5" d="M200.8,112.1l-2.1,0.2l-1.1,2.2l1.2,2.1l2.8-2.6c0,0,0.1-0.1,0.1-0.1l1.5-1.1l-0.4-0.7c-0.1-0.1-0.1-0.3,0-0.5
		l0.4-0.9l-1.7,1.3C201.2,112,201,112.1,200.8,112.1z"/>
	<polygon class="st5" points="198.9,121.8 203.3,121.9 204.3,118.6 201.5,118.6 	"/>
	<path class="st5" d="M178.3,118.3c0.2,0.3,0.5,0.6,0.9,0.8l1.4-0.8L178.3,118.3z"/>
	<path class="st5" d="M183.1,113.7l-2.8,0l-2.1,2.6c-0.1,0.2-0.1,0.4-0.1,0.6l4,0.1L183.1,113.7z"/>
	<path class="st5" d="M194.2,105.1l-0.9-1.5l-3.3,1.4l-6,3.1l0.2,0.4l1.6-0.1c0.2,0,0.4,0,0.5,0.1l2.3,1.6c1.3-0.8,2.6-1.5,4-2.3
		L194.2,105.1z"/>
	<path class="st5" d="M185.2,105.9c0,0.1-0.1,0.1-0.1,0.2l4.2-2.2l1.3-1.9l-1.3-1.2l-3.2,1.2C186.7,102.7,186.5,103.9,185.2,105.9z"
		/>
	<path class="st5" d="M192.3,101.9l-0.7,1l2-0.9l4.9-2.8l-0.5-1.4c-2.3,0.7-4.5,1.5-6.8,2.3l1.1,1
		C192.5,101.4,192.5,101.7,192.3,101.9z"/>
	<path class="st5" d="M183.8,116.5l7.5-4.4l-1.1-1.9c-1.8,1-3.6,2.1-5.5,3.2L183.8,116.5z"/>
	<path class="st5" d="M180.9,112.5l3.1,0l2.9-1.7l-1.8-1.2l-1.8,0.1c-0.3,0-0.5-0.1-0.5-0.2l-0.1-0.1c-0.5,0.7-1.1,1.4-1.6,2.1
		L180.9,112.5z"/>
	<path class="st5" d="M196.8,107.8l0.3,1l1.3-0.8C197.8,108,197.2,107.9,196.8,107.8z"/>
	<path class="st5" d="M191.2,113.5l-4.6,2.7l0,0l-6.1,3.5c1.5,0.3,3.7,0.4,6.9,0c0.1,0,0.3,0,0.4,0c0-0.2,0.1-0.4,0.4-0.6l2-1.5
		l0.8-3.8C191.2,113.6,191.2,113.6,191.2,113.5z"/>
	<path class="st5" d="M194.2,111.8l-2,1.2c0.4,0,0.7,0.1,0.6,0.5l-0.8,3.7l3.7,0.7l1.6-0.5l-1.3-2.3c-0.1-0.1-0.1-0.3,0-0.5l1.1-2.2
		l-2.5,0.2C194,112.7,193.9,112.2,194.2,111.8z"/>
	<path class="st5" d="M195,111.3L195,111.3c2-0.2,3.9-0.3,5.9-0.5l2.9-2.2l-0.7-1.1c-0.8,0.1-1.5,0.2-2.1,0.3L195,111.3z"/>
	<path class="st5" d="M198.2,100.8l-3.3,1.9l1,1.7c0,0,0,0,0,0.1c0.5-1.1,1.4-2.3,2.1-3.4C198,101,198.1,100.9,198.2,100.8z"/>
	<path class="st5" d="M195,107.7c-0.1-0.3,0.4-1.8,0.6-2.3l-1.8,2.6c-0.1,0.1-0.2,0.3-0.4,0.3l-1.6,0.9l0,0l1.1,1.9l2.8-1.6
		L195,107.7z"/>
	<g>
		<path class="st5" d="M184.9,97.3c-0.9,0.2-1.9,0.5-2.9,0.8c-0.5,0.1-0.9,0.3-1.3,0.4l-0.6,1l4.6-0.6L184.9,97.3z"/>
		<path class="st5" d="M190.9,96.2l-1.6,1.2l0,0l-5.5,4.2c0.2,0,0.4,0,0.6,0c3.8-1.4,7.1-2.6,10.9-4l0.4-1.1
			C194.5,96.1,192.9,96,190.9,96.2z"/>
		<path class="st5" d="M179.1,100.9l-1.9,1.4c1.5-0.2,3-0.4,4.4-0.6l0.2-0.1c0.1-0.1,0.2-0.2,0.4-0.3l1.3-0.9L179.1,100.9z"/>
		<path class="st5" d="M178.3,100l0.6-1c-4.9,1.4-8.2,2.4-8.2,2.4l-1.3,1.8l6-1L178.3,100z"/>
		<path class="st5" d="M186.5,96.9l-0.1,1.2l2.1-1.6C187.9,96.6,187.2,96.7,186.5,96.9z"/>
	</g>
	<path class="st6" d="M231.2,83.5l0-5.4l-1.5,0.4l0.3,4.3l-4.3,5.1l-3.5-4.8l5.1-6.4l1.7-5.7l-1.3,0.8l-1.3,4.3l-5.2,5.5l-1.3-4.6
		l-0.7-4l4.7-8.2l-0.9-0.9l-4.7,7.9l-0.4,4.1l-2.6-2.8l-3.9-2.8l-0.7,0.5l3.8,2.8l2.2,3l-5.1-0.7l-7.9-4.3l-0.7,0.9l8.1,4.4l7.2,1.4
		l2.7,7.9l3.8,5.7l-3.9-2l-8.2-5.7l-1.3,1.1l8.1,6.1l5.5,3.2l1.7,3c0,0,2.2,4.4,3.3,6.7l3.7-2.2l-3.5-5.7l2.1-5.9l-1.1-1.2l-2.3,4.6
		l-2.3-4.5L231.2,83.5z"/>
	<path class="st6" d="M146.4,114.5l4.7-1l1.6,3.1l-1.8,0.2l-2.2-1.3l-0.6,0.7l2.8,1.4l2.5,0l1.8,2.4l2.2,4.3l2.6-1.5
		c-1-1.3-2.3-3.1-2.3-3.1l-1.1-1.7l-0.3-3.7l-1.8-3.8l-0.9,0.4l1.6,3.8l0,2.6l-2-3.5l-3.5-3.4l1.1-4.1l-0.6,0l-1,2.9l-1-1.9
		l-1.7-2.2l-0.4,0.2l1.6,2.3l0.8,2.1l-2.3-0.9l-5.4,0.4l0.2,0.7l5.5-0.3l1.9,1.4l2.1,1.9l-4.2,1.3l-2.6-0.4l-0.8,0.4L146.4,114.5z"
		/>
	<polygon class="st6" points="136.8,125.9 139.2,132.7 138.9,137.2 135.8,131 130.1,124.6 132.6,117.5 131.5,117.4 129.5,122.3 
		127.9,118.9 125.2,114.9 124.4,115.3 127,119.4 128.2,123.1 124.4,121.4 117.7,116.6 118,117.8 125,122.8 128.1,125.5 131.5,129 
		124.2,127.8 119.8,126.7 118.4,127.4 124.3,128.8 132.3,130.6 134.7,136.1 132.3,135.2 128.3,133.1 127.5,133.8 132.3,136.5 
		135.8,137.8 137.6,140.4 142.1,148.3 145.8,146.2 140.9,140.6 141.2,134.4 141.2,132.2 138.5,125.3 	"/>
</g>
<g>
	<path class="st2" d="M526.4,86.9c-0.6,0.2-1.1,0.4-1.5,0.8l4.3-7.5c1,0.7,3.4,2,5.4,1.5c2.1-0.6,3.5-3,4-4.1
		c-1-0.7-3.4-2.1-5.5-1.6c-1,0.3-1.8,0.9-2.4,1.7l3.5-6.1c1.3-0.4,3.1-1.1,4-2.6c1.1-1.9,0.3-4.6-0.1-5.7c-1.2,0.2-3.9,0.9-5,2.8
		c-0.9,1.5-0.6,3.4-0.2,4.8l-5,8.7c0.1-0.6,0.1-1.2,0-1.8c-0.6-2.1-2.9-3.4-4-3.9c-0.7,1-2.1,3.3-1.5,5.4c0.5,1.8,2.5,3.1,3.6,3.7
		l-4,7c0-0.5,0-0.9-0.1-1.4c-0.6-2.1-2.9-3.4-4-3.9c-0.7,1-2.1,3.3-1.5,5.4c0.5,1.8,2.3,3,3.5,3.6l-2.3,4c-0.1,0.2,0.1,0.5,0.5,0.7
		s0.8,0.2,0.9,0l4.1-7.1c1.2,0.7,3.3,1.8,5.1,1.3c2.1-0.6,3.5-3,4-4.1C530.9,87.8,528.5,86.3,526.4,86.9z"/>
	<path class="st1" d="M543.5,96.8c-0.6,0.2-1.1,0.4-1.5,0.8l4.3-7.5c1,0.7,3.4,2,5.4,1.5c2.1-0.6,3.5-3,4-4.1
		c-1-0.7-3.4-2.1-5.5-1.6c-1,0.3-1.8,0.9-2.4,1.7l3.5-6.1c1.3-0.4,3.1-1.1,4-2.6c1.1-1.9,0.3-4.6-0.1-5.7c-1.2,0.2-3.9,0.9-5,2.8
		c-0.9,1.5-0.6,3.4-0.2,4.8l-5,8.7c0.1-0.6,0.1-1.2,0-1.8c-0.6-2.1-2.9-3.4-4-3.9c-0.7,1-2.1,3.3-1.5,5.4c0.5,1.8,2.5,3.1,3.6,3.7
		l-4,7c0-0.5,0-0.9-0.1-1.4c-0.6-2.1-2.9-3.4-4-3.9c-0.7,1-2.1,3.3-1.5,5.4c0.5,1.8,2.3,3,3.5,3.6l-2.3,4c-0.1,0.2,0.1,0.5,0.5,0.7
		s0.8,0.2,0.9,0l4.1-7.1c1.2,0.7,3.3,1.8,5.1,1.3c2.1-0.6,3.5-3,4-4.1C548,97.6,545.6,96.2,543.5,96.8z"/>
	<path class="st2" d="M560.6,106.6c-0.6,0.2-1.1,0.4-1.5,0.8l4.3-7.5c1,0.7,3.4,2,5.4,1.5c2.1-0.6,3.5-3,4-4.1
		c-1-0.7-3.4-2.1-5.5-1.6c-1,0.3-1.8,0.9-2.4,1.7l3.5-6.1c1.3-0.4,3.1-1.1,4-2.6c1.1-1.9,0.3-4.6-0.1-5.7c-1.2,0.2-3.9,0.9-5,2.8
		c-0.9,1.5-0.6,3.4-0.2,4.8l-5,8.7c0.1-0.6,0.1-1.2,0-1.8c-0.6-2.1-2.9-3.4-4-3.9c-0.7,1-2.1,3.3-1.5,5.4c0.5,1.8,2.5,3.1,3.6,3.7
		l-4,7c0-0.5,0-0.9-0.1-1.4c-0.6-2.1-2.9-3.4-4-3.9c-0.7,1-2.1,3.3-1.5,5.4c0.5,1.8,2.3,3,3.5,3.6l-2.3,4c-0.1,0.2,0.1,0.5,0.5,0.7
		s0.8,0.2,0.9,0l4.1-7.1c1.2,0.7,3.3,1.8,5.1,1.3c2.1-0.6,3.5-3,4-4.1C565.1,107.5,562.7,106.1,560.6,106.6z"/>
	<path class="st1" d="M577.7,116.5c-0.6,0.2-1.1,0.4-1.5,0.8l4.3-7.5c1,0.7,3.4,2,5.4,1.5c2.1-0.6,3.5-3,4-4.1
		c-1-0.7-3.4-2.1-5.5-1.6c-1,0.3-1.8,0.9-2.4,1.7l3.5-6.1c1.3-0.4,3.1-1.1,4-2.6c1.1-1.9,0.3-4.6-0.1-5.7c-1.2,0.2-3.9,0.9-5,2.8
		c-0.9,1.5-0.6,3.4-0.2,4.8l-5,8.7c0.1-0.6,0.1-1.2,0-1.8c-0.6-2.1-2.9-3.4-4-3.9c-0.7,1-2.1,3.3-1.5,5.4c0.5,1.8,2.5,3.1,3.6,3.7
		l-4,7c0-0.5,0-0.9-0.1-1.4c-0.6-2.1-2.9-3.4-4-3.9c-0.7,1-2.1,3.3-1.5,5.4c0.5,1.8,2.3,3,3.5,3.6l-2.3,4c-0.1,0.2,0.1,0.5,0.5,0.7
		s0.8,0.2,0.9,0l4.1-7.1c1.2,0.7,3.3,1.8,5.1,1.3c2.1-0.6,3.5-3,4-4.1C582.2,117.4,579.8,115.9,577.7,116.5z"/>
	<path class="st2" d="M594.8,126.4c-0.6,0.2-1.1,0.4-1.5,0.8l4.3-7.5c1,0.7,3.4,2,5.4,1.5c2.1-0.6,3.5-3,4-4.1
		c-1-0.7-3.4-2.1-5.5-1.6c-1,0.3-1.8,0.9-2.4,1.7l3.5-6.1c1.3-0.4,3.1-1.1,4-2.6c1.1-1.9,0.3-4.6-0.1-5.7c-1.2,0.2-3.9,0.9-5,2.8
		c-0.9,1.5-0.6,3.4-0.2,4.8l-5,8.7c0.1-0.6,0.1-1.2,0-1.8c-0.6-2.1-2.9-3.4-4-3.9c-0.7,1-2.1,3.3-1.5,5.4c0.5,1.8,2.5,3.1,3.6,3.7
		l-4,7c0-0.5,0-0.9-0.1-1.4c-0.6-2.1-2.9-3.4-4-3.9c-0.7,1-2.1,3.3-1.5,5.4c0.5,1.8,2.3,3,3.5,3.6l-2.3,4c-0.1,0.2,0.1,0.5,0.5,0.7
		c0.4,0.2,0.8,0.2,0.9,0l4.1-7.1c1.2,0.7,3.3,1.8,5.1,1.3c2.1-0.6,3.5-3,4-4.1C599.3,127.2,596.9,125.8,594.8,126.4z"/>
</g>
<g>
	<path class="st6" d="M434.9,39.8l4.5-7.7l-2.6-0.6l-3.1,6.5l-10.4,3.7l-1-9.7l12.6-4.9l7.1-6.8l-2.5,0.2l-5.4,5.1L422.1,29l1.9-7.7
		l2.3-6.3l13.5-8l-0.6-2l-13.4,7.5l-3.9,5.6l-1.4-6.2l-3.3-7.4l-1.4,0.1l3.1,7.2l0.6,6.1l-6.8-5.2L404.9,0l-1.7,0.7l7.9,13.1
		l9.2,7.9l-2.7,13.6l0.7,11.3l-4-6.1l-7-15l-2.8,0.5l6.5,15.4l5.3,9.3l0,5.8c0,0-0.5,8.1-0.8,12.4h7.2l-0.3-11.1l7.9-6.7l-0.5-2.7
		l-7.2,4.7l0.5-8.4L434.9,39.8z"/>
	<g>
		<path class="st2" d="M400.7,47.8l-1.4-0.4h-3.3l-4.6-1l-5.4,9.7h-24.6c-1.7,0-3.2,1.1-3.8,2.5h-5l2,15.3h-2.5l-4.1-15.2l-2.1,3
			v12.2h-2.5l-1-14.3l1-6.1l-1-7.1v-7.2c-1.2,0-2,0.9-2,2v17.3h-2V41.2c0-2.2,1.8-4.1,4.1-4.1H383l5.7-0.9l-2.2-2.2h2
			c0.7,0,1.2,0.2,1.8,0.5l1.7,1.1l0.4-0.1l-0.7-1.5c-0.9-2,0.6-4.1,2.8-4.1h5.7l-4.3,1.7c-0.8,0.3-1.2,1.3-0.9,2.1l0.6,1.2
			c1-0.1,1.7,0.1,2.2,0.9l5.7,8.3c0.5,0.7,0.5,1.7,0,2.4l-0.4,0.4C402.5,47.6,401.6,48,400.7,47.8z"/>
		<path class="st1" d="M398,60.2l-3.6-5.4c-0.4-0.6-1-0.8-1.7-0.7l-0.4,0.1l-0.7-0.8c-0.3-0.4-0.7-0.7-1.2-0.7h-0.5v2l-5.3,1.1H360
			c-1.2,0-2.5,0.9-2.5,2.5v11.3h1.6V58.8c0-0.7,0.6-1.2,1.2-1.2v2.1l1.2,6.3l-1.2,3.8l1.5,8.8h1.7l-0.6-7.1l2.9-4.3l9.9,1.4l0.6,10
			h1.7l0.6-9.6l1.4,0.2l2,9.4h1.7l-1.2-9.1l7.2-7c0.5-0.5,1.3-0.7,2-0.5l1.7,0.5c0.2,0.1,0.4,0.1,0.7,0.1h2.8c0.4,0,0.7-0.2,0.8-0.5
			l0.4-0.8C398.2,60.9,398.2,60.5,398,60.2z"/>
		<polygon class="st1" points="364.3,69.7 368,78.5 369.7,78.5 367.2,70.4 368.2,67.7 365.7,67.3 		"/>
	</g>
	<path class="st6" d="M460.6,35.4h-1.5l-3.5,2.9l-7.5,1.7l1.4-4.6l1.6-3.8l8.6-4.3l-0.3-1.3l-8.5,4l-2.6,3.3l-0.6-3.9l0.5-4.8h-0.9
		l-0.7,4.7l0.1,3.8l-4-3.5l-1,0.6l5.3,5.2l-2.2,8.2v6.9l-2.2-3.9l-1-7.1l-1.7,0.2l0.6,7.3l2.8,5.9l-0.3,3.5c0,0-0.5,4-0.9,6.7h5.3
		l-0.4-8.4l0.6-5.1l3.8-2.1l3.1-4.5l-1.5-0.5l-2.1,3.8l-2.9,1.3l-0.2-6l7.9-2.5L460.6,35.4z"/>
	<polygon class="st6" points="325.6,38.9 323.7,48.6 320.4,53.7 321,44.2 318.6,32.8 326.3,26.1 325.1,25.2 319.3,29.6 319.8,24.5 
		319.3,17.9 318.1,17.9 318.5,24.5 317.3,29.8 314,25 309.3,14.8 308.8,16.5 313.7,27.1 315.6,32.4 317.2,38.9 309.4,32.5 
		304.9,28.2 302.8,28.1 308.8,33.8 317,41.3 316.2,49.5 313.9,46.7 310.6,41.6 309.1,41.8 313,48.3 316.3,52.3 316.6,56.6 316.6,69 
		322.4,69 320.4,59.1 325,51.9 326.5,49.4 328,39.4 	"/>
</g>
<g>
	<path class="st6" d="M727.1,283.6l4.4,0l-0.4-1.2l-3.5,0.3l-4.1-3.5l3.9-2.8l5.2,4.1l4.6,1.4l-0.7-1l-3.5-1l-4.5-4.2l3.7-1.1
		l3.2-0.6l6.7,3.8l0.7-0.7l-6.4-3.8l-3.3-0.3l2.3-2.1l2.3-3.2l-0.4-0.6L735,270l-2.4,1.7l0.6-4.2l3.5-6.4l-0.7-0.5l-3.6,6.5
		l-1.1,5.8l-6.4,2.2l-4.6,3.1l1.6-3.2l4.6-6.6l-0.9-1.1l-4.9,6.5l-2.6,4.5l-2.5,1.4c0,0-3.6,1.8-5.4,2.7l1.8,3l4.6-2.8l4.8,1.7
		l1-0.9l-3.8-1.9l3.7-1.9L727.1,283.6z"/>
	<g>
		<path class="st2" d="M732.7,246.1L711,207.5c-0.3-0.6,0.1-1.3,0.7-1.3l8.2-0.5c0.3,0,0.7,0.2,0.8,0.4l18.1,32.2
			c0.2,0.3,0.1,0.7,0,0.9l-4.7,6.8C733.8,246.7,733,246.6,732.7,246.1z"/>
		<path class="st1" d="M729,243.1l-2.4-4.4l-4.2,2.4l2.4,4.4L729,243.1z"/>
		<path class="st1" d="M720.1,248.1l-2.4-4.4l-10.1,5.7l2.4,4.4L720.1,248.1z"/>
		<path class="st1" d="M714.1,216.6l-2.5-4.4l-4.2,2.4l2.5,4.4L714.1,216.6z"/>
		<path class="st1" d="M705.2,221.6l-2.5-4.4l-10.1,5.7l2.5,4.4L705.2,221.6z"/>
		<path class="st7" d="M704.7,247.8l4.7,8.4l-4.5,2.5c-1.6-2.9-3.1-5.5-4.7-8.4L704.7,247.8z M698.5,236.9l5.3,9.4l-4.5,2.5
			c-1.8-3.2-3.4-6.1-5.3-9.4L698.5,236.9z M692.1,225.6l5.5,9.8l-4.5,2.5c-0.8-1.4-4.7-8.4-5.5-9.8L692.1,225.6z M688.1,218.4
			l3.2,5.6l-4.5,2.5l-3.6-6.4l3.7-2.1C687.3,217.8,687.9,218,688.1,218.4z M674.3,232.8l-2.8-5c-0.2-0.4-0.1-1,0.3-1.2l3.7-2.1
			l3.3,5.8L674.3,232.8z M677.1,223.6l4.5-2.5c2.2,4,4.2,7.5,6.4,11.4l-4.5,2.5C681.2,231,679.1,227.1,677.1,223.6z M681.5,245.6
			l-6.3-11.2l4.5-2.5c0.9,1.6,5.4,9.6,6.3,11.2L681.5,245.6z M684.4,236.6l4.5-2.5c2.2,4,4.2,7.4,6.4,11.4l-4.5,2.5
			C688.4,243.7,686.7,240.7,684.4,236.6z M687.5,256.2l-5.2-9.2l4.5-2.5c1.9,3.3,3.3,5.8,5.2,9.2L687.5,256.2z M691.7,249.6l4.5-2.5
			c1.7,3,2.8,5,4.8,8.5l-4.5,2.5C694.8,255,693.4,252.5,691.7,249.6z M692.6,265.4l-4.3-7.6l4.5-2.5c0.3,0.6,4.4,7.9,4.3,7.6
			L692.6,265.4z M694.9,269.4l-1.4-2.4l4.5-2.5l1.8,3.2l-3.7,2.1C695.6,269.9,695.1,269.8,694.9,269.4z M701.4,266.7
			c-0.2-0.3-4.2-7.5-4-7.1l4.5-2.5c0.1,0.1,4.1,7.3,4,7.1L701.4,266.7z M707.4,263.3l-1.7-3l4.5-2.5l1.2,2.2c0.2,0.4,0.1,1-0.3,1.2
			L707.4,263.3z"/>
		<path class="st7" d="M723.2,259.7l-2.2-3.9l5-2.8c0.4-0.2,0.6-0.8,0.3-1.2l-8-14.3l1-0.5c0.9-0.5,1.2-1.6,0.7-2.4l-6.4-11.3
			c-0.5-0.9-1.6-1.2-2.4-0.7l-1,0.5l-6.4-11.4c-0.2-0.4-0.8-0.6-1.2-0.3s-0.6,0.8-0.3,1.2l6.4,11.4l-1,0.5c-0.9,0.5-1.2,1.6-0.7,2.4
			l4.1,7.4l5.4-3l0.9,1.5l-5.4,3l1.3,2.4c0.5,0.9,1.6,1.2,2.4,0.7l1-0.5l7.6,13.5l-5,2.8c-0.4,0.2-0.6,0.8-0.3,1.2l2.6,4.7
			c0.2,0.4,0.8,0.6,1.2,0.3C723.3,260.7,723.4,260.1,723.2,259.7z M710.4,230.2l-0.9-1.5l4.1-2.3l0.9,1.5L710.4,230.2z"/>
		<path class="st7" d="M712,235.9l-0.9-1.5l-9.1,5.1l0.9,1.5L712,235.9z"/>
	</g>
	<polygon class="st6" points="690.9,193.5 681.6,196.7 675.5,196.4 684,192.1 692.7,184.4 702.4,187.7 702.5,186.2 695.8,183.4 
		700.5,181.3 705.9,177.6 705.4,176.5 699.8,180.1 694.7,181.8 697.1,176.5 703.7,167.3 702,167.7 695.1,177.3 691.5,181.6 
		686.7,186.2 688.4,176.3 689.8,170.2 688.9,168.3 686.9,176.4 684.6,187.3 677,190.6 678.3,187.3 681,181.9 680.2,180.7 
		676.5,187.3 674.7,192.2 671.1,194.5 660.4,200.7 663.3,205.7 670.8,199.1 679.4,199.5 682.3,199.5 691.7,195.8 	"/>
</g>
</svg>
