<?xml version="1.0" encoding="utf-8"?>
<!-- Generator: Adobe Illustrator 25.3.1, SVG Export Plug-In . SVG Version: 6.00 Build 0)  -->
<svg version="1.1" id="Layer_1" xmlns="http://www.w3.org/2000/svg" xmlns:xlink="http://www.w3.org/1999/xlink" x="0px" y="0px"
	 viewBox="0 0 100 100" style="enable-background:new 0 0 100 100;" xml:space="preserve">
<style type="text/css">
	.st0{fill:#3B3F3D;}
	.st1{fill:#E19227;}
	.st2{fill:#FCD09A;}
	.st3{fill:#FFFFFF;}
</style>
<g>
	<circle class="st0" cx="50" cy="50" r="50.2"/>
	<g>
		<path class="st1" d="M77.2,28.4l-54.7-0.6c-0.8,0-1.3-0.9-1-1.6l4.5-9.1c0.2-0.4,0.6-0.6,1-0.6l45.8,0.5c0.4,0,0.8,0.2,1,0.6
			l4.4,9.2C78.5,27.6,78,28.5,77.2,28.4z"/>
		<path class="st2" d="M71.7,30.6l-6.2-0.1l-0.1,6l6.2,0.1L71.7,30.6z"/>
		<path class="st2" d="M71.5,43.1l-6.2-0.1l-0.2,14.4l6.2,0.1L71.5,43.1z"/>
		<path class="st2" d="M34.1,30.2l-6.2-0.1l-0.1,6l6.2,0.1L34.1,30.2z"/>
		<path class="st2" d="M34,42.7l-6.2-0.1L27.6,57l6.2,0.1L34,42.7z"/>
		<path class="st3" d="M61.7,59.6l12,0.1l-0.1,6.4c-4.2,0-7.8-0.1-12-0.1L61.7,59.6z M46.3,59.4l13.3,0.1L59.5,66
			c-4.6-0.1-8.7-0.1-13.3-0.1L46.3,59.4z M30.1,59.2l13.9,0.2L44,65.8c-2,0-12-0.1-13.9-0.2L30.1,59.2z M19.9,59.1l8,0.1l-0.1,6.4
			l-9.1-0.1l0.1-5.3C18.8,59.6,19.3,59.1,19.9,59.1z M26.8,82.9l-7.1-0.1c-0.6,0-1.1-0.5-1.1-1.1l0.1-5.3l8.2,0.1L26.8,82.9z
			 M18.7,74.1l0.1-6.4c5.6,0.1,10.6,0.1,16.2,0.2l-0.1,6.4C29.2,74.3,23.7,74.2,18.7,74.1z M44.9,83.1L29,82.9l0.1-6.4
			c2.3,0,13.6,0.1,15.9,0.2L44.9,83.1z M37.1,74.4l0.1-6.4c5.7,0.1,10.5,0.1,16.2,0.2l-0.1,6.4C47.3,74.5,43,74.4,37.1,74.4z
			 M60.1,83.2l-13-0.1l0.1-6.4c4.8,0.1,8.2,0.1,13,0.1L60.1,83.2z M55.6,74.6l0.1-6.4c4.3,0,7.1,0.1,12.1,0.1l-0.1,6.4
			C63.3,74.6,59.7,74.6,55.6,74.6z M73.1,83.4l-10.8-0.1l0.1-6.4c0.8,0,11.2,0.1,10.8,0.1L73.1,83.4z M78.7,83.4l-3.5,0l0.1-6.4
			l4.6,0.1l-0.1,5.3C79.9,82.9,79.4,83.4,78.7,83.4z M79.9,74.8c-0.4,0-10.6-0.1-10.1-0.1l0.1-6.4c0.2,0,10.3,0.1,10.1,0.1
			L79.9,74.8z M80,66.2l-4.2,0l0.1-6.4l3.1,0c0.6,0,1.1,0.5,1.1,1.1L80,66.2z"/>
		<path class="st3" d="M86,47.1L80.4,47l0.1-7.1c0-0.6-0.5-1.1-1.1-1.1l-20.3-0.2l0-1.4c0-1.2-1-2.2-2.2-2.2l-16-0.2
			c-1.2,0-2.2,1-2.2,2.2l0,1.4l-16.2-0.2c-0.6,0-1.1,0.5-1.1,1.1c0,0.6,0.5,1.1,1.1,1.1l16.2,0.2l0,1.4c0,1.2,1,2.2,2.2,2.2
			l10.5,0.1l0.1-7.6l2.2,0l-0.1,7.6l3.4,0c1.2,0,2.2-1,2.2-2.2l0-1.4L78.3,41l-0.1,7.1c0,0.6,0.5,1.1,1.1,1.1l6.6,0.1
			c0.6,0,1.1-0.5,1.1-1.1C87.1,47.6,86.6,47.1,86,47.1z M46.4,42.5l-2.2,0l0.1-5.9l2.2,0L46.4,42.5z"/>
		<path class="st3" d="M53.5,44.3l-2.2,0l-0.1,13l2.2,0L53.5,44.3z"/>
	</g>
</g>
</svg>
